<?xml version="1.0" encoding="UTF-8" standalone="no"?><svg xmlns="http://www.w3.org/2000/svg" xmlns:xlink="http://www.w3.org/1999/xlink" clip-rule="evenodd" stroke-miterlimit="4.00" viewBox="0 0 1920 1080"><desc>SVG generated by Keynote</desc><defs></defs><g transform="matrix(1.00, 0.00, -0.00, -1.00, 0.0, 1080.0)"><path d="M 0.0 1080.0 L 1920.0 1080.0 L 1920.0 0.0 L 0.0 0.0 Z M 0.0 1080.0 " fill="#FEFFFF"></path><text xml:space="preserve" font-family="Helvetica-Light" font-size="99.7" fill="#000000" transform="matrix(1.00, 0.00, -0.00, -1.00, 139.0, 878.0)">D</text><text xml:space="preserve" font-family="Helvetica-Light" font-size="99.7" fill="#000000" transform="matrix(1.00, 0.00, -0.00, -1.00, 211.0, 878.0)">i</text><text xml:space="preserve" font-family="Helvetica-Light" font-size="99.7" fill="#000000" transform="matrix(1.00, 0.00, -0.00, -1.00, 233.1, 878.0)">f</text><text xml:space="preserve" font-family="Helvetica-Light" font-size="99.7" fill="#000000" transform="matrix(1.00, 0.00, -0.00, -1.00, 259.0, 878.0)">f</text><text xml:space="preserve" font-family="Helvetica-Light" font-size="99.7" fill="#000000" transform="matrix(1.00, 0.00, -0.00, -1.00, 286.7, 878.0)">e</text><text xml:space="preserve" font-family="Helvetica-Light" font-size="99.7" fill="#000000" transform="matrix(1.00, 0.00, -0.00, -1.00, 342.1, 878.0)">r</text><text xml:space="preserve" font-family="Helvetica-Light" font-size="99.7" fill="#000000" transform="matrix(1.00, 0.00, -0.00, -1.00, 373.5, 878.0)">e</text><text xml:space="preserve" font-family="Helvetica-Light" font-size="99.7" fill="#000000" transform="matrix(1.00, 0.00, -0.00, -1.00, 429.0, 878.0)">n</text><text xml:space="preserve" font-family="Helvetica-Light" font-size="99.7" fill="#000000" transform="matrix(1.00, 0.00, -0.00, -1.00, 484.4, 878.0)">c</text><text xml:space="preserve" font-family="Helvetica-Light" font-size="99.7" fill="#000000" transform="matrix(1.00, 0.00, -0.00, -1.00, 539.8, 878.0)">e</text><text xml:space="preserve" font-family="Helvetica-Light" font-size="99.7" fill="#000000" transform="matrix(1.00, 0.00, -0.00, -1.00, 595.2, 878.0)">s</text><text xml:space="preserve" font-family="Helvetica-Light" font-size="99.7" fill="#000000" transform="matrix(1.00, 0.00, -0.00, -1.00, 645.1, 878.0)"> </text><text xml:space="preserve" font-family="Helvetica-Light" font-size="99.7" fill="#000000" transform="matrix(1.00, 0.00, -0.00, -1.00, 672.8, 878.0)">i</text><text xml:space="preserve" font-family="Helvetica-Light" font-size="99.7" fill="#000000" transform="matrix(1.00, 0.00, -0.00, -1.00, 694.9, 878.0)">n</text><text xml:space="preserve" font-family="Helvetica-Light" font-size="99.7" fill="#000000" transform="matrix(1.00, 0.00, -0.00, -1.00, 750.3, 878.0)"> </text><text xml:space="preserve" font-family="Helvetica-Light" font-size="99.7" fill="#000000" transform="matrix(1.00, 0.00, -0.00, -1.00, 778.0, 878.0)">t</text><text xml:space="preserve" font-family="Helvetica-Light" font-size="99.7" fill="#000000" transform="matrix(1.00, 0.00, -0.00, -1.00, 805.8, 878.0)">h</text><text xml:space="preserve" font-family="Helvetica-Light" font-size="99.7" fill="#000000" transform="matrix(1.00, 0.00, -0.00, -1.00, 861.2, 878.0)">e</text><text xml:space="preserve" font-family="Helvetica-Light" font-size="99.7" fill="#000000" transform="matrix(1.00, 0.00, -0.00, -1.00, 916.6, 878.0)"> </text><text xml:space="preserve" font-family="Helvetica-Light" font-size="99.7" fill="#000000" transform="matrix(1.00, 0.00, -0.00, -1.00, 944.3, 878.0)">t</text><text xml:space="preserve" font-family="Helvetica-Light" font-size="99.7" fill="#000000" transform="matrix(1.00, 0.00, -0.00, -1.00, 972.0, 878.0)">e</text><text xml:space="preserve" font-family="Helvetica-Light" font-size="99.7" fill="#000000" transform="matrix(1.00, 0.00, -0.00, -1.00, 1027.4, 878.0)">m</text><text xml:space="preserve" font-family="Helvetica-Light" font-size="99.7" fill="#000000" transform="matrix(1.00, 0.00, -0.00, -1.00, 1110.5, 878.0)">p</text><text xml:space="preserve" font-family="Helvetica-Light" font-size="99.7" fill="#000000" transform="matrix(1.00, 0.00, -0.00, -1.00, 1171.4, 878.0)">l</text><text xml:space="preserve" font-family="Helvetica-Light" font-size="99.7" fill="#000000" transform="matrix(1.00, 0.00, -0.00, -1.00, 1193.5, 878.0)">a</text><text xml:space="preserve" font-family="Helvetica-Light" font-size="99.7" fill="#000000" transform="matrix(1.00, 0.00, -0.00, -1.00, 1248.9, 878.0)">t</text><text xml:space="preserve" font-family="Helvetica-Light" font-size="99.7" fill="#000000" transform="matrix(1.00, 0.00, -0.00, -1.00, 1276.6, 878.0)">e</text><text xml:space="preserve" font-family="Helvetica-Light" font-size="99.7" fill="#000000" transform="matrix(1.00, 0.00, -0.00, -1.00, 1332.1, 878.0)"> </text><text xml:space="preserve" font-family="Helvetica-Light" font-size="99.7" fill="#000000" transform="matrix(1.00, 0.00, -0.00, -1.00, 1359.8, 878.0)">l</text><text xml:space="preserve" font-family="Helvetica-Light" font-size="99.7" fill="#000000" transform="matrix(1.00, 0.00, -0.00, -1.00, 1381.9, 878.0)">a</text><text xml:space="preserve" font-family="Helvetica-Light" font-size="99.7" fill="#000000" transform="matrix(1.00, 0.00, -0.00, -1.00, 1437.3, 878.0)">n</text><text xml:space="preserve" font-family="Helvetica-Light" font-size="99.7" fill="#000000" transform="matrix(1.00, 0.00, -0.00, -1.00, 1492.8, 878.0)">g</text><text xml:space="preserve" font-family="Helvetica-Light" font-size="99.7" fill="#000000" transform="matrix(1.00, 0.00, -0.00, -1.00, 1553.7, 878.0)">u</text><text xml:space="preserve" font-family="Helvetica-Light" font-size="99.7" fill="#000000" transform="matrix(1.00, 0.00, -0.00, -1.00, 1609.1, 878.0)">a</text><text xml:space="preserve" font-family="Helvetica-Light" font-size="99.7" fill="#000000" transform="matrix(1.00, 0.00, -0.00, -1.00, 1664.5, 878.0)">g</text><text xml:space="preserve" font-family="Helvetica-Light" font-size="99.7" fill="#000000" transform="matrix(1.00, 0.00, -0.00, -1.00, 1725.4, 878.0)">e</text><text xml:space="preserve" font-family="Helvetica-Light" font-size="36.3" fill="#000000" transform="matrix(1.00, 0.00, -0.00, -1.00, 137.0, 778.8)">•</text><text xml:space="preserve" font-family="Helvetica-Light" font-size="48.4" fill="#000000" transform="matrix(1.00, 0.00, -0.00, -1.00, 183.0, 774.0)">(</text><text xml:space="preserve" font-family="Helvetica-Light" font-size="48.4" fill="#000000" transform="matrix(1.00, 0.00, -0.00, -1.00, 199.1, 774.0)">c</text><text xml:space="preserve" font-family="Helvetica-Light" font-size="48.4" fill="#000000" transform="matrix(1.00, 0.00, -0.00, -1.00, 226.0, 774.0)">l</text><text xml:space="preserve" font-family="Helvetica-Light" font-size="48.4" fill="#000000" transform="matrix(1.00, 0.00, -0.00, -1.00, 236.7, 774.0)">i</text><text xml:space="preserve" font-family="Helvetica-Light" font-size="48.4" fill="#000000" transform="matrix(1.00, 0.00, -0.00, -1.00, 247.5, 774.0)">c</text><text xml:space="preserve" font-family="Helvetica-Light" font-size="48.4" fill="#000000" transform="matrix(1.00, 0.00, -0.00, -1.00, 274.4, 774.0)">k</text><text xml:space="preserve" font-family="Helvetica-Light" font-size="48.4" fill="#000000" transform="matrix(1.00, 0.00, -0.00, -1.00, 298.5, 774.0)">)</text><text xml:space="preserve" font-family="Helvetica-Light" font-size="48.4" fill="#000000" transform="matrix(1.00, 0.00, -0.00, -1.00, 314.6, 774.0)">=</text><text xml:space="preserve" font-family="Helvetica-Light" font-size="48.4" fill="#000000" transform="matrix(1.00, 0.00, -0.00, -1.00, 346.6, 774.0)">“</text><text xml:space="preserve" font-family="Helvetica-Light" font-size="48.4" fill="#000000" transform="matrix(1.00, 0.00, -0.00, -1.00, 365.4, 774.0)">h</text><text xml:space="preserve" font-family="Helvetica-Light" font-size="48.4" fill="#000000" transform="matrix(1.00, 0.00, -0.00, -1.00, 392.3, 774.0)">a</text><text xml:space="preserve" font-family="Helvetica-Light" font-size="48.4" fill="#000000" transform="matrix(1.00, 0.00, -0.00, -1.00, 419.1, 774.0)">n</text><text xml:space="preserve" font-family="Helvetica-Light" font-size="48.4" fill="#000000" transform="matrix(1.00, 0.00, -0.00, -1.00, 446.0, 774.0)">d</text><text xml:space="preserve" font-family="Helvetica-Light" font-size="48.4" fill="#000000" transform="matrix(1.00, 0.00, -0.00, -1.00, 475.6, 774.0)">l</text><text xml:space="preserve" font-family="Helvetica-Light" font-size="48.4" fill="#000000" transform="matrix(1.00, 0.00, -0.00, -1.00, 486.3, 774.0)">e</text><text xml:space="preserve" font-family="Helvetica-Light" font-size="48.4" fill="#000000" transform="matrix(1.00, 0.00, -0.00, -1.00, 513.2, 774.0)">C</text><text xml:space="preserve" font-family="Helvetica-Light" font-size="48.4" fill="#000000" transform="matrix(1.00, 0.00, -0.00, -1.00, 548.1, 774.0)">l</text><text xml:space="preserve" font-family="Helvetica-Light" font-size="48.4" fill="#000000" transform="matrix(1.00, 0.00, -0.00, -1.00, 558.9, 774.0)">i</text><text xml:space="preserve" font-family="Helvetica-Light" font-size="48.4" fill="#000000" transform="matrix(1.00, 0.00, -0.00, -1.00, 569.6, 774.0)">c</text><text xml:space="preserve" font-family="Helvetica-Light" font-size="48.4" fill="#000000" transform="matrix(1.00, 0.00, -0.00, -1.00, 596.5, 774.0)">k</text><text xml:space="preserve" font-family="Helvetica-Light" font-size="48.4" fill="#000000" transform="matrix(1.00, 0.00, -0.00, -1.00, 620.7, 774.0)">(</text><text xml:space="preserve" font-family="Helvetica-Light" font-size="48.4" fill="#000000" transform="matrix(1.00, 0.00, -0.00, -1.00, 636.8, 774.0)">$</text><text xml:space="preserve" font-family="Helvetica-Light" font-size="48.4" fill="#000000" transform="matrix(1.00, 0.00, -0.00, -1.00, 663.7, 774.0)">e</text><text xml:space="preserve" font-family="Helvetica-Light" font-size="48.4" fill="#000000" transform="matrix(1.00, 0.00, -0.00, -1.00, 690.5, 774.0)">v</text><text xml:space="preserve" font-family="Helvetica-Light" font-size="48.4" fill="#000000" transform="matrix(1.00, 0.00, -0.00, -1.00, 714.7, 774.0)">e</text><text xml:space="preserve" font-family="Helvetica-Light" font-size="48.4" fill="#000000" transform="matrix(1.00, 0.00, -0.00, -1.00, 741.6, 774.0)">n</text><text xml:space="preserve" font-family="Helvetica-Light" font-size="48.4" fill="#000000" transform="matrix(1.00, 0.00, -0.00, -1.00, 768.5, 774.0)">t</text><text xml:space="preserve" font-family="Helvetica-Light" font-size="48.4" fill="#000000" transform="matrix(1.00, 0.00, -0.00, -1.00, 781.9, 774.0)">)</text><text xml:space="preserve" font-family="Helvetica-Light" font-size="48.4" fill="#000000" transform="matrix(1.00, 0.00, -0.00, -1.00, 798.0, 774.0)">”</text><text xml:space="preserve" font-family="Helvetica-Light" font-size="36.3" fill="#000000" transform="matrix(1.00, 0.00, -0.00, -1.00, 137.0, 666.0)">•</text><text xml:space="preserve" font-family="Helvetica-Light" font-size="48.4" fill="#000000" transform="matrix(1.00, 0.00, -0.00, -1.00, 183.0, 661.0)">[</text><text xml:space="preserve" font-family="Helvetica-Light" font-size="48.4" fill="#000000" transform="matrix(1.00, 0.00, -0.00, -1.00, 199.1, 661.0)">s</text><text xml:space="preserve" font-family="Helvetica-Light" font-size="48.4" fill="#000000" transform="matrix(1.00, 0.00, -0.00, -1.00, 223.3, 661.0)">r</text><text xml:space="preserve" font-family="Helvetica-Light" font-size="48.4" fill="#000000" transform="matrix(1.00, 0.00, -0.00, -1.00, 238.5, 661.0)">c</text><text xml:space="preserve" font-family="Helvetica-Light" font-size="48.4" fill="#000000" transform="matrix(1.00, 0.00, -0.00, -1.00, 265.4, 661.0)">]</text><text xml:space="preserve" font-family="Helvetica-Light" font-size="48.4" fill="#000000" transform="matrix(1.00, 0.00, -0.00, -1.00, 281.5, 661.0)">=</text><text xml:space="preserve" font-family="Helvetica-Light" font-size="48.4" fill="#000000" transform="matrix(1.00, 0.00, -0.00, -1.00, 313.4, 661.0)">“</text><text xml:space="preserve" font-family="Helvetica-Light" font-size="48.4" fill="#000000" transform="matrix(1.00, 0.00, -0.00, -1.00, 332.2, 661.0)">m</text><text xml:space="preserve" font-family="Helvetica-Light" font-size="48.4" fill="#000000" transform="matrix(1.00, 0.00, -0.00, -1.00, 372.5, 661.0)">o</text><text xml:space="preserve" font-family="Helvetica-Light" font-size="48.4" fill="#000000" transform="matrix(1.00, 0.00, -0.00, -1.00, 399.4, 661.0)">v</text><text xml:space="preserve" font-family="Helvetica-Light" font-size="48.4" fill="#000000" transform="matrix(1.00, 0.00, -0.00, -1.00, 423.6, 661.0)">i</text><text xml:space="preserve" font-family="Helvetica-Light" font-size="48.4" fill="#000000" transform="matrix(1.00, 0.00, -0.00, -1.00, 434.3, 661.0)">e</text><text xml:space="preserve" font-family="Helvetica-Light" font-size="48.4" fill="#000000" transform="matrix(1.00, 0.00, -0.00, -1.00, 461.2, 661.0)">.</text><text xml:space="preserve" font-family="Helvetica-Light" font-size="48.4" fill="#000000" transform="matrix(1.00, 0.00, -0.00, -1.00, 474.7, 661.0)">P</text><text xml:space="preserve" font-family="Helvetica-Light" font-size="48.4" fill="#000000" transform="matrix(1.00, 0.00, -0.00, -1.00, 504.2, 661.0)">o</text><text xml:space="preserve" font-family="Helvetica-Light" font-size="48.4" fill="#000000" transform="matrix(1.00, 0.00, -0.00, -1.00, 531.1, 661.0)">s</text><text xml:space="preserve" font-family="Helvetica-Light" font-size="48.4" fill="#000000" transform="matrix(1.00, 0.00, -0.00, -1.00, 555.3, 661.0)">t</text><text xml:space="preserve" font-family="Helvetica-Light" font-size="48.4" fill="#000000" transform="matrix(1.00, 0.00, -0.00, -1.00, 568.7, 661.0)">e</text><text xml:space="preserve" font-family="Helvetica-Light" font-size="48.4" fill="#000000" transform="matrix(1.00, 0.00, -0.00, -1.00, 595.6, 661.0)">r</text><text xml:space="preserve" font-family="Helvetica-Light" font-size="48.4" fill="#000000" transform="matrix(1.00, 0.00, -0.00, -1.00, 611.7, 661.0)">”</text><text xml:space="preserve" font-family="Helvetica-Light" font-size="36.3" fill="#000000" transform="matrix(1.00, 0.00, -0.00, -1.00, 137.0, 553.1)">•</text><text xml:space="preserve" font-family="Helvetica-Light" font-size="48.4" fill="#000000" transform="matrix(1.00, 0.00, -0.00, -1.00, 183.0, 548.0)">[</text><text xml:space="preserve" font-family="Helvetica-Light" font-size="48.4" fill="#000000" transform="matrix(1.00, 0.00, -0.00, -1.00, 199.1, 548.0)">(</text><text xml:space="preserve" font-family="Helvetica-Light" font-size="48.4" fill="#000000" transform="matrix(1.00, 0.00, -0.00, -1.00, 215.2, 548.0)">n</text><text xml:space="preserve" font-family="Helvetica-Light" font-size="48.4" fill="#000000" transform="matrix(1.00, 0.00, -0.00, -1.00, 242.1, 548.0)">g</text><text xml:space="preserve" font-family="Helvetica-Light" font-size="48.4" fill="#000000" transform="matrix(1.00, 0.00, -0.00, -1.00, 271.6, 548.0)">M</text><text xml:space="preserve" font-family="Helvetica-Light" font-size="48.4" fill="#000000" transform="matrix(1.00, 0.00, -0.00, -1.00, 311.9, 548.0)">o</text><text xml:space="preserve" font-family="Helvetica-Light" font-size="48.4" fill="#000000" transform="matrix(1.00, 0.00, -0.00, -1.00, 338.8, 548.0)">d</text><text xml:space="preserve" font-family="Helvetica-Light" font-size="48.4" fill="#000000" transform="matrix(1.00, 0.00, -0.00, -1.00, 368.4, 548.0)">e</text><text xml:space="preserve" font-family="Helvetica-Light" font-size="48.4" fill="#000000" transform="matrix(1.00, 0.00, -0.00, -1.00, 395.3, 548.0)">l</text><text xml:space="preserve" font-family="Helvetica-Light" font-size="48.4" fill="#000000" transform="matrix(1.00, 0.00, -0.00, -1.00, 406.0, 548.0)">)</text><text xml:space="preserve" font-family="Helvetica-Light" font-size="48.4" fill="#000000" transform="matrix(1.00, 0.00, -0.00, -1.00, 422.1, 548.0)">]</text><text xml:space="preserve" font-family="Helvetica-Light" font-size="48.4" fill="#000000" transform="matrix(1.00, 0.00, -0.00, -1.00, 438.2, 548.0)">=</text><text xml:space="preserve" font-family="Helvetica-Light" font-size="48.4" fill="#000000" transform="matrix(1.00, 0.00, -0.00, -1.00, 470.1, 548.0)">“</text><text xml:space="preserve" font-family="Helvetica-Light" font-size="48.4" fill="#000000" transform="matrix(1.00, 0.00, -0.00, -1.00, 488.9, 548.0)">m</text><text xml:space="preserve" font-family="Helvetica-Light" font-size="48.4" fill="#000000" transform="matrix(1.00, 0.00, -0.00, -1.00, 529.2, 548.0)">o</text><text xml:space="preserve" font-family="Helvetica-Light" font-size="48.4" fill="#000000" transform="matrix(1.00, 0.00, -0.00, -1.00, 556.1, 548.0)">v</text><text xml:space="preserve" font-family="Helvetica-Light" font-size="48.4" fill="#000000" transform="matrix(1.00, 0.00, -0.00, -1.00, 580.3, 548.0)">i</text><text xml:space="preserve" font-family="Helvetica-Light" font-size="48.4" fill="#000000" transform="matrix(1.00, 0.00, -0.00, -1.00, 591.0, 548.0)">e</text><text xml:space="preserve" font-family="Helvetica-Light" font-size="48.4" fill="#000000" transform="matrix(1.00, 0.00, -0.00, -1.00, 617.9, 548.0)">.</text><text xml:space="preserve" font-family="Helvetica-Light" font-size="48.4" fill="#000000" transform="matrix(1.00, 0.00, -0.00, -1.00, 631.3, 548.0)">T</text><text xml:space="preserve" font-family="Helvetica-Light" font-size="48.4" fill="#000000" transform="matrix(1.00, 0.00, -0.00, -1.00, 658.2, 548.0)">i</text><text xml:space="preserve" font-family="Helvetica-Light" font-size="48.4" fill="#000000" transform="matrix(1.00, 0.00, -0.00, -1.00, 669.0, 548.0)">t</text><text xml:space="preserve" font-family="Helvetica-Light" font-size="48.4" fill="#000000" transform="matrix(1.00, 0.00, -0.00, -1.00, 682.4, 548.0)">l</text><text xml:space="preserve" font-family="Helvetica-Light" font-size="48.4" fill="#000000" transform="matrix(1.00, 0.00, -0.00, -1.00, 693.1, 548.0)">e</text><text xml:space="preserve" font-family="Helvetica-Light" font-size="48.4" fill="#000000" transform="matrix(1.00, 0.00, -0.00, -1.00, 720.0, 548.0)">”</text><text xml:space="preserve" font-family="Helvetica-Light" font-size="48.4" fill="#000000" transform="matrix(1.00, 0.00, -0.00, -1.00, 738.8, 548.0)"> </text><text xml:space="preserve" font-family="Helvetica-Light" font-size="36.3" fill="#000000" transform="matrix(1.00, 0.00, -0.00, -1.00, 187.0, 440.2)">•</text><text xml:space="preserve" font-family="Helvetica-Light" font-size="48.4" fill="#000000" transform="matrix(1.00, 0.00, -0.00, -1.00, 233.0, 436.0)">T</text><text xml:space="preserve" font-family="Helvetica-Light" font-size="48.4" fill="#000000" transform="matrix(1.00, 0.00, -0.00, -1.00, 255.8, 436.0)">w</text><text xml:space="preserve" font-family="Helvetica-Light" font-size="48.4" fill="#000000" transform="matrix(1.00, 0.00, -0.00, -1.00, 290.7, 436.0)">o</text><text xml:space="preserve" font-family="Helvetica-Light" font-size="48.4" fill="#000000" transform="matrix(1.00, 0.00, -0.00, -1.00, 317.6, 436.0)">-</text><text xml:space="preserve" font-family="Helvetica-Light" font-size="48.4" fill="#000000" transform="matrix(1.00, 0.00, -0.00, -1.00, 333.7, 436.0)">w</text><text xml:space="preserve" font-family="Helvetica-Light" font-size="48.4" fill="#000000" transform="matrix(1.00, 0.00, -0.00, -1.00, 368.6, 436.0)">a</text><text xml:space="preserve" font-family="Helvetica-Light" font-size="48.4" fill="#000000" transform="matrix(1.00, 0.00, -0.00, -1.00, 395.5, 436.0)">y</text><text xml:space="preserve" font-family="Helvetica-Light" font-size="48.4" fill="#000000" transform="matrix(1.00, 0.00, -0.00, -1.00, 419.7, 436.0)"> </text><text xml:space="preserve" font-family="Helvetica-Light" font-size="48.4" fill="#000000" transform="matrix(1.00, 0.00, -0.00, -1.00, 433.2, 436.0)">b</text><text xml:space="preserve" font-family="Helvetica-Light" font-size="48.4" fill="#000000" transform="matrix(1.00, 0.00, -0.00, -1.00, 462.7, 436.0)">i</text><text xml:space="preserve" font-family="Helvetica-Light" font-size="48.4" fill="#000000" transform="matrix(1.00, 0.00, -0.00, -1.00, 473.4, 436.0)">n</text><text xml:space="preserve" font-family="Helvetica-Light" font-size="48.4" fill="#000000" transform="matrix(1.00, 0.00, -0.00, -1.00, 500.3, 436.0)">d</text><text xml:space="preserve" font-family="Helvetica-Light" font-size="36.3" fill="#000000" transform="matrix(1.00, 0.00, -0.00, -1.00, 137.0, 327.4)">•</text><text xml:space="preserve" font-family="Helvetica-Light" font-size="48.4" fill="#000000" transform="matrix(1.00, 0.00, -0.00, -1.00, 183.0, 323.0)">[</text><text xml:space="preserve" font-family="Helvetica-Light" font-size="48.4" fill="#000000" transform="matrix(1.00, 0.00, -0.00, -1.00, 199.1, 323.0)">c</text><text xml:space="preserve" font-family="Helvetica-Light" font-size="48.4" fill="#000000" transform="matrix(1.00, 0.00, -0.00, -1.00, 226.0, 323.0)">l</text><text xml:space="preserve" font-family="Helvetica-Light" font-size="48.4" fill="#000000" transform="matrix(1.00, 0.00, -0.00, -1.00, 236.7, 323.0)">a</text><text xml:space="preserve" font-family="Helvetica-Light" font-size="48.4" fill="#000000" transform="matrix(1.00, 0.00, -0.00, -1.00, 263.6, 323.0)">s</text><text xml:space="preserve" font-family="Helvetica-Light" font-size="48.4" fill="#000000" transform="matrix(1.00, 0.00, -0.00, -1.00, 287.8, 323.0)">s</text><text xml:space="preserve" font-family="Helvetica-Light" font-size="48.4" fill="#000000" transform="matrix(1.00, 0.00, -0.00, -1.00, 312.0, 323.0)">.</text><text xml:space="preserve" font-family="Helvetica-Light" font-size="48.4" fill="#000000" transform="matrix(1.00, 0.00, -0.00, -1.00, 325.4, 323.0)">a</text><text xml:space="preserve" font-family="Helvetica-Light" font-size="48.4" fill="#000000" transform="matrix(1.00, 0.00, -0.00, -1.00, 352.3, 323.0)">c</text><text xml:space="preserve" font-family="Helvetica-Light" font-size="48.4" fill="#000000" transform="matrix(1.00, 0.00, -0.00, -1.00, 379.2, 323.0)">t</text><text xml:space="preserve" font-family="Helvetica-Light" font-size="48.4" fill="#000000" transform="matrix(1.00, 0.00, -0.00, -1.00, 392.6, 323.0)">i</text><text xml:space="preserve" font-family="Helvetica-Light" font-size="48.4" fill="#000000" transform="matrix(1.00, 0.00, -0.00, -1.00, 403.4, 323.0)">v</text><text xml:space="preserve" font-family="Helvetica-Light" font-size="48.4" fill="#000000" transform="matrix(1.00, 0.00, -0.00, -1.00, 427.6, 323.0)">e</text><text xml:space="preserve" font-family="Helvetica-Light" font-size="48.4" fill="#000000" transform="matrix(1.00, 0.00, -0.00, -1.00, 454.4, 323.0)">]</text><text xml:space="preserve" font-family="Helvetica-Light" font-size="48.4" fill="#000000" transform="matrix(1.00, 0.00, -0.00, -1.00, 470.5, 323.0)">=</text><text xml:space="preserve" font-family="Helvetica-Light" font-size="48.4" fill="#000000" transform="matrix(1.00, 0.00, -0.00, -1.00, 502.5, 323.0)">“</text><text xml:space="preserve" font-family="Helvetica-Light" font-size="48.4" fill="#000000" transform="matrix(1.00, 0.00, -0.00, -1.00, 521.3, 323.0)">s</text><text xml:space="preserve" font-family="Helvetica-Light" font-size="48.4" fill="#000000" transform="matrix(1.00, 0.00, -0.00, -1.00, 545.5, 323.0)">o</text><text xml:space="preserve" font-family="Helvetica-Light" font-size="48.4" fill="#000000" transform="matrix(1.00, 0.00, -0.00, -1.00, 572.3, 323.0)">m</text><text xml:space="preserve" font-family="Helvetica-Light" font-size="48.4" fill="#000000" transform="matrix(1.00, 0.00, -0.00, -1.00, 612.6, 323.0)">e</text><text xml:space="preserve" font-family="Helvetica-Light" font-size="48.4" fill="#000000" transform="matrix(1.00, 0.00, -0.00, -1.00, 639.5, 323.0)">C</text><text xml:space="preserve" font-family="Helvetica-Light" font-size="48.4" fill="#000000" transform="matrix(1.00, 0.00, -0.00, -1.00, 674.4, 323.0)">o</text><text xml:space="preserve" font-family="Helvetica-Light" font-size="48.4" fill="#000000" transform="matrix(1.00, 0.00, -0.00, -1.00, 701.3, 323.0)">n</text><text xml:space="preserve" font-family="Helvetica-Light" font-size="48.4" fill="#000000" transform="matrix(1.00, 0.00, -0.00, -1.00, 728.2, 323.0)">d</text><text xml:space="preserve" font-family="Helvetica-Light" font-size="48.4" fill="#000000" transform="matrix(1.00, 0.00, -0.00, -1.00, 757.8, 323.0)">i</text><text xml:space="preserve" font-family="Helvetica-Light" font-size="48.4" fill="#000000" transform="matrix(1.00, 0.00, -0.00, -1.00, 768.5, 323.0)">t</text><text xml:space="preserve" font-family="Helvetica-Light" font-size="48.4" fill="#000000" transform="matrix(1.00, 0.00, -0.00, -1.00, 781.9, 323.0)">i</text><text xml:space="preserve" font-family="Helvetica-Light" font-size="48.4" fill="#000000" transform="matrix(1.00, 0.00, -0.00, -1.00, 792.7, 323.0)">o</text><text xml:space="preserve" font-family="Helvetica-Light" font-size="48.4" fill="#000000" transform="matrix(1.00, 0.00, -0.00, -1.00, 819.6, 323.0)">n</text><text xml:space="preserve" font-family="Helvetica-Light" font-size="48.4" fill="#000000" transform="matrix(1.00, 0.00, -0.00, -1.00, 846.5, 323.0)">”</text><text xml:space="preserve" font-family="Helvetica-Light" font-size="48.4" fill="#000000" transform="matrix(1.00, 0.00, -0.00, -1.00, 865.3, 323.0)"> </text><text xml:space="preserve" font-family="Helvetica-Light" font-size="48.4" fill="#000000" transform="matrix(1.00, 0.00, -0.00, -1.00, 878.7, 323.0)">O</text><text xml:space="preserve" font-family="Helvetica-Light" font-size="48.4" fill="#000000" transform="matrix(1.00, 0.00, -0.00, -1.00, 916.3, 323.0)">R</text><text xml:space="preserve" font-family="Helvetica-Light" font-size="48.4" fill="#000000" transform="matrix(1.00, 0.00, -0.00, -1.00, 948.6, 323.0)"> </text><text xml:space="preserve" font-family="Helvetica-Light" font-size="48.4" fill="#000000" transform="matrix(1.00, 0.00, -0.00, -1.00, 962.0, 323.0)">[</text><text xml:space="preserve" font-family="Helvetica-Light" font-size="48.4" fill="#000000" transform="matrix(1.00, 0.00, -0.00, -1.00, 978.1, 323.0)">n</text><text xml:space="preserve" font-family="Helvetica-Light" font-size="48.4" fill="#000000" transform="matrix(1.00, 0.00, -0.00, -1.00, 1005.0, 323.0)">g</text><text xml:space="preserve" font-family="Helvetica-Light" font-size="48.4" fill="#000000" transform="matrix(1.00, 0.00, -0.00, -1.00, 1034.6, 323.0)">C</text><text xml:space="preserve" font-family="Helvetica-Light" font-size="48.4" fill="#000000" transform="matrix(1.00, 0.00, -0.00, -1.00, 1069.5, 323.0)">l</text><text xml:space="preserve" font-family="Helvetica-Light" font-size="48.4" fill="#000000" transform="matrix(1.00, 0.00, -0.00, -1.00, 1080.2, 323.0)">a</text><text xml:space="preserve" font-family="Helvetica-Light" font-size="48.4" fill="#000000" transform="matrix(1.00, 0.00, -0.00, -1.00, 1107.1, 323.0)">s</text><text xml:space="preserve" font-family="Helvetica-Light" font-size="48.4" fill="#000000" transform="matrix(1.00, 0.00, -0.00, -1.00, 1131.3, 323.0)">s</text><text xml:space="preserve" font-family="Helvetica-Light" font-size="48.4" fill="#000000" transform="matrix(1.00, 0.00, -0.00, -1.00, 1155.5, 323.0)">]</text><text xml:space="preserve" font-family="Helvetica-Light" font-size="48.4" fill="#000000" transform="matrix(1.00, 0.00, -0.00, -1.00, 1171.6, 323.0)">=</text><text xml:space="preserve" font-family="Helvetica-Light" font-size="48.4" fill="#000000" transform="matrix(1.00, 0.00, -0.00, -1.00, 1203.5, 323.0)">“</text><text xml:space="preserve" font-family="Helvetica-Light" font-size="48.4" fill="#000000" transform="matrix(1.00, 0.00, -0.00, -1.00, 1222.3, 323.0)">{</text><text xml:space="preserve" font-family="Helvetica-Light" font-size="48.4" fill="#000000" transform="matrix(1.00, 0.00, -0.00, -1.00, 1238.4, 323.0)"> </text><text xml:space="preserve" font-family="Helvetica-Light" font-size="48.4" fill="#000000" transform="matrix(1.00, 0.00, -0.00, -1.00, 1251.9, 323.0)">a</text><text xml:space="preserve" font-family="Helvetica-Light" font-size="48.4" fill="#000000" transform="matrix(1.00, 0.00, -0.00, -1.00, 1278.7, 323.0)">c</text><text xml:space="preserve" font-family="Helvetica-Light" font-size="48.4" fill="#000000" transform="matrix(1.00, 0.00, -0.00, -1.00, 1305.6, 323.0)">t</text><text xml:space="preserve" font-family="Helvetica-Light" font-size="48.4" fill="#000000" transform="matrix(1.00, 0.00, -0.00, -1.00, 1319.1, 323.0)">i</text><text xml:space="preserve" font-family="Helvetica-Light" font-size="48.4" fill="#000000" transform="matrix(1.00, 0.00, -0.00, -1.00, 1329.8, 323.0)">v</text><text xml:space="preserve" font-family="Helvetica-Light" font-size="48.4" fill="#000000" transform="matrix(1.00, 0.00, -0.00, -1.00, 1354.0, 323.0)">e</text><text xml:space="preserve" font-family="Helvetica-Light" font-size="48.4" fill="#000000" transform="matrix(1.00, 0.00, -0.00, -1.00, 1380.9, 323.0)">:</text><text xml:space="preserve" font-family="Helvetica-Light" font-size="48.4" fill="#000000" transform="matrix(1.00, 0.00, -0.00, -1.00, 1394.3, 323.0)"> </text><text xml:space="preserve" font-family="Helvetica-Light" font-size="48.4" fill="#000000" transform="matrix(1.00, 0.00, -0.00, -1.00, 1407.8, 323.0)">s</text><text xml:space="preserve" font-family="Helvetica-Light" font-size="48.4" fill="#000000" transform="matrix(1.00, 0.00, -0.00, -1.00, 1431.9, 323.0)">o</text><text xml:space="preserve" font-family="Helvetica-Light" font-size="48.4" fill="#000000" transform="matrix(1.00, 0.00, -0.00, -1.00, 1458.8, 323.0)">m</text><text xml:space="preserve" font-family="Helvetica-Light" font-size="48.4" fill="#000000" transform="matrix(1.00, 0.00, -0.00, -1.00, 1499.1, 323.0)">e</text><text xml:space="preserve" font-family="Helvetica-Light" font-size="48.4" fill="#000000" transform="matrix(1.00, 0.00, -0.00, -1.00, 1526.0, 323.0)">C</text><text xml:space="preserve" font-family="Helvetica-Light" font-size="48.4" fill="#000000" transform="matrix(1.00, 0.00, -0.00, -1.00, 1560.9, 323.0)">o</text><text xml:space="preserve" font-family="Helvetica-Light" font-size="48.4" fill="#000000" transform="matrix(1.00, 0.00, -0.00, -1.00, 1587.8, 323.0)">n</text><text xml:space="preserve" font-family="Helvetica-Light" font-size="48.4" fill="#000000" transform="matrix(1.00, 0.00, -0.00, -1.00, 1614.7, 323.0)">d</text><text xml:space="preserve" font-family="Helvetica-Light" font-size="48.4" fill="#000000" transform="matrix(1.00, 0.00, -0.00, -1.00, 1644.2, 323.0)">i</text><text xml:space="preserve" font-family="Helvetica-Light" font-size="48.4" fill="#000000" transform="matrix(1.00, 0.00, -0.00, -1.00, 1655.0, 323.0)">t</text><text xml:space="preserve" font-family="Helvetica-Light" font-size="48.4" fill="#000000" transform="matrix(1.00, 0.00, -0.00, -1.00, 1668.4, 323.0)">i</text><text xml:space="preserve" font-family="Helvetica-Light" font-size="48.4" fill="#000000" transform="matrix(1.00, 0.00, -0.00, -1.00, 1679.2, 323.0)">o</text><text xml:space="preserve" font-family="Helvetica-Light" font-size="48.4" fill="#000000" transform="matrix(1.00, 0.00, -0.00, -1.00, 1706.0, 323.0)">n</text><text xml:space="preserve" font-family="Helvetica-Light" font-size="48.4" fill="#000000" transform="matrix(1.00, 0.00, -0.00, -1.00, 1732.9, 323.0)"> </text><text xml:space="preserve" font-family="Helvetica-Light" font-size="48.4" fill="#000000" transform="matrix(1.00, 0.00, -0.00, -1.00, 1746.4, 323.0)">}</text><text xml:space="preserve" font-family="Helvetica-Light" font-size="48.4" fill="#000000" transform="matrix(1.00, 0.00, -0.00, -1.00, 1762.5, 323.0)">”</text><text xml:space="preserve" font-family="Helvetica-Light" font-size="36.3" fill="#000000" transform="matrix(1.00, 0.00, -0.00, -1.00, 137.0, 214.5)">•</text><text xml:space="preserve" font-family="Helvetica-Light" font-size="48.4" fill="#000000" transform="matrix(1.00, 0.00, -0.00, -1.00, 183.0, 210.0)">*</text><text xml:space="preserve" font-family="Helvetica-Light" font-size="48.4" fill="#000000" transform="matrix(1.00, 0.00, -0.00, -1.00, 201.8, 210.0)">n</text><text xml:space="preserve" font-family="Helvetica-Light" font-size="48.4" fill="#000000" transform="matrix(1.00, 0.00, -0.00, -1.00, 228.7, 210.0)">g</text><text xml:space="preserve" font-family="Helvetica-Light" font-size="48.4" fill="#000000" transform="matrix(1.00, 0.00, -0.00, -1.00, 258.2, 210.0)">I</text><text xml:space="preserve" font-family="Helvetica-Light" font-size="48.4" fill="#000000" transform="matrix(1.00, 0.00, -0.00, -1.00, 271.7, 210.0)">f</text><text xml:space="preserve" font-family="Helvetica-Light" font-size="48.4" fill="#000000" transform="matrix(1.00, 0.00, -0.00, -1.00, 285.1, 210.0)">=</text><text xml:space="preserve" font-family="Helvetica-Light" font-size="48.4" fill="#000000" transform="matrix(1.00, 0.00, -0.00, -1.00, 317.1, 210.0)">“</text><text xml:space="preserve" font-family="Helvetica-Light" font-size="48.4" fill="#000000" transform="matrix(1.00, 0.00, -0.00, -1.00, 335.9, 210.0)">”</text><text xml:space="preserve" font-family="Helvetica-Light" font-size="48.4" fill="#000000" transform="matrix(1.00, 0.00, -0.00, -1.00, 354.7, 210.0)">,</text><text xml:space="preserve" font-family="Helvetica-Light" font-size="48.4" fill="#000000" transform="matrix(1.00, 0.00, -0.00, -1.00, 368.1, 210.0)"> </text><text xml:space="preserve" font-family="Helvetica-Light" font-size="48.4" fill="#000000" transform="matrix(1.00, 0.00, -0.00, -1.00, 381.6, 210.0)">*</text><text xml:space="preserve" font-family="Helvetica-Light" font-size="48.4" fill="#000000" transform="matrix(1.00, 0.00, -0.00, -1.00, 400.4, 210.0)">n</text><text xml:space="preserve" font-family="Helvetica-Light" font-size="48.4" fill="#000000" transform="matrix(1.00, 0.00, -0.00, -1.00, 427.3, 210.0)">g</text><text xml:space="preserve" font-family="Helvetica-Light" font-size="48.4" fill="#000000" transform="matrix(1.00, 0.00, -0.00, -1.00, 456.8, 210.0)">F</text><text xml:space="preserve" font-family="Helvetica-Light" font-size="48.4" fill="#000000" transform="matrix(1.00, 0.00, -0.00, -1.00, 483.7, 210.0)">o</text><text xml:space="preserve" font-family="Helvetica-Light" font-size="48.4" fill="#000000" transform="matrix(1.00, 0.00, -0.00, -1.00, 510.6, 210.0)">r</text><text xml:space="preserve" font-family="Helvetica-Light" font-size="48.4" fill="#000000" transform="matrix(1.00, 0.00, -0.00, -1.00, 526.7, 210.0)">=</text><text xml:space="preserve" font-family="Helvetica-Light" font-size="48.4" fill="#000000" transform="matrix(1.00, 0.00, -0.00, -1.00, 558.6, 210.0)">“</text><text xml:space="preserve" font-family="Helvetica-Light" font-size="48.4" fill="#000000" transform="matrix(1.00, 0.00, -0.00, -1.00, 577.4, 210.0)">l</text><text xml:space="preserve" font-family="Helvetica-Light" font-size="48.4" fill="#000000" transform="matrix(1.00, 0.00, -0.00, -1.00, 588.2, 210.0)">e</text><text xml:space="preserve" font-family="Helvetica-Light" font-size="48.4" fill="#000000" transform="matrix(1.00, 0.00, -0.00, -1.00, 615.0, 210.0)">t</text><text xml:space="preserve" font-family="Helvetica-Light" font-size="48.4" fill="#000000" transform="matrix(1.00, 0.00, -0.00, -1.00, 628.5, 210.0)"> </text><text xml:space="preserve" font-family="Helvetica-Light" font-size="48.4" fill="#000000" transform="matrix(1.00, 0.00, -0.00, -1.00, 641.9, 210.0)">r</text><text xml:space="preserve" font-family="Helvetica-Light" font-size="48.4" fill="#000000" transform="matrix(1.00, 0.00, -0.00, -1.00, 657.2, 210.0)">e</text><text xml:space="preserve" font-family="Helvetica-Light" font-size="48.4" fill="#000000" transform="matrix(1.00, 0.00, -0.00, -1.00, 684.1, 210.0)">s</text><text xml:space="preserve" font-family="Helvetica-Light" font-size="48.4" fill="#000000" transform="matrix(1.00, 0.00, -0.00, -1.00, 708.2, 210.0)">u</text><text xml:space="preserve" font-family="Helvetica-Light" font-size="48.4" fill="#000000" transform="matrix(1.00, 0.00, -0.00, -1.00, 735.1, 210.0)">l</text><text xml:space="preserve" font-family="Helvetica-Light" font-size="48.4" fill="#000000" transform="matrix(1.00, 0.00, -0.00, -1.00, 745.9, 210.0)">t</text><text xml:space="preserve" font-family="Helvetica-Light" font-size="48.4" fill="#000000" transform="matrix(1.00, 0.00, -0.00, -1.00, 759.3, 210.0)"> </text><text xml:space="preserve" font-family="Helvetica-BoldOblique" font-style="italic" font-weight="bold" font-size="48.4" fill="#C82505" transform="matrix(1.00, 0.00, -0.00, -1.00, 772.8, 210.0)">o</text><text xml:space="preserve" font-family="Helvetica-BoldOblique" font-style="italic" font-weight="bold" font-size="48.4" fill="#C82505" transform="matrix(1.00, 0.00, -0.00, -1.00, 802.3, 210.0)">f</text><text xml:space="preserve" font-family="Helvetica-Light" font-size="48.4" fill="#000000" transform="matrix(1.00, 0.00, -0.00, -1.00, 818.4, 210.0)"> </text><text xml:space="preserve" font-family="Helvetica-Light" font-size="48.4" fill="#000000" transform="matrix(1.00, 0.00, -0.00, -1.00, 831.8, 210.0)">r</text><text xml:space="preserve" font-family="Helvetica-Light" font-size="48.4" fill="#000000" transform="matrix(1.00, 0.00, -0.00, -1.00, 847.1, 210.0)">e</text><text xml:space="preserve" font-family="Helvetica-Light" font-size="48.4" fill="#000000" transform="matrix(1.00, 0.00, -0.00, -1.00, 874.0, 210.0)">s</text><text xml:space="preserve" font-family="Helvetica-Light" font-size="48.4" fill="#000000" transform="matrix(1.00, 0.00, -0.00, -1.00, 898.1, 210.0)">u</text><text xml:space="preserve" font-family="Helvetica-Light" font-size="48.4" fill="#000000" transform="matrix(1.00, 0.00, -0.00, -1.00, 925.0, 210.0)">l</text><text xml:space="preserve" font-family="Helvetica-Light" font-size="48.4" fill="#000000" transform="matrix(1.00, 0.00, -0.00, -1.00, 935.8, 210.0)">t</text><text xml:space="preserve" font-family="Helvetica-Light" font-size="48.4" fill="#000000" transform="matrix(1.00, 0.00, -0.00, -1.00, 949.2, 210.0)">s</text><text xml:space="preserve" font-family="Helvetica-Light" font-size="48.4" fill="#000000" transform="matrix(1.00, 0.00, -0.00, -1.00, 973.4, 210.0)"> </text><text xml:space="preserve" font-family="Helvetica-Light" font-size="48.4" fill="#000000" transform="matrix(1.00, 0.00, -0.00, -1.00, 986.8, 210.0)">|</text><text xml:space="preserve" font-family="Helvetica-Light" font-size="48.4" fill="#000000" transform="matrix(1.00, 0.00, -0.00, -1.00, 997.6, 210.0)"> </text><text xml:space="preserve" font-family="Helvetica-Light" font-size="48.4" fill="#000000" transform="matrix(1.00, 0.00, -0.00, -1.00, 1011.0, 210.0)">a</text><text xml:space="preserve" font-family="Helvetica-Light" font-size="48.4" fill="#000000" transform="matrix(1.00, 0.00, -0.00, -1.00, 1037.9, 210.0)">s</text><text xml:space="preserve" font-family="Helvetica-Light" font-size="48.4" fill="#000000" transform="matrix(1.00, 0.00, -0.00, -1.00, 1062.1, 210.0)">y</text><text xml:space="preserve" font-family="Helvetica-Light" font-size="48.4" fill="#000000" transform="matrix(1.00, 0.00, -0.00, -1.00, 1086.3, 210.0)">n</text><text xml:space="preserve" font-family="Helvetica-Light" font-size="48.4" fill="#000000" transform="matrix(1.00, 0.00, -0.00, -1.00, 1113.1, 210.0)">c</text><text xml:space="preserve" font-family="Helvetica-Light" font-size="48.4" fill="#000000" transform="matrix(1.00, 0.00, -0.00, -1.00, 1140.0, 210.0)">”</text><g><clipPath id="clip-1"><path d="M 772.3 203.9 L 818.9 203.9 L 818.9 208.3 L 772.3 208.3 Z M 772.3 203.9 "></path></clipPath><g clip-path="url(#clip-1)"><path d="M 640.3 618.9 L 685.9 618.9 " fill="none" stroke="#C82505" stroke-width="2.38" stroke-miterlimit="0.00" transform="matrix(1.00, 0.00, 0.00, -1.00, 133.0, 825.0)"></path></g></g></g></svg>