<?xml version="1.0" encoding="UTF-8" standalone="no"?><svg xmlns="http://www.w3.org/2000/svg" xmlns:xlink="http://www.w3.org/1999/xlink" clip-rule="evenodd" stroke-miterlimit="4.00" viewBox="0 0 1632 98"><desc>SVG generated by Keynote</desc><defs></defs><g transform="matrix(1.00, 0.00, -0.00, -1.00, 0.0, 98.0)"><text xml:space="preserve" font-family="Helvetica-Light" font-size="99.7" fill="#000000" transform="matrix(1.00, 0.00, -0.00, -1.00, -7.0, 23.0)">D</text><text xml:space="preserve" font-family="Helvetica-Light" font-size="99.7" fill="#000000" transform="matrix(1.00, 0.00, -0.00, -1.00, 65.0, 23.0)">i</text><text xml:space="preserve" font-family="Helvetica-Light" font-size="99.7" fill="#000000" transform="matrix(1.00, 0.00, -0.00, -1.00, 87.1, 23.0)">f</text><text xml:space="preserve" font-family="Helvetica-Light" font-size="99.7" fill="#000000" transform="matrix(1.00, 0.00, -0.00, -1.00, 113.0, 23.0)">f</text><text xml:space="preserve" font-family="Helvetica-Light" font-size="99.7" fill="#000000" transform="matrix(1.00, 0.00, -0.00, -1.00, 140.7, 23.0)">e</text><text xml:space="preserve" font-family="Helvetica-Light" font-size="99.7" fill="#000000" transform="matrix(1.00, 0.00, -0.00, -1.00, 196.1, 23.0)">r</text><text xml:space="preserve" font-family="Helvetica-Light" font-size="99.7" fill="#000000" transform="matrix(1.00, 0.00, -0.00, -1.00, 227.5, 23.0)">e</text><text xml:space="preserve" font-family="Helvetica-Light" font-size="99.7" fill="#000000" transform="matrix(1.00, 0.00, -0.00, -1.00, 283.0, 23.0)">n</text><text xml:space="preserve" font-family="Helvetica-Light" font-size="99.7" fill="#000000" transform="matrix(1.00, 0.00, -0.00, -1.00, 338.4, 23.0)">c</text><text xml:space="preserve" font-family="Helvetica-Light" font-size="99.7" fill="#000000" transform="matrix(1.00, 0.00, -0.00, -1.00, 393.8, 23.0)">e</text><text xml:space="preserve" font-family="Helvetica-Light" font-size="99.7" fill="#000000" transform="matrix(1.00, 0.00, -0.00, -1.00, 449.2, 23.0)">s</text><text xml:space="preserve" font-family="Helvetica-Light" font-size="99.7" fill="#000000" transform="matrix(1.00, 0.00, -0.00, -1.00, 499.1, 23.0)"> </text><text xml:space="preserve" font-family="Helvetica-Light" font-size="99.7" fill="#000000" transform="matrix(1.00, 0.00, -0.00, -1.00, 526.8, 23.0)">i</text><text xml:space="preserve" font-family="Helvetica-Light" font-size="99.7" fill="#000000" transform="matrix(1.00, 0.00, -0.00, -1.00, 548.9, 23.0)">n</text><text xml:space="preserve" font-family="Helvetica-Light" font-size="99.7" fill="#000000" transform="matrix(1.00, 0.00, -0.00, -1.00, 604.3, 23.0)"> </text><text xml:space="preserve" font-family="Helvetica-Light" font-size="99.7" fill="#000000" transform="matrix(1.00, 0.00, -0.00, -1.00, 632.0, 23.0)">t</text><text xml:space="preserve" font-family="Helvetica-Light" font-size="99.7" fill="#000000" transform="matrix(1.00, 0.00, -0.00, -1.00, 659.8, 23.0)">h</text><text xml:space="preserve" font-family="Helvetica-Light" font-size="99.7" fill="#000000" transform="matrix(1.00, 0.00, -0.00, -1.00, 715.2, 23.0)">e</text><text xml:space="preserve" font-family="Helvetica-Light" font-size="99.7" fill="#000000" transform="matrix(1.00, 0.00, -0.00, -1.00, 770.6, 23.0)"> </text><text xml:space="preserve" font-family="Helvetica-Light" font-size="99.7" fill="#000000" transform="matrix(1.00, 0.00, -0.00, -1.00, 798.3, 23.0)">t</text><text xml:space="preserve" font-family="Helvetica-Light" font-size="99.7" fill="#000000" transform="matrix(1.00, 0.00, -0.00, -1.00, 826.0, 23.0)">e</text><text xml:space="preserve" font-family="Helvetica-Light" font-size="99.7" fill="#000000" transform="matrix(1.00, 0.00, -0.00, -1.00, 881.4, 23.0)">m</text><text xml:space="preserve" font-family="Helvetica-Light" font-size="99.7" fill="#000000" transform="matrix(1.00, 0.00, -0.00, -1.00, 964.5, 23.0)">p</text><text xml:space="preserve" font-family="Helvetica-Light" font-size="99.7" fill="#000000" transform="matrix(1.00, 0.00, -0.00, -1.00, 1025.4, 23.0)">l</text><text xml:space="preserve" font-family="Helvetica-Light" font-size="99.7" fill="#000000" transform="matrix(1.00, 0.00, -0.00, -1.00, 1047.5, 23.0)">a</text><text xml:space="preserve" font-family="Helvetica-Light" font-size="99.7" fill="#000000" transform="matrix(1.00, 0.00, -0.00, -1.00, 1102.9, 23.0)">t</text><text xml:space="preserve" font-family="Helvetica-Light" font-size="99.7" fill="#000000" transform="matrix(1.00, 0.00, -0.00, -1.00, 1130.6, 23.0)">e</text><text xml:space="preserve" font-family="Helvetica-Light" font-size="99.7" fill="#000000" transform="matrix(1.00, 0.00, -0.00, -1.00, 1186.1, 23.0)"> </text><text xml:space="preserve" font-family="Helvetica-Light" font-size="99.7" fill="#000000" transform="matrix(1.00, 0.00, -0.00, -1.00, 1213.8, 23.0)">l</text><text xml:space="preserve" font-family="Helvetica-Light" font-size="99.7" fill="#000000" transform="matrix(1.00, 0.00, -0.00, -1.00, 1235.9, 23.0)">a</text><text xml:space="preserve" font-family="Helvetica-Light" font-size="99.7" fill="#000000" transform="matrix(1.00, 0.00, -0.00, -1.00, 1291.3, 23.0)">n</text><text xml:space="preserve" font-family="Helvetica-Light" font-size="99.7" fill="#000000" transform="matrix(1.00, 0.00, -0.00, -1.00, 1346.8, 23.0)">g</text><text xml:space="preserve" font-family="Helvetica-Light" font-size="99.7" fill="#000000" transform="matrix(1.00, 0.00, -0.00, -1.00, 1407.7, 23.0)">u</text><text xml:space="preserve" font-family="Helvetica-Light" font-size="99.7" fill="#000000" transform="matrix(1.00, 0.00, -0.00, -1.00, 1463.1, 23.0)">a</text><text xml:space="preserve" font-family="Helvetica-Light" font-size="99.7" fill="#000000" transform="matrix(1.00, 0.00, -0.00, -1.00, 1518.5, 23.0)">g</text><text xml:space="preserve" font-family="Helvetica-Light" font-size="99.7" fill="#000000" transform="matrix(1.00, 0.00, -0.00, -1.00, 1579.4, 23.0)">e</text></g></svg>