<?xml version="1.0" encoding="UTF-8" standalone="no"?><svg xmlns="http://www.w3.org/2000/svg" xmlns:xlink="http://www.w3.org/1999/xlink" clip-rule="evenodd" stroke-miterlimit="4.00" viewBox="0 0 491 47"><desc>SVG generated by Keynote</desc><defs></defs><g transform="matrix(1.00, 0.00, -0.00, -1.00, 0.0, 47.0)"><text xml:space="preserve" font-family="Helvetica-Light" font-size="36.3" fill="#000000" transform="matrix(1.00, 0.00, -0.00, -1.00, 0.0, 15.0)">•</text><text xml:space="preserve" font-family="Helvetica-Light" font-size="48.4" fill="#000000" transform="matrix(1.00, 0.00, -0.00, -1.00, 46.0, 10.0)">[</text><text xml:space="preserve" font-family="Helvetica-Light" font-size="48.4" fill="#000000" transform="matrix(1.00, 0.00, -0.00, -1.00, 62.1, 10.0)">s</text><text xml:space="preserve" font-family="Helvetica-Light" font-size="48.4" fill="#000000" transform="matrix(1.00, 0.00, -0.00, -1.00, 86.3, 10.0)">r</text><text xml:space="preserve" font-family="Helvetica-Light" font-size="48.4" fill="#000000" transform="matrix(1.00, 0.00, -0.00, -1.00, 101.5, 10.0)">c</text><text xml:space="preserve" font-family="Helvetica-Light" font-size="48.4" fill="#000000" transform="matrix(1.00, 0.00, -0.00, -1.00, 128.4, 10.0)">]</text><text xml:space="preserve" font-family="Helvetica-Light" font-size="48.4" fill="#000000" transform="matrix(1.00, 0.00, -0.00, -1.00, 144.5, 10.0)">=</text><text xml:space="preserve" font-family="Helvetica-Light" font-size="48.4" fill="#000000" transform="matrix(1.00, 0.00, -0.00, -1.00, 176.4, 10.0)">“</text><text xml:space="preserve" font-family="Helvetica-Light" font-size="48.4" fill="#000000" transform="matrix(1.00, 0.00, -0.00, -1.00, 195.2, 10.0)">m</text><text xml:space="preserve" font-family="Helvetica-Light" font-size="48.4" fill="#000000" transform="matrix(1.00, 0.00, -0.00, -1.00, 235.5, 10.0)">o</text><text xml:space="preserve" font-family="Helvetica-Light" font-size="48.4" fill="#000000" transform="matrix(1.00, 0.00, -0.00, -1.00, 262.4, 10.0)">v</text><text xml:space="preserve" font-family="Helvetica-Light" font-size="48.4" fill="#000000" transform="matrix(1.00, 0.00, -0.00, -1.00, 286.6, 10.0)">i</text><text xml:space="preserve" font-family="Helvetica-Light" font-size="48.4" fill="#000000" transform="matrix(1.00, 0.00, -0.00, -1.00, 297.3, 10.0)">e</text><text xml:space="preserve" font-family="Helvetica-Light" font-size="48.4" fill="#000000" transform="matrix(1.00, 0.00, -0.00, -1.00, 324.2, 10.0)">.</text><text xml:space="preserve" font-family="Helvetica-Light" font-size="48.4" fill="#000000" transform="matrix(1.00, 0.00, -0.00, -1.00, 337.7, 10.0)">P</text><text xml:space="preserve" font-family="Helvetica-Light" font-size="48.4" fill="#000000" transform="matrix(1.00, 0.00, -0.00, -1.00, 367.2, 10.0)">o</text><text xml:space="preserve" font-family="Helvetica-Light" font-size="48.4" fill="#000000" transform="matrix(1.00, 0.00, -0.00, -1.00, 394.1, 10.0)">s</text><text xml:space="preserve" font-family="Helvetica-Light" font-size="48.4" fill="#000000" transform="matrix(1.00, 0.00, -0.00, -1.00, 418.3, 10.0)">t</text><text xml:space="preserve" font-family="Helvetica-Light" font-size="48.4" fill="#000000" transform="matrix(1.00, 0.00, -0.00, -1.00, 431.7, 10.0)">e</text><text xml:space="preserve" font-family="Helvetica-Light" font-size="48.4" fill="#000000" transform="matrix(1.00, 0.00, -0.00, -1.00, 458.6, 10.0)">r</text><text xml:space="preserve" font-family="Helvetica-Light" font-size="48.4" fill="#000000" transform="matrix(1.00, 0.00, -0.00, -1.00, 474.7, 10.0)">”</text></g></svg>