<?xml version="1.0" encoding="UTF-8" standalone="no"?><svg xmlns="http://www.w3.org/2000/svg" xmlns:xlink="http://www.w3.org/1999/xlink" clip-rule="evenodd" stroke-miterlimit="4.00" viewBox="0 0 604 162"><desc>SVG generated by Keynote</desc><defs></defs><g transform="matrix(1.00, 0.00, -0.00, -1.00, 0.0, 162.0)"><text xml:space="preserve" font-family="Helvetica-Light" font-size="36.3" fill="#000000" transform="matrix(1.00, 0.00, -0.00, -1.00, 0.0, 129.1)">•</text><text xml:space="preserve" font-family="Helvetica-Light" font-size="48.4" fill="#000000" transform="matrix(1.00, 0.00, -0.00, -1.00, 46.0, 124.0)">[</text><text xml:space="preserve" font-family="Helvetica-Light" font-size="48.4" fill="#000000" transform="matrix(1.00, 0.00, -0.00, -1.00, 62.1, 124.0)">(</text><text xml:space="preserve" font-family="Helvetica-Light" font-size="48.4" fill="#000000" transform="matrix(1.00, 0.00, -0.00, -1.00, 78.2, 124.0)">n</text><text xml:space="preserve" font-family="Helvetica-Light" font-size="48.4" fill="#000000" transform="matrix(1.00, 0.00, -0.00, -1.00, 105.1, 124.0)">g</text><text xml:space="preserve" font-family="Helvetica-Light" font-size="48.4" fill="#000000" transform="matrix(1.00, 0.00, -0.00, -1.00, 134.6, 124.0)">M</text><text xml:space="preserve" font-family="Helvetica-Light" font-size="48.4" fill="#000000" transform="matrix(1.00, 0.00, -0.00, -1.00, 174.9, 124.0)">o</text><text xml:space="preserve" font-family="Helvetica-Light" font-size="48.4" fill="#000000" transform="matrix(1.00, 0.00, -0.00, -1.00, 201.8, 124.0)">d</text><text xml:space="preserve" font-family="Helvetica-Light" font-size="48.4" fill="#000000" transform="matrix(1.00, 0.00, -0.00, -1.00, 231.4, 124.0)">e</text><text xml:space="preserve" font-family="Helvetica-Light" font-size="48.4" fill="#000000" transform="matrix(1.00, 0.00, -0.00, -1.00, 258.3, 124.0)">l</text><text xml:space="preserve" font-family="Helvetica-Light" font-size="48.4" fill="#000000" transform="matrix(1.00, 0.00, -0.00, -1.00, 269.0, 124.0)">)</text><text xml:space="preserve" font-family="Helvetica-Light" font-size="48.4" fill="#000000" transform="matrix(1.00, 0.00, -0.00, -1.00, 285.1, 124.0)">]</text><text xml:space="preserve" font-family="Helvetica-Light" font-size="48.4" fill="#000000" transform="matrix(1.00, 0.00, -0.00, -1.00, 301.2, 124.0)">=</text><text xml:space="preserve" font-family="Helvetica-Light" font-size="48.4" fill="#000000" transform="matrix(1.00, 0.00, -0.00, -1.00, 333.1, 124.0)">“</text><text xml:space="preserve" font-family="Helvetica-Light" font-size="48.4" fill="#000000" transform="matrix(1.00, 0.00, -0.00, -1.00, 351.9, 124.0)">m</text><text xml:space="preserve" font-family="Helvetica-Light" font-size="48.4" fill="#000000" transform="matrix(1.00, 0.00, -0.00, -1.00, 392.2, 124.0)">o</text><text xml:space="preserve" font-family="Helvetica-Light" font-size="48.4" fill="#000000" transform="matrix(1.00, 0.00, -0.00, -1.00, 419.1, 124.0)">v</text><text xml:space="preserve" font-family="Helvetica-Light" font-size="48.4" fill="#000000" transform="matrix(1.00, 0.00, -0.00, -1.00, 443.3, 124.0)">i</text><text xml:space="preserve" font-family="Helvetica-Light" font-size="48.4" fill="#000000" transform="matrix(1.00, 0.00, -0.00, -1.00, 454.0, 124.0)">e</text><text xml:space="preserve" font-family="Helvetica-Light" font-size="48.4" fill="#000000" transform="matrix(1.00, 0.00, -0.00, -1.00, 480.9, 124.0)">.</text><text xml:space="preserve" font-family="Helvetica-Light" font-size="48.4" fill="#000000" transform="matrix(1.00, 0.00, -0.00, -1.00, 494.3, 124.0)">T</text><text xml:space="preserve" font-family="Helvetica-Light" font-size="48.4" fill="#000000" transform="matrix(1.00, 0.00, -0.00, -1.00, 521.2, 124.0)">i</text><text xml:space="preserve" font-family="Helvetica-Light" font-size="48.4" fill="#000000" transform="matrix(1.00, 0.00, -0.00, -1.00, 532.0, 124.0)">t</text><text xml:space="preserve" font-family="Helvetica-Light" font-size="48.4" fill="#000000" transform="matrix(1.00, 0.00, -0.00, -1.00, 545.4, 124.0)">l</text><text xml:space="preserve" font-family="Helvetica-Light" font-size="48.4" fill="#000000" transform="matrix(1.00, 0.00, -0.00, -1.00, 556.1, 124.0)">e</text><text xml:space="preserve" font-family="Helvetica-Light" font-size="48.4" fill="#000000" transform="matrix(1.00, 0.00, -0.00, -1.00, 583.0, 124.0)">”</text><text xml:space="preserve" font-family="Helvetica-Light" font-size="48.4" fill="#000000" transform="matrix(1.00, 0.00, -0.00, -1.00, 601.8, 124.0)"> </text><text xml:space="preserve" font-family="Helvetica-Light" font-size="36.3" fill="#000000" transform="matrix(1.00, 0.00, -0.00, -1.00, 50.0, 16.2)">•</text><text xml:space="preserve" font-family="Helvetica-Light" font-size="48.4" fill="#000000" transform="matrix(1.00, 0.00, -0.00, -1.00, 96.0, 12.0)">T</text><text xml:space="preserve" font-family="Helvetica-Light" font-size="48.4" fill="#000000" transform="matrix(1.00, 0.00, -0.00, -1.00, 118.8, 12.0)">w</text><text xml:space="preserve" font-family="Helvetica-Light" font-size="48.4" fill="#000000" transform="matrix(1.00, 0.00, -0.00, -1.00, 153.7, 12.0)">o</text><text xml:space="preserve" font-family="Helvetica-Light" font-size="48.4" fill="#000000" transform="matrix(1.00, 0.00, -0.00, -1.00, 180.6, 12.0)">-</text><text xml:space="preserve" font-family="Helvetica-Light" font-size="48.4" fill="#000000" transform="matrix(1.00, 0.00, -0.00, -1.00, 196.7, 12.0)">w</text><text xml:space="preserve" font-family="Helvetica-Light" font-size="48.4" fill="#000000" transform="matrix(1.00, 0.00, -0.00, -1.00, 231.6, 12.0)">a</text><text xml:space="preserve" font-family="Helvetica-Light" font-size="48.4" fill="#000000" transform="matrix(1.00, 0.00, -0.00, -1.00, 258.5, 12.0)">y</text><text xml:space="preserve" font-family="Helvetica-Light" font-size="48.4" fill="#000000" transform="matrix(1.00, 0.00, -0.00, -1.00, 282.7, 12.0)"> </text><text xml:space="preserve" font-family="Helvetica-Light" font-size="48.4" fill="#000000" transform="matrix(1.00, 0.00, -0.00, -1.00, 296.2, 12.0)">b</text><text xml:space="preserve" font-family="Helvetica-Light" font-size="48.4" fill="#000000" transform="matrix(1.00, 0.00, -0.00, -1.00, 325.7, 12.0)">i</text><text xml:space="preserve" font-family="Helvetica-Light" font-size="48.4" fill="#000000" transform="matrix(1.00, 0.00, -0.00, -1.00, 336.4, 12.0)">n</text><text xml:space="preserve" font-family="Helvetica-Light" font-size="48.4" fill="#000000" transform="matrix(1.00, 0.00, -0.00, -1.00, 363.3, 12.0)">d</text></g></svg>