<?xml version="1.0" encoding="UTF-8" standalone="no"?><svg xmlns="http://www.w3.org/2000/svg" xmlns:xlink="http://www.w3.org/1999/xlink" clip-rule="evenodd" stroke-miterlimit="4.00" viewBox="0 0 336 42"><desc>SVG generated by Keynote</desc><defs></defs><g transform="matrix(1.00, 0.00, -0.00, -1.00, 0.0, 42.0)"><text xml:space="preserve" font-family="Helvetica-Light" font-size="35.5" fill="#000000" transform="matrix(1.00, 0.00, -0.00, -1.00, 0.0, 10.2)">•</text><text xml:space="preserve" font-family="Helvetica-Light" font-size="47.3" fill="#000000" transform="matrix(1.00, 0.00, -0.00, -1.00, 45.0, 6.0)">I</text><text xml:space="preserve" font-family="Helvetica-Light" font-size="47.3" fill="#000000" transform="matrix(1.00, 0.00, -0.00, -1.00, 58.2, 6.0)"> </text><text xml:space="preserve" font-family="Helvetica-Light" font-size="47.3" fill="#000000" transform="matrix(1.00, 0.00, -0.00, -1.00, 71.3, 6.0)">f</text><text xml:space="preserve" font-family="Helvetica-Light" font-size="47.3" fill="#000000" transform="matrix(1.00, 0.00, -0.00, -1.00, 84.5, 6.0)">e</text><text xml:space="preserve" font-family="Helvetica-Light" font-size="47.3" fill="#000000" transform="matrix(1.00, 0.00, -0.00, -1.00, 110.8, 6.0)">a</text><text xml:space="preserve" font-family="Helvetica-Light" font-size="47.3" fill="#000000" transform="matrix(1.00, 0.00, -0.00, -1.00, 137.1, 6.0)">r</text><text xml:space="preserve" font-family="Helvetica-Light" font-size="47.3" fill="#000000" transform="matrix(1.00, 0.00, -0.00, -1.00, 152.0, 6.0)">e</text><text xml:space="preserve" font-family="Helvetica-Light" font-size="47.3" fill="#000000" transform="matrix(1.00, 0.00, -0.00, -1.00, 178.3, 6.0)">d</text><text xml:space="preserve" font-family="Helvetica-Light" font-size="47.3" fill="#000000" transform="matrix(1.00, 0.00, -0.00, -1.00, 207.2, 6.0)"> </text><text xml:space="preserve" font-family="Helvetica-Light" font-size="47.3" fill="#000000" transform="matrix(1.00, 0.00, -0.00, -1.00, 220.4, 6.0)">t</text><text xml:space="preserve" font-family="Helvetica-Light" font-size="47.3" fill="#000000" transform="matrix(1.00, 0.00, -0.00, -1.00, 233.5, 6.0)">h</text><text xml:space="preserve" font-family="Helvetica-Light" font-size="47.3" fill="#000000" transform="matrix(1.00, 0.00, -0.00, -1.00, 259.8, 6.0)">e</text><text xml:space="preserve" font-family="Helvetica-Light" font-size="47.3" fill="#000000" transform="matrix(1.00, 0.00, -0.00, -1.00, 286.1, 6.0)">s</text><text xml:space="preserve" font-family="Helvetica-Light" font-size="47.3" fill="#000000" transform="matrix(1.00, 0.00, -0.00, -1.00, 309.8, 6.0)">e</text></g></svg>