<?xml version="1.0" encoding="UTF-8" standalone="no"?><svg xmlns="http://www.w3.org/2000/svg" xmlns:xlink="http://www.w3.org/1999/xlink" clip-rule="evenodd" stroke-miterlimit="4.00" viewBox="0 0 1055 48"><desc>SVG generated by Keynote</desc><defs></defs><g transform="matrix(1.00, 0.00, -0.00, -1.00, 0.0, 48.0)"><text xml:space="preserve" font-family="Helvetica-Light" font-size="35.5" fill="#000000" transform="matrix(1.00, 0.00, -0.00, -1.00, 0.0, 16.0)">•</text><text xml:space="preserve" font-family="Helvetica-Light" font-size="47.3" fill="#000000" transform="matrix(1.00, 0.00, -0.00, -1.00, 45.0, 12.0)">S</text><text xml:space="preserve" font-family="Helvetica-Light" font-size="47.3" fill="#000000" transform="matrix(1.00, 0.00, -0.00, -1.00, 73.9, 12.0)">p</text><text xml:space="preserve" font-family="Helvetica-Light" font-size="47.3" fill="#000000" transform="matrix(1.00, 0.00, -0.00, -1.00, 102.8, 12.0)">o</text><text xml:space="preserve" font-family="Helvetica-Light" font-size="47.3" fill="#000000" transform="matrix(1.00, 0.00, -0.00, -1.00, 129.1, 12.0)">t</text><text xml:space="preserve" font-family="Helvetica-Light" font-size="47.3" fill="#000000" transform="matrix(1.00, 0.00, -0.00, -1.00, 142.3, 12.0)"> </text><text xml:space="preserve" font-family="Helvetica-Light" font-size="47.3" fill="#000000" transform="matrix(1.00, 0.00, -0.00, -1.00, 155.4, 12.0)">t</text><text xml:space="preserve" font-family="Helvetica-Light" font-size="47.3" fill="#000000" transform="matrix(1.00, 0.00, -0.00, -1.00, 168.6, 12.0)">h</text><text xml:space="preserve" font-family="Helvetica-Light" font-size="47.3" fill="#000000" transform="matrix(1.00, 0.00, -0.00, -1.00, 194.9, 12.0)">e</text><text xml:space="preserve" font-family="Helvetica-Light" font-size="47.3" fill="#000000" transform="matrix(1.00, 0.00, -0.00, -1.00, 221.2, 12.0)">m</text><text xml:space="preserve" font-family="Helvetica-Light" font-size="47.3" fill="#000000" transform="matrix(1.00, 0.00, -0.00, -1.00, 260.6, 12.0)"> </text><text xml:space="preserve" font-family="Helvetica-Light" font-size="47.3" fill="#000000" transform="matrix(1.00, 0.00, -0.00, -1.00, 273.8, 12.0)">i</text><text xml:space="preserve" font-family="Helvetica-Light" font-size="47.3" fill="#000000" transform="matrix(1.00, 0.00, -0.00, -1.00, 284.3, 12.0)">n</text><text xml:space="preserve" font-family="Helvetica-Light" font-size="47.3" fill="#000000" transform="matrix(1.00, 0.00, -0.00, -1.00, 310.6, 12.0)"> </text><text xml:space="preserve" font-family="Helvetica-Light" font-size="47.3" fill="#000000" transform="matrix(1.00, 0.00, -0.00, -1.00, 323.8, 12.0)">t</text><text xml:space="preserve" font-family="Helvetica-Light" font-size="47.3" fill="#000000" transform="matrix(1.00, 0.00, -0.00, -1.00, 336.9, 12.0)">h</text><text xml:space="preserve" font-family="Helvetica-Light" font-size="47.3" fill="#000000" transform="matrix(1.00, 0.00, -0.00, -1.00, 363.2, 12.0)">e</text><text xml:space="preserve" font-family="Helvetica-Light" font-size="47.3" fill="#000000" transform="matrix(1.00, 0.00, -0.00, -1.00, 389.5, 12.0)"> </text><text xml:space="preserve" font-family="Helvetica-Light" font-size="47.3" fill="#000000" transform="matrix(1.00, 0.00, -0.00, -1.00, 402.7, 12.0)">c</text><text xml:space="preserve" font-family="Helvetica-Light" font-size="47.3" fill="#000000" transform="matrix(1.00, 0.00, -0.00, -1.00, 429.0, 12.0)">o</text><text xml:space="preserve" font-family="Helvetica-Light" font-size="47.3" fill="#000000" transform="matrix(1.00, 0.00, -0.00, -1.00, 455.3, 12.0)">m</text><text xml:space="preserve" font-family="Helvetica-Light" font-size="47.3" fill="#000000" transform="matrix(1.00, 0.00, -0.00, -1.00, 494.7, 12.0)">i</text><text xml:space="preserve" font-family="Helvetica-Light" font-size="47.3" fill="#000000" transform="matrix(1.00, 0.00, -0.00, -1.00, 505.2, 12.0)">n</text><text xml:space="preserve" font-family="Helvetica-Light" font-size="47.3" fill="#000000" transform="matrix(1.00, 0.00, -0.00, -1.00, 531.5, 12.0)">g</text><text xml:space="preserve" font-family="Helvetica-Light" font-size="47.3" fill="#000000" transform="matrix(1.00, 0.00, -0.00, -1.00, 560.5, 12.0)"> </text><text xml:space="preserve" font-family="Helvetica-Light" font-size="47.3" fill="#000000" transform="matrix(1.00, 0.00, -0.00, -1.00, 573.6, 12.0)">s</text><text xml:space="preserve" font-family="Helvetica-Light" font-size="47.3" fill="#000000" transform="matrix(1.00, 0.00, -0.00, -1.00, 597.3, 12.0)">l</text><text xml:space="preserve" font-family="Helvetica-Light" font-size="47.3" fill="#000000" transform="matrix(1.00, 0.00, -0.00, -1.00, 607.8, 12.0)">i</text><text xml:space="preserve" font-family="Helvetica-Light" font-size="47.3" fill="#000000" transform="matrix(1.00, 0.00, -0.00, -1.00, 618.3, 12.0)">d</text><text xml:space="preserve" font-family="Helvetica-Light" font-size="47.3" fill="#000000" transform="matrix(1.00, 0.00, -0.00, -1.00, 647.2, 12.0)">e</text><text xml:space="preserve" font-family="Helvetica-Light" font-size="47.3" fill="#000000" transform="matrix(1.00, 0.00, -0.00, -1.00, 673.5, 12.0)">s</text><text xml:space="preserve" font-family="Helvetica-Light" font-size="47.3" fill="#000000" transform="matrix(1.00, 0.00, -0.00, -1.00, 697.2, 12.0)"> </text><text xml:space="preserve" font-family="Helvetica-Light" font-size="47.3" fill="#000000" transform="matrix(1.00, 0.00, -0.00, -1.00, 710.3, 12.0)">a</text><text xml:space="preserve" font-family="Helvetica-Light" font-size="47.3" fill="#000000" transform="matrix(1.00, 0.00, -0.00, -1.00, 736.6, 12.0)">n</text><text xml:space="preserve" font-family="Helvetica-Light" font-size="47.3" fill="#000000" transform="matrix(1.00, 0.00, -0.00, -1.00, 762.9, 12.0)">d</text><text xml:space="preserve" font-family="Helvetica-Light" font-size="47.3" fill="#000000" transform="matrix(1.00, 0.00, -0.00, -1.00, 791.9, 12.0)"> </text><text xml:space="preserve" font-family="Helvetica-Light" font-size="47.3" fill="#000000" transform="matrix(1.00, 0.00, -0.00, -1.00, 805.0, 12.0)">i</text><text xml:space="preserve" font-family="Helvetica-Light" font-size="47.3" fill="#000000" transform="matrix(1.00, 0.00, -0.00, -1.00, 815.5, 12.0)">n</text><text xml:space="preserve" font-family="Helvetica-Light" font-size="47.3" fill="#000000" transform="matrix(1.00, 0.00, -0.00, -1.00, 841.8, 12.0)"> </text><text xml:space="preserve" font-family="Helvetica-Light" font-size="47.3" fill="#000000" transform="matrix(1.00, 0.00, -0.00, -1.00, 855.0, 12.0)">t</text><text xml:space="preserve" font-family="Helvetica-Light" font-size="47.3" fill="#000000" transform="matrix(1.00, 0.00, -0.00, -1.00, 868.1, 12.0)">h</text><text xml:space="preserve" font-family="Helvetica-Light" font-size="47.3" fill="#000000" transform="matrix(1.00, 0.00, -0.00, -1.00, 894.4, 12.0)">e</text><text xml:space="preserve" font-family="Helvetica-Light" font-size="47.3" fill="#000000" transform="matrix(1.00, 0.00, -0.00, -1.00, 920.8, 12.0)"> </text><text xml:space="preserve" font-family="Helvetica-Light" font-size="47.3" fill="#000000" transform="matrix(1.00, 0.00, -0.00, -1.00, 933.9, 12.0)">d</text><text xml:space="preserve" font-family="Helvetica-Light" font-size="47.3" fill="#000000" transform="matrix(1.00, 0.00, -0.00, -1.00, 962.8, 12.0)">e</text><text xml:space="preserve" font-family="Helvetica-Light" font-size="47.3" fill="#000000" transform="matrix(1.00, 0.00, -0.00, -1.00, 989.1, 12.0)">m</text><text xml:space="preserve" font-family="Helvetica-Light" font-size="47.3" fill="#000000" transform="matrix(1.00, 0.00, -0.00, -1.00, 1028.5, 12.0)">o</text></g></svg>