<?xml version="1.0" encoding="UTF-8" standalone="no"?><svg xmlns="http://www.w3.org/2000/svg" xmlns:xlink="http://www.w3.org/1999/xlink" clip-rule="evenodd" stroke-miterlimit="4.00" viewBox="0 0 1920 1080"><desc>SVG generated by Keynote</desc><defs></defs><g transform="matrix(1.00, 0.00, -0.00, -1.00, 0.0, 1080.0)"><path d="M 0.0 1080.0 L 1920.0 1080.0 L 1920.0 0.0 L 0.0 0.0 Z M 0.0 1080.0 " fill="#FEFFFF"></path><text xml:space="preserve" font-family="Helvetica-Light" font-size="112.0" fill="#000000" transform="matrix(1.00, 0.00, -0.00, -1.00, 683.0, 874.0)">D</text><text xml:space="preserve" font-family="Helvetica-Light" font-size="112.0" fill="#000000" transform="matrix(1.00, 0.00, -0.00, -1.00, 763.9, 874.0)">e</text><text xml:space="preserve" font-family="Helvetica-Light" font-size="112.0" fill="#000000" transform="matrix(1.00, 0.00, -0.00, -1.00, 826.1, 874.0)">c</text><text xml:space="preserve" font-family="Helvetica-Light" font-size="112.0" fill="#000000" transform="matrix(1.00, 0.00, -0.00, -1.00, 888.4, 874.0)">o</text><text xml:space="preserve" font-family="Helvetica-Light" font-size="112.0" fill="#000000" transform="matrix(1.00, 0.00, -0.00, -1.00, 950.7, 874.0)">r</text><text xml:space="preserve" font-family="Helvetica-Light" font-size="112.0" fill="#000000" transform="matrix(1.00, 0.00, -0.00, -1.00, 988.0, 874.0)">a</text><text xml:space="preserve" font-family="Helvetica-Light" font-size="112.0" fill="#000000" transform="matrix(1.00, 0.00, -0.00, -1.00, 1050.2, 874.0)">t</text><text xml:space="preserve" font-family="Helvetica-Light" font-size="112.0" fill="#000000" transform="matrix(1.00, 0.00, -0.00, -1.00, 1081.4, 874.0)">o</text><text xml:space="preserve" font-family="Helvetica-Light" font-size="112.0" fill="#000000" transform="matrix(1.00, 0.00, -0.00, -1.00, 1143.7, 874.0)">r</text><text xml:space="preserve" font-family="Helvetica-Light" font-size="112.0" fill="#000000" transform="matrix(1.00, 0.00, -0.00, -1.00, 1181.0, 874.0)">s</text><text xml:space="preserve" font-family="Helvetica-Light" font-size="35.5" fill="#000000" transform="matrix(1.00, 0.00, -0.00, -1.00, 137.0, 779.2)">•</text><text xml:space="preserve" font-family="Helvetica-Light" font-size="47.3" fill="#000000" transform="matrix(1.00, 0.00, -0.00, -1.00, 182.0, 775.0)">I</text><text xml:space="preserve" font-family="Helvetica-Light" font-size="47.3" fill="#000000" transform="matrix(1.00, 0.00, -0.00, -1.00, 195.2, 775.0)"> </text><text xml:space="preserve" font-family="Helvetica-Light" font-size="47.3" fill="#000000" transform="matrix(1.00, 0.00, -0.00, -1.00, 208.3, 775.0)">f</text><text xml:space="preserve" font-family="Helvetica-Light" font-size="47.3" fill="#000000" transform="matrix(1.00, 0.00, -0.00, -1.00, 221.5, 775.0)">e</text><text xml:space="preserve" font-family="Helvetica-Light" font-size="47.3" fill="#000000" transform="matrix(1.00, 0.00, -0.00, -1.00, 247.8, 775.0)">a</text><text xml:space="preserve" font-family="Helvetica-Light" font-size="47.3" fill="#000000" transform="matrix(1.00, 0.00, -0.00, -1.00, 274.1, 775.0)">r</text><text xml:space="preserve" font-family="Helvetica-Light" font-size="47.3" fill="#000000" transform="matrix(1.00, 0.00, -0.00, -1.00, 289.0, 775.0)">e</text><text xml:space="preserve" font-family="Helvetica-Light" font-size="47.3" fill="#000000" transform="matrix(1.00, 0.00, -0.00, -1.00, 315.3, 775.0)">d</text><text xml:space="preserve" font-family="Helvetica-Light" font-size="47.3" fill="#000000" transform="matrix(1.00, 0.00, -0.00, -1.00, 344.2, 775.0)"> </text><text xml:space="preserve" font-family="Helvetica-Light" font-size="47.3" fill="#000000" transform="matrix(1.00, 0.00, -0.00, -1.00, 357.4, 775.0)">t</text><text xml:space="preserve" font-family="Helvetica-Light" font-size="47.3" fill="#000000" transform="matrix(1.00, 0.00, -0.00, -1.00, 370.5, 775.0)">h</text><text xml:space="preserve" font-family="Helvetica-Light" font-size="47.3" fill="#000000" transform="matrix(1.00, 0.00, -0.00, -1.00, 396.8, 775.0)">e</text><text xml:space="preserve" font-family="Helvetica-Light" font-size="47.3" fill="#000000" transform="matrix(1.00, 0.00, -0.00, -1.00, 423.1, 775.0)">s</text><text xml:space="preserve" font-family="Helvetica-Light" font-size="47.3" fill="#000000" transform="matrix(1.00, 0.00, -0.00, -1.00, 446.8, 775.0)">e</text><text xml:space="preserve" font-family="Helvetica-Light" font-size="35.5" fill="#000000" transform="matrix(1.00, 0.00, -0.00, -1.00, 137.0, 669.5)">•</text><text xml:space="preserve" font-family="Helvetica-Light" font-size="47.3" fill="#000000" transform="matrix(1.00, 0.00, -0.00, -1.00, 182.0, 665.0)">T</text><text xml:space="preserve" font-family="Helvetica-Light" font-size="47.3" fill="#000000" transform="matrix(1.00, 0.00, -0.00, -1.00, 204.0, 665.0)">u</text><text xml:space="preserve" font-family="Helvetica-Light" font-size="47.3" fill="#000000" transform="matrix(1.00, 0.00, -0.00, -1.00, 230.3, 665.0)">r</text><text xml:space="preserve" font-family="Helvetica-Light" font-size="47.3" fill="#000000" transform="matrix(1.00, 0.00, -0.00, -1.00, 246.9, 665.0)">n</text><text xml:space="preserve" font-family="Helvetica-Light" font-size="47.3" fill="#000000" transform="matrix(1.00, 0.00, -0.00, -1.00, 273.2, 665.0)">s</text><text xml:space="preserve" font-family="Helvetica-Light" font-size="47.3" fill="#000000" transform="matrix(1.00, 0.00, -0.00, -1.00, 296.8, 665.0)"> </text><text xml:space="preserve" font-family="Helvetica-Light" font-size="47.3" fill="#000000" transform="matrix(1.00, 0.00, -0.00, -1.00, 310.0, 665.0)">o</text><text xml:space="preserve" font-family="Helvetica-Light" font-size="47.3" fill="#000000" transform="matrix(1.00, 0.00, -0.00, -1.00, 336.3, 665.0)">u</text><text xml:space="preserve" font-family="Helvetica-Light" font-size="47.3" fill="#000000" transform="matrix(1.00, 0.00, -0.00, -1.00, 362.6, 665.0)">t</text><text xml:space="preserve" font-family="Helvetica-Light" font-size="47.3" fill="#000000" transform="matrix(1.00, 0.00, -0.00, -1.00, 375.8, 665.0)"> </text><text xml:space="preserve" font-family="Helvetica-Light" font-size="47.3" fill="#000000" transform="matrix(1.00, 0.00, -0.00, -1.00, 388.9, 665.0)">t</text><text xml:space="preserve" font-family="Helvetica-Light" font-size="47.3" fill="#000000" transform="matrix(1.00, 0.00, -0.00, -1.00, 402.1, 665.0)">h</text><text xml:space="preserve" font-family="Helvetica-Light" font-size="47.3" fill="#000000" transform="matrix(1.00, 0.00, -0.00, -1.00, 428.4, 665.0)">a</text><text xml:space="preserve" font-family="Helvetica-Light" font-size="47.3" fill="#000000" transform="matrix(1.00, 0.00, -0.00, -1.00, 454.7, 665.0)">t</text><text xml:space="preserve" font-family="Helvetica-Light" font-size="47.3" fill="#000000" transform="matrix(1.00, 0.00, -0.00, -1.00, 467.9, 665.0)"> </text><text xml:space="preserve" font-family="Helvetica-Light" font-size="47.3" fill="#000000" transform="matrix(1.00, 0.00, -0.00, -1.00, 481.0, 665.0)">t</text><text xml:space="preserve" font-family="Helvetica-Light" font-size="47.3" fill="#000000" transform="matrix(1.00, 0.00, -0.00, -1.00, 494.2, 665.0)">h</text><text xml:space="preserve" font-family="Helvetica-Light" font-size="47.3" fill="#000000" transform="matrix(1.00, 0.00, -0.00, -1.00, 520.5, 665.0)">e</text><text xml:space="preserve" font-family="Helvetica-Light" font-size="47.3" fill="#000000" transform="matrix(1.00, 0.00, -0.00, -1.00, 546.8, 665.0)">y</text><text xml:space="preserve" font-family="Helvetica-Light" font-size="47.3" fill="#000000" transform="matrix(1.00, 0.00, -0.00, -1.00, 570.4, 665.0)"> </text><text xml:space="preserve" font-family="Helvetica-Light" font-size="47.3" fill="#000000" transform="matrix(1.00, 0.00, -0.00, -1.00, 583.6, 665.0)">w</text><text xml:space="preserve" font-family="Helvetica-Light" font-size="47.3" fill="#000000" transform="matrix(1.00, 0.00, -0.00, -1.00, 617.8, 665.0)">o</text><text xml:space="preserve" font-family="Helvetica-Light" font-size="47.3" fill="#000000" transform="matrix(1.00, 0.00, -0.00, -1.00, 644.1, 665.0)">r</text><text xml:space="preserve" font-family="Helvetica-Light" font-size="47.3" fill="#000000" transform="matrix(1.00, 0.00, -0.00, -1.00, 659.8, 665.0)">k</text><text xml:space="preserve" font-family="Helvetica-Light" font-size="47.3" fill="#000000" transform="matrix(1.00, 0.00, -0.00, -1.00, 683.5, 665.0)"> </text><text xml:space="preserve" font-family="Helvetica-Light" font-size="47.3" fill="#000000" transform="matrix(1.00, 0.00, -0.00, -1.00, 696.7, 665.0)">q</text><text xml:space="preserve" font-family="Helvetica-Light" font-size="47.3" fill="#000000" transform="matrix(1.00, 0.00, -0.00, -1.00, 725.6, 665.0)">u</text><text xml:space="preserve" font-family="Helvetica-Light" font-size="47.3" fill="#000000" transform="matrix(1.00, 0.00, -0.00, -1.00, 751.9, 665.0)">i</text><text xml:space="preserve" font-family="Helvetica-Light" font-size="47.3" fill="#000000" transform="matrix(1.00, 0.00, -0.00, -1.00, 762.4, 665.0)">t</text><text xml:space="preserve" font-family="Helvetica-Light" font-size="47.3" fill="#000000" transform="matrix(1.00, 0.00, -0.00, -1.00, 775.5, 665.0)">e</text><text xml:space="preserve" font-family="Helvetica-Light" font-size="47.3" fill="#000000" transform="matrix(1.00, 0.00, -0.00, -1.00, 801.8, 665.0)"> </text><text xml:space="preserve" font-family="Helvetica-Light" font-size="47.3" fill="#000000" transform="matrix(1.00, 0.00, -0.00, -1.00, 815.0, 665.0)">w</text><text xml:space="preserve" font-family="Helvetica-Light" font-size="47.3" fill="#000000" transform="matrix(1.00, 0.00, -0.00, -1.00, 849.2, 665.0)">e</text><text xml:space="preserve" font-family="Helvetica-Light" font-size="47.3" fill="#000000" transform="matrix(1.00, 0.00, -0.00, -1.00, 875.5, 665.0)">l</text><text xml:space="preserve" font-family="Helvetica-Light" font-size="47.3" fill="#000000" transform="matrix(1.00, 0.00, -0.00, -1.00, 886.0, 665.0)">l</text><text xml:space="preserve" font-family="Helvetica-Light" font-size="35.5" fill="#000000" transform="matrix(1.00, 0.00, -0.00, -1.00, 137.0, 559.8)">•</text><text xml:space="preserve" font-family="Helvetica-Light" font-size="47.3" fill="#000000" transform="matrix(1.00, 0.00, -0.00, -1.00, 182.0, 556.0)">P</text><text xml:space="preserve" font-family="Helvetica-Light" font-size="47.3" fill="#000000" transform="matrix(1.00, 0.00, -0.00, -1.00, 210.9, 556.0)">r</text><text xml:space="preserve" font-family="Helvetica-Light" font-size="47.3" fill="#000000" transform="matrix(1.00, 0.00, -0.00, -1.00, 225.8, 556.0)">e</text><text xml:space="preserve" font-family="Helvetica-Light" font-size="47.3" fill="#000000" transform="matrix(1.00, 0.00, -0.00, -1.00, 252.1, 556.0)">ﬁ</text><text xml:space="preserve" font-family="Helvetica-Light" font-size="47.3" fill="#000000" transform="matrix(1.00, 0.00, -0.00, -1.00, 275.8, 556.0)">x</text><text xml:space="preserve" font-family="Helvetica-Light" font-size="47.3" fill="#000000" transform="matrix(1.00, 0.00, -0.00, -1.00, 299.4, 556.0)">e</text><text xml:space="preserve" font-family="Helvetica-Light" font-size="47.3" fill="#000000" transform="matrix(1.00, 0.00, -0.00, -1.00, 325.8, 556.0)">d</text><text xml:space="preserve" font-family="Helvetica-Light" font-size="47.3" fill="#000000" transform="matrix(1.00, 0.00, -0.00, -1.00, 354.7, 556.0)"> </text><text xml:space="preserve" font-family="Helvetica-Light" font-size="47.3" fill="#000000" transform="matrix(1.00, 0.00, -0.00, -1.00, 367.8, 556.0)">w</text><text xml:space="preserve" font-family="Helvetica-Light" font-size="47.3" fill="#000000" transform="matrix(1.00, 0.00, -0.00, -1.00, 402.0, 556.0)">i</text><text xml:space="preserve" font-family="Helvetica-Light" font-size="47.3" fill="#000000" transform="matrix(1.00, 0.00, -0.00, -1.00, 412.5, 556.0)">t</text><text xml:space="preserve" font-family="Helvetica-Light" font-size="47.3" fill="#000000" transform="matrix(1.00, 0.00, -0.00, -1.00, 425.7, 556.0)">h</text><text xml:space="preserve" font-family="Helvetica-Light" font-size="47.3" fill="#000000" transform="matrix(1.00, 0.00, -0.00, -1.00, 452.0, 556.0)"> </text><text xml:space="preserve" font-family="Helvetica-Light" font-size="47.3" fill="#000000" transform="matrix(1.00, 0.00, -0.00, -1.00, 465.1, 556.0)">a</text><text xml:space="preserve" font-family="Helvetica-Light" font-size="47.3" fill="#000000" transform="matrix(1.00, 0.00, -0.00, -1.00, 491.4, 556.0)">n</text><text xml:space="preserve" font-family="Helvetica-Light" font-size="47.3" fill="#000000" transform="matrix(1.00, 0.00, -0.00, -1.00, 517.7, 556.0)"> </text><text xml:space="preserve" font-family="Helvetica-Light" font-size="47.3" fill="#000000" transform="matrix(1.00, 0.00, -0.00, -1.00, 530.9, 556.0)">@</text><text xml:space="preserve" font-family="Helvetica-Light" font-size="47.3" fill="#000000" transform="matrix(1.00, 0.00, -0.00, -1.00, 568.7, 556.0)"> </text><text xml:space="preserve" font-family="Helvetica-Light" font-size="35.5" fill="#000000" transform="matrix(1.00, 0.00, -0.00, -1.00, 187.0, 450.1)">•</text><text xml:space="preserve" font-family="Helvetica-Light" font-size="47.3" fill="#000000" transform="matrix(1.00, 0.00, -0.00, -1.00, 232.0, 446.0)">@</text><text xml:space="preserve" font-family="Helvetica-Light" font-size="47.3" fill="#000000" transform="matrix(1.00, 0.00, -0.00, -1.00, 269.9, 446.0)">I</text><text xml:space="preserve" font-family="Helvetica-Light" font-size="47.3" fill="#000000" transform="matrix(1.00, 0.00, -0.00, -1.00, 283.0, 446.0)">n</text><text xml:space="preserve" font-family="Helvetica-Light" font-size="47.3" fill="#000000" transform="matrix(1.00, 0.00, -0.00, -1.00, 309.3, 446.0)">j</text><text xml:space="preserve" font-family="Helvetica-Light" font-size="47.3" fill="#000000" transform="matrix(1.00, 0.00, -0.00, -1.00, 319.8, 446.0)">e</text><text xml:space="preserve" font-family="Helvetica-Light" font-size="47.3" fill="#000000" transform="matrix(1.00, 0.00, -0.00, -1.00, 346.1, 446.0)">c</text><text xml:space="preserve" font-family="Helvetica-Light" font-size="47.3" fill="#000000" transform="matrix(1.00, 0.00, -0.00, -1.00, 372.4, 446.0)">t</text><text xml:space="preserve" font-family="Helvetica-Light" font-size="47.3" fill="#000000" transform="matrix(1.00, 0.00, -0.00, -1.00, 385.6, 446.0)">a</text><text xml:space="preserve" font-family="Helvetica-Light" font-size="47.3" fill="#000000" transform="matrix(1.00, 0.00, -0.00, -1.00, 411.9, 446.0)">b</text><text xml:space="preserve" font-family="Helvetica-Light" font-size="47.3" fill="#000000" transform="matrix(1.00, 0.00, -0.00, -1.00, 440.8, 446.0)">l</text><text xml:space="preserve" font-family="Helvetica-Light" font-size="47.3" fill="#000000" transform="matrix(1.00, 0.00, -0.00, -1.00, 451.3, 446.0)">e</text><text xml:space="preserve" font-family="Helvetica-Light" font-size="47.3" fill="#000000" transform="matrix(1.00, 0.00, -0.00, -1.00, 477.6, 446.0)">(</text><text xml:space="preserve" font-family="Helvetica-Light" font-size="47.3" fill="#000000" transform="matrix(1.00, 0.00, -0.00, -1.00, 493.4, 446.0)">)</text><text xml:space="preserve" font-family="Helvetica-Light" font-size="47.3" fill="#000000" transform="matrix(1.00, 0.00, -0.00, -1.00, 509.2, 446.0)"> </text><text xml:space="preserve" font-family="Helvetica-Light" font-size="47.3" fill="#000000" transform="matrix(1.00, 0.00, -0.00, -1.00, 522.3, 446.0)">-</text><text xml:space="preserve" font-family="Helvetica-Light" font-size="47.3" fill="#000000" transform="matrix(1.00, 0.00, -0.00, -1.00, 538.1, 446.0)">&gt;</text><text xml:space="preserve" font-family="Helvetica-Light" font-size="47.3" fill="#000000" transform="matrix(1.00, 0.00, -0.00, -1.00, 569.3, 446.0)"> </text><text xml:space="preserve" font-family="Helvetica-Light" font-size="47.3" fill="#000000" transform="matrix(1.00, 0.00, -0.00, -1.00, 582.5, 446.0)">S</text><text xml:space="preserve" font-family="Helvetica-Light" font-size="47.3" fill="#000000" transform="matrix(1.00, 0.00, -0.00, -1.00, 611.4, 446.0)">e</text><text xml:space="preserve" font-family="Helvetica-Light" font-size="47.3" fill="#000000" transform="matrix(1.00, 0.00, -0.00, -1.00, 637.7, 446.0)">r</text><text xml:space="preserve" font-family="Helvetica-Light" font-size="47.3" fill="#000000" transform="matrix(1.00, 0.00, -0.00, -1.00, 653.4, 446.0)">v</text><text xml:space="preserve" font-family="Helvetica-Light" font-size="47.3" fill="#000000" transform="matrix(1.00, 0.00, -0.00, -1.00, 677.1, 446.0)">i</text><text xml:space="preserve" font-family="Helvetica-Light" font-size="47.3" fill="#000000" transform="matrix(1.00, 0.00, -0.00, -1.00, 687.6, 446.0)">c</text><text xml:space="preserve" font-family="Helvetica-Light" font-size="47.3" fill="#000000" transform="matrix(1.00, 0.00, -0.00, -1.00, 713.9, 446.0)">e</text><text xml:space="preserve" font-family="Helvetica-Light" font-size="47.3" fill="#000000" transform="matrix(1.00, 0.00, -0.00, -1.00, 740.2, 446.0)"> </text><text xml:space="preserve" font-family="Helvetica-Light" font-size="35.5" fill="#000000" transform="matrix(1.00, 0.00, -0.00, -1.00, 187.0, 340.4)">•</text><text xml:space="preserve" font-family="Helvetica-Light" font-size="47.3" fill="#000000" transform="matrix(1.00, 0.00, -0.00, -1.00, 232.0, 336.0)">@</text><text xml:space="preserve" font-family="Helvetica-Light" font-size="47.3" fill="#000000" transform="matrix(1.00, 0.00, -0.00, -1.00, 269.9, 336.0)">C</text><text xml:space="preserve" font-family="Helvetica-Light" font-size="47.3" fill="#000000" transform="matrix(1.00, 0.00, -0.00, -1.00, 304.0, 336.0)">o</text><text xml:space="preserve" font-family="Helvetica-Light" font-size="47.3" fill="#000000" transform="matrix(1.00, 0.00, -0.00, -1.00, 330.3, 336.0)">m</text><text xml:space="preserve" font-family="Helvetica-Light" font-size="47.3" fill="#000000" transform="matrix(1.00, 0.00, -0.00, -1.00, 369.7, 336.0)">p</text><text xml:space="preserve" font-family="Helvetica-Light" font-size="47.3" fill="#000000" transform="matrix(1.00, 0.00, -0.00, -1.00, 398.7, 336.0)">o</text><text xml:space="preserve" font-family="Helvetica-Light" font-size="47.3" fill="#000000" transform="matrix(1.00, 0.00, -0.00, -1.00, 425.0, 336.0)">n</text><text xml:space="preserve" font-family="Helvetica-Light" font-size="47.3" fill="#000000" transform="matrix(1.00, 0.00, -0.00, -1.00, 451.3, 336.0)">e</text><text xml:space="preserve" font-family="Helvetica-Light" font-size="47.3" fill="#000000" transform="matrix(1.00, 0.00, -0.00, -1.00, 477.6, 336.0)">n</text><text xml:space="preserve" font-family="Helvetica-Light" font-size="47.3" fill="#000000" transform="matrix(1.00, 0.00, -0.00, -1.00, 503.9, 336.0)">t</text><text xml:space="preserve" font-family="Helvetica-Light" font-size="47.3" fill="#000000" transform="matrix(1.00, 0.00, -0.00, -1.00, 517.1, 336.0)">(</text><text xml:space="preserve" font-family="Helvetica-Light" font-size="47.3" fill="#000000" transform="matrix(1.00, 0.00, -0.00, -1.00, 532.8, 336.0)">)</text><text xml:space="preserve" font-family="Helvetica-Light" font-size="47.3" fill="#000000" transform="matrix(1.00, 0.00, -0.00, -1.00, 548.6, 336.0)"> </text><text xml:space="preserve" font-family="Helvetica-Light" font-size="47.3" fill="#000000" transform="matrix(1.00, 0.00, -0.00, -1.00, 561.7, 336.0)">-</text><text xml:space="preserve" font-family="Helvetica-Light" font-size="47.3" fill="#000000" transform="matrix(1.00, 0.00, -0.00, -1.00, 577.5, 336.0)">&gt;</text><text xml:space="preserve" font-family="Helvetica-Light" font-size="47.3" fill="#000000" transform="matrix(1.00, 0.00, -0.00, -1.00, 608.7, 336.0)"> </text><text xml:space="preserve" font-family="Helvetica-Light" font-size="47.3" fill="#000000" transform="matrix(1.00, 0.00, -0.00, -1.00, 621.9, 336.0)">C</text><text xml:space="preserve" font-family="Helvetica-Light" font-size="47.3" fill="#000000" transform="matrix(1.00, 0.00, -0.00, -1.00, 656.0, 336.0)">o</text><text xml:space="preserve" font-family="Helvetica-Light" font-size="47.3" fill="#000000" transform="matrix(1.00, 0.00, -0.00, -1.00, 682.3, 336.0)">m</text><text xml:space="preserve" font-family="Helvetica-Light" font-size="47.3" fill="#000000" transform="matrix(1.00, 0.00, -0.00, -1.00, 721.8, 336.0)">p</text><text xml:space="preserve" font-family="Helvetica-Light" font-size="47.3" fill="#000000" transform="matrix(1.00, 0.00, -0.00, -1.00, 750.7, 336.0)">o</text><text xml:space="preserve" font-family="Helvetica-Light" font-size="47.3" fill="#000000" transform="matrix(1.00, 0.00, -0.00, -1.00, 777.0, 336.0)">n</text><text xml:space="preserve" font-family="Helvetica-Light" font-size="47.3" fill="#000000" transform="matrix(1.00, 0.00, -0.00, -1.00, 803.3, 336.0)">e</text><text xml:space="preserve" font-family="Helvetica-Light" font-size="47.3" fill="#000000" transform="matrix(1.00, 0.00, -0.00, -1.00, 829.6, 336.0)">n</text><text xml:space="preserve" font-family="Helvetica-Light" font-size="47.3" fill="#000000" transform="matrix(1.00, 0.00, -0.00, -1.00, 855.9, 336.0)">t</text><text xml:space="preserve" font-family="Helvetica-Light" font-size="47.3" fill="#000000" transform="matrix(1.00, 0.00, -0.00, -1.00, 869.1, 336.0)"> </text><text xml:space="preserve" font-family="Helvetica-Light" font-size="35.5" fill="#000000" transform="matrix(1.00, 0.00, -0.00, -1.00, 187.0, 230.7)">•</text><text xml:space="preserve" font-family="Helvetica-Light" font-size="47.3" fill="#000000" transform="matrix(1.00, 0.00, -0.00, -1.00, 232.0, 226.0)">@</text><text xml:space="preserve" font-family="Helvetica-Light" font-size="47.3" fill="#000000" transform="matrix(1.00, 0.00, -0.00, -1.00, 269.9, 226.0)">n</text><text xml:space="preserve" font-family="Helvetica-Light" font-size="47.3" fill="#000000" transform="matrix(1.00, 0.00, -0.00, -1.00, 296.2, 226.0)">g</text><text xml:space="preserve" font-family="Helvetica-Light" font-size="47.3" fill="#000000" transform="matrix(1.00, 0.00, -0.00, -1.00, 325.1, 226.0)">M</text><text xml:space="preserve" font-family="Helvetica-Light" font-size="47.3" fill="#000000" transform="matrix(1.00, 0.00, -0.00, -1.00, 364.5, 226.0)">o</text><text xml:space="preserve" font-family="Helvetica-Light" font-size="47.3" fill="#000000" transform="matrix(1.00, 0.00, -0.00, -1.00, 390.8, 226.0)">d</text><text xml:space="preserve" font-family="Helvetica-Light" font-size="47.3" fill="#000000" transform="matrix(1.00, 0.00, -0.00, -1.00, 419.7, 226.0)">u</text><text xml:space="preserve" font-family="Helvetica-Light" font-size="47.3" fill="#000000" transform="matrix(1.00, 0.00, -0.00, -1.00, 446.0, 226.0)">l</text><text xml:space="preserve" font-family="Helvetica-Light" font-size="47.3" fill="#000000" transform="matrix(1.00, 0.00, -0.00, -1.00, 456.5, 226.0)">e</text><text xml:space="preserve" font-family="Helvetica-Light" font-size="47.3" fill="#000000" transform="matrix(1.00, 0.00, -0.00, -1.00, 482.8, 226.0)">(</text><text xml:space="preserve" font-family="Helvetica-Light" font-size="47.3" fill="#000000" transform="matrix(1.00, 0.00, -0.00, -1.00, 498.6, 226.0)">)</text><text xml:space="preserve" font-family="Helvetica-Light" font-size="47.3" fill="#000000" transform="matrix(1.00, 0.00, -0.00, -1.00, 514.4, 226.0)"> </text><text xml:space="preserve" font-family="Helvetica-Light" font-size="47.3" fill="#000000" transform="matrix(1.00, 0.00, -0.00, -1.00, 527.5, 226.0)">-</text><text xml:space="preserve" font-family="Helvetica-Light" font-size="47.3" fill="#000000" transform="matrix(1.00, 0.00, -0.00, -1.00, 543.3, 226.0)">&gt;</text><text xml:space="preserve" font-family="Helvetica-Light" font-size="47.3" fill="#000000" transform="matrix(1.00, 0.00, -0.00, -1.00, 574.5, 226.0)"> </text><text xml:space="preserve" font-family="Helvetica-Light" font-size="47.3" fill="#000000" transform="matrix(1.00, 0.00, -0.00, -1.00, 587.7, 226.0)">O</text><text xml:space="preserve" font-family="Helvetica-Light" font-size="47.3" fill="#000000" transform="matrix(1.00, 0.00, -0.00, -1.00, 624.5, 226.0)">n</text><text xml:space="preserve" font-family="Helvetica-Light" font-size="47.3" fill="#000000" transform="matrix(1.00, 0.00, -0.00, -1.00, 650.8, 226.0)">l</text><text xml:space="preserve" font-family="Helvetica-Light" font-size="47.3" fill="#000000" transform="matrix(1.00, 0.00, -0.00, -1.00, 661.3, 226.0)">y</text><text xml:space="preserve" font-family="Helvetica-Light" font-size="47.3" fill="#000000" transform="matrix(1.00, 0.00, -0.00, -1.00, 684.9, 226.0)"> </text><text xml:space="preserve" font-family="Helvetica-Light" font-size="47.3" fill="#000000" transform="matrix(1.00, 0.00, -0.00, -1.00, 698.1, 226.0)">u</text><text xml:space="preserve" font-family="Helvetica-Light" font-size="47.3" fill="#000000" transform="matrix(1.00, 0.00, -0.00, -1.00, 724.4, 226.0)">s</text><text xml:space="preserve" font-family="Helvetica-Light" font-size="47.3" fill="#000000" transform="matrix(1.00, 0.00, -0.00, -1.00, 748.1, 226.0)">e</text><text xml:space="preserve" font-family="Helvetica-Light" font-size="47.3" fill="#000000" transform="matrix(1.00, 0.00, -0.00, -1.00, 774.4, 226.0)">d</text><text xml:space="preserve" font-family="Helvetica-Light" font-size="47.3" fill="#000000" transform="matrix(1.00, 0.00, -0.00, -1.00, 803.3, 226.0)"> </text><text xml:space="preserve" font-family="Helvetica-Light" font-size="47.3" fill="#000000" transform="matrix(1.00, 0.00, -0.00, -1.00, 816.4, 226.0)">f</text><text xml:space="preserve" font-family="Helvetica-Light" font-size="47.3" fill="#000000" transform="matrix(1.00, 0.00, -0.00, -1.00, 829.6, 226.0)">o</text><text xml:space="preserve" font-family="Helvetica-Light" font-size="47.3" fill="#000000" transform="matrix(1.00, 0.00, -0.00, -1.00, 855.9, 226.0)">r</text><text xml:space="preserve" font-family="Helvetica-Light" font-size="47.3" fill="#000000" transform="matrix(1.00, 0.00, -0.00, -1.00, 871.7, 226.0)"> </text><text xml:space="preserve" font-family="Helvetica-Light" font-size="47.3" fill="#000000" transform="matrix(1.00, 0.00, -0.00, -1.00, 884.8, 226.0)">a</text><text xml:space="preserve" font-family="Helvetica-Light" font-size="47.3" fill="#000000" transform="matrix(1.00, 0.00, -0.00, -1.00, 911.1, 226.0)">p</text><text xml:space="preserve" font-family="Helvetica-Light" font-size="47.3" fill="#000000" transform="matrix(1.00, 0.00, -0.00, -1.00, 940.0, 226.0)">p</text><text xml:space="preserve" font-family="Helvetica-Light" font-size="47.3" fill="#000000" transform="matrix(1.00, 0.00, -0.00, -1.00, 969.0, 226.0)"> </text><text xml:space="preserve" font-family="Helvetica-Light" font-size="47.3" fill="#000000" transform="matrix(1.00, 0.00, -0.00, -1.00, 982.1, 226.0)">m</text><text xml:space="preserve" font-family="Helvetica-Light" font-size="47.3" fill="#000000" transform="matrix(1.00, 0.00, -0.00, -1.00, 1021.5, 226.0)">o</text><text xml:space="preserve" font-family="Helvetica-Light" font-size="47.3" fill="#000000" transform="matrix(1.00, 0.00, -0.00, -1.00, 1047.8, 226.0)">d</text><text xml:space="preserve" font-family="Helvetica-Light" font-size="47.3" fill="#000000" transform="matrix(1.00, 0.00, -0.00, -1.00, 1076.8, 226.0)">u</text><text xml:space="preserve" font-family="Helvetica-Light" font-size="47.3" fill="#000000" transform="matrix(1.00, 0.00, -0.00, -1.00, 1103.1, 226.0)">l</text><text xml:space="preserve" font-family="Helvetica-Light" font-size="47.3" fill="#000000" transform="matrix(1.00, 0.00, -0.00, -1.00, 1113.6, 226.0)">e</text><text xml:space="preserve" font-family="Helvetica-Light" font-size="47.3" fill="#000000" transform="matrix(1.00, 0.00, -0.00, -1.00, 1139.9, 226.0)"> </text><text xml:space="preserve" font-family="Helvetica-Light" font-size="47.3" fill="#000000" transform="matrix(1.00, 0.00, -0.00, -1.00, 1153.0, 226.0)">i</text><text xml:space="preserve" font-family="Helvetica-Light" font-size="47.3" fill="#000000" transform="matrix(1.00, 0.00, -0.00, -1.00, 1163.5, 226.0)">n</text><text xml:space="preserve" font-family="Helvetica-Light" font-size="47.3" fill="#000000" transform="matrix(1.00, 0.00, -0.00, -1.00, 1189.9, 226.0)"> </text><text xml:space="preserve" font-family="Helvetica-Light" font-size="47.3" fill="#000000" transform="matrix(1.00, 0.00, -0.00, -1.00, 1203.0, 226.0)">d</text><text xml:space="preserve" font-family="Helvetica-Light" font-size="47.3" fill="#000000" transform="matrix(1.00, 0.00, -0.00, -1.00, 1231.9, 226.0)">e</text><text xml:space="preserve" font-family="Helvetica-Light" font-size="47.3" fill="#000000" transform="matrix(1.00, 0.00, -0.00, -1.00, 1258.2, 226.0)">m</text><text xml:space="preserve" font-family="Helvetica-Light" font-size="47.3" fill="#000000" transform="matrix(1.00, 0.00, -0.00, -1.00, 1297.6, 226.0)">o</text><text xml:space="preserve" font-family="Helvetica-Light" font-size="35.5" fill="#000000" transform="matrix(1.00, 0.00, -0.00, -1.00, 137.0, 121.0)">•</text><text xml:space="preserve" font-family="Helvetica-Light" font-size="47.3" fill="#000000" transform="matrix(1.00, 0.00, -0.00, -1.00, 182.0, 117.0)">S</text><text xml:space="preserve" font-family="Helvetica-Light" font-size="47.3" fill="#000000" transform="matrix(1.00, 0.00, -0.00, -1.00, 210.9, 117.0)">p</text><text xml:space="preserve" font-family="Helvetica-Light" font-size="47.3" fill="#000000" transform="matrix(1.00, 0.00, -0.00, -1.00, 239.8, 117.0)">o</text><text xml:space="preserve" font-family="Helvetica-Light" font-size="47.3" fill="#000000" transform="matrix(1.00, 0.00, -0.00, -1.00, 266.1, 117.0)">t</text><text xml:space="preserve" font-family="Helvetica-Light" font-size="47.3" fill="#000000" transform="matrix(1.00, 0.00, -0.00, -1.00, 279.3, 117.0)"> </text><text xml:space="preserve" font-family="Helvetica-Light" font-size="47.3" fill="#000000" transform="matrix(1.00, 0.00, -0.00, -1.00, 292.4, 117.0)">t</text><text xml:space="preserve" font-family="Helvetica-Light" font-size="47.3" fill="#000000" transform="matrix(1.00, 0.00, -0.00, -1.00, 305.6, 117.0)">h</text><text xml:space="preserve" font-family="Helvetica-Light" font-size="47.3" fill="#000000" transform="matrix(1.00, 0.00, -0.00, -1.00, 331.9, 117.0)">e</text><text xml:space="preserve" font-family="Helvetica-Light" font-size="47.3" fill="#000000" transform="matrix(1.00, 0.00, -0.00, -1.00, 358.2, 117.0)">m</text><text xml:space="preserve" font-family="Helvetica-Light" font-size="47.3" fill="#000000" transform="matrix(1.00, 0.00, -0.00, -1.00, 397.6, 117.0)"> </text><text xml:space="preserve" font-family="Helvetica-Light" font-size="47.3" fill="#000000" transform="matrix(1.00, 0.00, -0.00, -1.00, 410.8, 117.0)">i</text><text xml:space="preserve" font-family="Helvetica-Light" font-size="47.3" fill="#000000" transform="matrix(1.00, 0.00, -0.00, -1.00, 421.3, 117.0)">n</text><text xml:space="preserve" font-family="Helvetica-Light" font-size="47.3" fill="#000000" transform="matrix(1.00, 0.00, -0.00, -1.00, 447.6, 117.0)"> </text><text xml:space="preserve" font-family="Helvetica-Light" font-size="47.3" fill="#000000" transform="matrix(1.00, 0.00, -0.00, -1.00, 460.8, 117.0)">t</text><text xml:space="preserve" font-family="Helvetica-Light" font-size="47.3" fill="#000000" transform="matrix(1.00, 0.00, -0.00, -1.00, 473.9, 117.0)">h</text><text xml:space="preserve" font-family="Helvetica-Light" font-size="47.3" fill="#000000" transform="matrix(1.00, 0.00, -0.00, -1.00, 500.2, 117.0)">e</text><text xml:space="preserve" font-family="Helvetica-Light" font-size="47.3" fill="#000000" transform="matrix(1.00, 0.00, -0.00, -1.00, 526.5, 117.0)"> </text><text xml:space="preserve" font-family="Helvetica-Light" font-size="47.3" fill="#000000" transform="matrix(1.00, 0.00, -0.00, -1.00, 539.7, 117.0)">c</text><text xml:space="preserve" font-family="Helvetica-Light" font-size="47.3" fill="#000000" transform="matrix(1.00, 0.00, -0.00, -1.00, 566.0, 117.0)">o</text><text xml:space="preserve" font-family="Helvetica-Light" font-size="47.3" fill="#000000" transform="matrix(1.00, 0.00, -0.00, -1.00, 592.3, 117.0)">m</text><text xml:space="preserve" font-family="Helvetica-Light" font-size="47.3" fill="#000000" transform="matrix(1.00, 0.00, -0.00, -1.00, 631.7, 117.0)">i</text><text xml:space="preserve" font-family="Helvetica-Light" font-size="47.3" fill="#000000" transform="matrix(1.00, 0.00, -0.00, -1.00, 642.2, 117.0)">n</text><text xml:space="preserve" font-family="Helvetica-Light" font-size="47.3" fill="#000000" transform="matrix(1.00, 0.00, -0.00, -1.00, 668.5, 117.0)">g</text><text xml:space="preserve" font-family="Helvetica-Light" font-size="47.3" fill="#000000" transform="matrix(1.00, 0.00, -0.00, -1.00, 697.5, 117.0)"> </text><text xml:space="preserve" font-family="Helvetica-Light" font-size="47.3" fill="#000000" transform="matrix(1.00, 0.00, -0.00, -1.00, 710.6, 117.0)">s</text><text xml:space="preserve" font-family="Helvetica-Light" font-size="47.3" fill="#000000" transform="matrix(1.00, 0.00, -0.00, -1.00, 734.3, 117.0)">l</text><text xml:space="preserve" font-family="Helvetica-Light" font-size="47.3" fill="#000000" transform="matrix(1.00, 0.00, -0.00, -1.00, 744.8, 117.0)">i</text><text xml:space="preserve" font-family="Helvetica-Light" font-size="47.3" fill="#000000" transform="matrix(1.00, 0.00, -0.00, -1.00, 755.3, 117.0)">d</text><text xml:space="preserve" font-family="Helvetica-Light" font-size="47.3" fill="#000000" transform="matrix(1.00, 0.00, -0.00, -1.00, 784.2, 117.0)">e</text><text xml:space="preserve" font-family="Helvetica-Light" font-size="47.3" fill="#000000" transform="matrix(1.00, 0.00, -0.00, -1.00, 810.5, 117.0)">s</text><text xml:space="preserve" font-family="Helvetica-Light" font-size="47.3" fill="#000000" transform="matrix(1.00, 0.00, -0.00, -1.00, 834.2, 117.0)"> </text><text xml:space="preserve" font-family="Helvetica-Light" font-size="47.3" fill="#000000" transform="matrix(1.00, 0.00, -0.00, -1.00, 847.3, 117.0)">a</text><text xml:space="preserve" font-family="Helvetica-Light" font-size="47.3" fill="#000000" transform="matrix(1.00, 0.00, -0.00, -1.00, 873.6, 117.0)">n</text><text xml:space="preserve" font-family="Helvetica-Light" font-size="47.3" fill="#000000" transform="matrix(1.00, 0.00, -0.00, -1.00, 899.9, 117.0)">d</text><text xml:space="preserve" font-family="Helvetica-Light" font-size="47.3" fill="#000000" transform="matrix(1.00, 0.00, -0.00, -1.00, 928.9, 117.0)"> </text><text xml:space="preserve" font-family="Helvetica-Light" font-size="47.3" fill="#000000" transform="matrix(1.00, 0.00, -0.00, -1.00, 942.0, 117.0)">i</text><text xml:space="preserve" font-family="Helvetica-Light" font-size="47.3" fill="#000000" transform="matrix(1.00, 0.00, -0.00, -1.00, 952.5, 117.0)">n</text><text xml:space="preserve" font-family="Helvetica-Light" font-size="47.3" fill="#000000" transform="matrix(1.00, 0.00, -0.00, -1.00, 978.8, 117.0)"> </text><text xml:space="preserve" font-family="Helvetica-Light" font-size="47.3" fill="#000000" transform="matrix(1.00, 0.00, -0.00, -1.00, 992.0, 117.0)">t</text><text xml:space="preserve" font-family="Helvetica-Light" font-size="47.3" fill="#000000" transform="matrix(1.00, 0.00, -0.00, -1.00, 1005.1, 117.0)">h</text><text xml:space="preserve" font-family="Helvetica-Light" font-size="47.3" fill="#000000" transform="matrix(1.00, 0.00, -0.00, -1.00, 1031.4, 117.0)">e</text><text xml:space="preserve" font-family="Helvetica-Light" font-size="47.3" fill="#000000" transform="matrix(1.00, 0.00, -0.00, -1.00, 1057.8, 117.0)"> </text><text xml:space="preserve" font-family="Helvetica-Light" font-size="47.3" fill="#000000" transform="matrix(1.00, 0.00, -0.00, -1.00, 1070.9, 117.0)">d</text><text xml:space="preserve" font-family="Helvetica-Light" font-size="47.3" fill="#000000" transform="matrix(1.00, 0.00, -0.00, -1.00, 1099.8, 117.0)">e</text><text xml:space="preserve" font-family="Helvetica-Light" font-size="47.3" fill="#000000" transform="matrix(1.00, 0.00, -0.00, -1.00, 1126.1, 117.0)">m</text><text xml:space="preserve" font-family="Helvetica-Light" font-size="47.3" fill="#000000" transform="matrix(1.00, 0.00, -0.00, -1.00, 1165.5, 117.0)">o</text><image xlink:href="../../9D8FD148-CA2F-4590-AA32-426EAFDA0DFF/assets/E2B169D4A818EE94A7EE19DB6B61C3CB.png" width="782.00" height="312.00" transform="matrix(1.00, 0.00, -0.00, -1.00, 1083.6, 820.0)" opacity="0.50"></image><image xlink:href="../../9D8FD148-CA2F-4590-AA32-426EAFDA0DFF/assets/CACFC4BC3A4EE23DF09F7D188AA65519.png" width="772.00" height="302.00" transform="matrix(1.00, 0.00, -0.00, -1.00, 1089.0, 817.0)"></image><image xlink:href="../../9D8FD148-CA2F-4590-AA32-426EAFDA0DFF/assets/154899D84E8ED06216A34615DCA02082.png" width="3217.00" height="505.00" transform="matrix(0.24, 0.00, -0.00, -0.24, 1088.6, 515.0)"></image></g></svg>