<?xml version="1.0" encoding="UTF-8" standalone="no"?><svg xmlns="http://www.w3.org/2000/svg" xmlns:xlink="http://www.w3.org/1999/xlink" clip-rule="evenodd" stroke-miterlimit="4.00" viewBox="0 0 965 47"><desc>SVG generated by Keynote</desc><defs></defs><g transform="matrix(1.00, 0.00, -0.00, -1.00, 0.0, 47.0)"><text xml:space="preserve" font-family="Helvetica-Light" font-size="35.1" fill="#000000" transform="matrix(1.00, 0.00, -0.00, -1.00, 0.0, 15.7)">•</text><text xml:space="preserve" font-family="Helvetica-Light" font-size="46.8" fill="#000000" transform="matrix(1.00, 0.00, -0.00, -1.00, 45.0, 11.0)">H</text><text xml:space="preserve" font-family="Helvetica-Light" font-size="46.8" fill="#000000" transform="matrix(1.00, 0.00, -0.00, -1.00, 78.8, 11.0)">a</text><text xml:space="preserve" font-family="Helvetica-Light" font-size="46.8" fill="#000000" transform="matrix(1.00, 0.00, -0.00, -1.00, 104.8, 11.0)">v</text><text xml:space="preserve" font-family="Helvetica-Light" font-size="46.8" fill="#000000" transform="matrix(1.00, 0.00, -0.00, -1.00, 128.2, 11.0)">e</text><text xml:space="preserve" font-family="Helvetica-Light" font-size="46.8" fill="#000000" transform="matrix(1.00, 0.00, -0.00, -1.00, 154.2, 11.0)"> </text><text xml:space="preserve" font-family="Helvetica-Light" font-size="46.8" fill="#000000" transform="matrix(1.00, 0.00, -0.00, -1.00, 167.2, 11.0)">b</text><text xml:space="preserve" font-family="Helvetica-Light" font-size="46.8" fill="#000000" transform="matrix(1.00, 0.00, -0.00, -1.00, 195.8, 11.0)">e</text><text xml:space="preserve" font-family="Helvetica-Light" font-size="46.8" fill="#000000" transform="matrix(1.00, 0.00, -0.00, -1.00, 221.9, 11.0)">e</text><text xml:space="preserve" font-family="Helvetica-Light" font-size="46.8" fill="#000000" transform="matrix(1.00, 0.00, -0.00, -1.00, 247.9, 11.0)">n</text><text xml:space="preserve" font-family="Helvetica-Light" font-size="46.8" fill="#000000" transform="matrix(1.00, 0.00, -0.00, -1.00, 273.9, 11.0)"> </text><text xml:space="preserve" font-family="Helvetica-Light" font-size="46.8" fill="#000000" transform="matrix(1.00, 0.00, -0.00, -1.00, 286.9, 11.0)">w</text><text xml:space="preserve" font-family="Helvetica-Light" font-size="46.8" fill="#000000" transform="matrix(1.00, 0.00, -0.00, -1.00, 320.7, 11.0)">o</text><text xml:space="preserve" font-family="Helvetica-Light" font-size="46.8" fill="#000000" transform="matrix(1.00, 0.00, -0.00, -1.00, 346.7, 11.0)">r</text><text xml:space="preserve" font-family="Helvetica-Light" font-size="46.8" fill="#000000" transform="matrix(1.00, 0.00, -0.00, -1.00, 362.3, 11.0)">k</text><text xml:space="preserve" font-family="Helvetica-Light" font-size="46.8" fill="#000000" transform="matrix(1.00, 0.00, -0.00, -1.00, 385.7, 11.0)">i</text><text xml:space="preserve" font-family="Helvetica-Light" font-size="46.8" fill="#000000" transform="matrix(1.00, 0.00, -0.00, -1.00, 396.1, 11.0)">n</text><text xml:space="preserve" font-family="Helvetica-Light" font-size="46.8" fill="#000000" transform="matrix(1.00, 0.00, -0.00, -1.00, 422.1, 11.0)">g</text><text xml:space="preserve" font-family="Helvetica-Light" font-size="46.8" fill="#000000" transform="matrix(1.00, 0.00, -0.00, -1.00, 450.7, 11.0)"> </text><text xml:space="preserve" font-family="Helvetica-Light" font-size="46.8" fill="#000000" transform="matrix(1.00, 0.00, -0.00, -1.00, 463.7, 11.0)">w</text><text xml:space="preserve" font-family="Helvetica-Light" font-size="46.8" fill="#000000" transform="matrix(1.00, 0.00, -0.00, -1.00, 497.5, 11.0)">i</text><text xml:space="preserve" font-family="Helvetica-Light" font-size="46.8" fill="#000000" transform="matrix(1.00, 0.00, -0.00, -1.00, 507.9, 11.0)">t</text><text xml:space="preserve" font-family="Helvetica-Light" font-size="46.8" fill="#000000" transform="matrix(1.00, 0.00, -0.00, -1.00, 520.9, 11.0)">h</text><text xml:space="preserve" font-family="Helvetica-Light" font-size="46.8" fill="#000000" transform="matrix(1.00, 0.00, -0.00, -1.00, 546.9, 11.0)"> </text><text xml:space="preserve" font-family="Helvetica-Light" font-size="46.8" fill="#000000" transform="matrix(1.00, 0.00, -0.00, -1.00, 559.9, 11.0)">A</text><text xml:space="preserve" font-family="Helvetica-Light" font-size="46.8" fill="#000000" transform="matrix(1.00, 0.00, -0.00, -1.00, 591.2, 11.0)">n</text><text xml:space="preserve" font-family="Helvetica-Light" font-size="46.8" fill="#000000" transform="matrix(1.00, 0.00, -0.00, -1.00, 617.2, 11.0)">g</text><text xml:space="preserve" font-family="Helvetica-Light" font-size="46.8" fill="#000000" transform="matrix(1.00, 0.00, -0.00, -1.00, 645.8, 11.0)">u</text><text xml:space="preserve" font-family="Helvetica-Light" font-size="46.8" fill="#000000" transform="matrix(1.00, 0.00, -0.00, -1.00, 671.8, 11.0)">l</text><text xml:space="preserve" font-family="Helvetica-Light" font-size="46.8" fill="#000000" transform="matrix(1.00, 0.00, -0.00, -1.00, 682.2, 11.0)">a</text><text xml:space="preserve" font-family="Helvetica-Light" font-size="46.8" fill="#000000" transform="matrix(1.00, 0.00, -0.00, -1.00, 708.2, 11.0)">r</text><text xml:space="preserve" font-family="Helvetica-Light" font-size="46.8" fill="#000000" transform="matrix(1.00, 0.00, -0.00, -1.00, 723.8, 11.0)"> </text><text xml:space="preserve" font-family="Helvetica-Light" font-size="46.8" fill="#000000" transform="matrix(1.00, 0.00, -0.00, -1.00, 736.8, 11.0)">s</text><text xml:space="preserve" font-family="Helvetica-Light" font-size="46.8" fill="#000000" transform="matrix(1.00, 0.00, -0.00, -1.00, 760.2, 11.0)">i</text><text xml:space="preserve" font-family="Helvetica-Light" font-size="46.8" fill="#000000" transform="matrix(1.00, 0.00, -0.00, -1.00, 770.6, 11.0)">n</text><text xml:space="preserve" font-family="Helvetica-Light" font-size="46.8" fill="#000000" transform="matrix(1.00, 0.00, -0.00, -1.00, 796.6, 11.0)">c</text><text xml:space="preserve" font-family="Helvetica-Light" font-size="46.8" fill="#000000" transform="matrix(1.00, 0.00, -0.00, -1.00, 822.6, 11.0)">e</text><text xml:space="preserve" font-family="Helvetica-Light" font-size="46.8" fill="#000000" transform="matrix(1.00, 0.00, -0.00, -1.00, 848.6, 11.0)"> </text><text xml:space="preserve" font-family="Helvetica-Light" font-size="46.8" fill="#000000" transform="matrix(1.00, 0.00, -0.00, -1.00, 861.7, 11.0)">2</text><text xml:space="preserve" font-family="Helvetica-Light" font-size="46.8" fill="#000000" transform="matrix(1.00, 0.00, -0.00, -1.00, 887.7, 11.0)">0</text><text xml:space="preserve" font-family="Helvetica-Light" font-size="46.8" fill="#000000" transform="matrix(1.00, 0.00, -0.00, -1.00, 913.7, 11.0)">1</text><text xml:space="preserve" font-family="Helvetica-Light" font-size="46.8" fill="#000000" transform="matrix(1.00, 0.00, -0.00, -1.00, 939.7, 11.0)">3</text></g></svg>