<?xml version="1.0" encoding="UTF-8" standalone="no"?><svg xmlns="http://www.w3.org/2000/svg" xmlns:xlink="http://www.w3.org/1999/xlink" clip-rule="evenodd" stroke-miterlimit="4.00" viewBox="0 0 1262 46"><desc>SVG generated by Keynote</desc><defs></defs><g transform="matrix(1.00, 0.00, -0.00, -1.00, 0.0, 46.0)"><text xml:space="preserve" font-family="Helvetica-Light" font-size="35.1" fill="#000000" transform="matrix(1.00, 0.00, -0.00, -1.00, 0.0, 15.5)">•</text><text xml:space="preserve" font-family="Helvetica-Light" font-size="46.8" fill="#000000" transform="matrix(1.00, 0.00, -0.00, -1.00, 45.0, 11.0)">H</text><text xml:space="preserve" font-family="Helvetica-Light" font-size="46.8" fill="#000000" transform="matrix(1.00, 0.00, -0.00, -1.00, 78.8, 11.0)">a</text><text xml:space="preserve" font-family="Helvetica-Light" font-size="46.8" fill="#000000" transform="matrix(1.00, 0.00, -0.00, -1.00, 104.8, 11.0)">v</text><text xml:space="preserve" font-family="Helvetica-Light" font-size="46.8" fill="#000000" transform="matrix(1.00, 0.00, -0.00, -1.00, 128.2, 11.0)">e</text><text xml:space="preserve" font-family="Helvetica-Light" font-size="46.8" fill="#000000" transform="matrix(1.00, 0.00, -0.00, -1.00, 154.2, 11.0)">n</text><text xml:space="preserve" font-family="Helvetica-Light" font-size="46.8" fill="#000000" transform="matrix(1.00, 0.00, -0.00, -1.00, 180.3, 11.0)">’</text><text xml:space="preserve" font-family="Helvetica-Light" font-size="46.8" fill="#000000" transform="matrix(1.00, 0.00, -0.00, -1.00, 189.8, 11.0)">t</text><text xml:space="preserve" font-family="Helvetica-Light" font-size="46.8" fill="#000000" transform="matrix(1.00, 0.00, -0.00, -1.00, 202.8, 11.0)"> </text><text xml:space="preserve" font-family="Helvetica-Light" font-size="46.8" fill="#000000" transform="matrix(1.00, 0.00, -0.00, -1.00, 215.8, 11.0)">t</text><text xml:space="preserve" font-family="Helvetica-Light" font-size="46.8" fill="#000000" transform="matrix(1.00, 0.00, -0.00, -1.00, 228.8, 11.0)">r</text><text xml:space="preserve" font-family="Helvetica-Light" font-size="46.8" fill="#000000" transform="matrix(1.00, 0.00, -0.00, -1.00, 244.4, 11.0)">i</text><text xml:space="preserve" font-family="Helvetica-Light" font-size="46.8" fill="#000000" transform="matrix(1.00, 0.00, -0.00, -1.00, 254.8, 11.0)">e</text><text xml:space="preserve" font-family="Helvetica-Light" font-size="46.8" fill="#000000" transform="matrix(1.00, 0.00, -0.00, -1.00, 280.8, 11.0)">d</text><text xml:space="preserve" font-family="Helvetica-Light" font-size="46.8" fill="#000000" transform="matrix(1.00, 0.00, -0.00, -1.00, 309.4, 11.0)"> </text><text xml:space="preserve" font-family="Helvetica-Light" font-size="46.8" fill="#000000" transform="matrix(1.00, 0.00, -0.00, -1.00, 322.4, 11.0)">A</text><text xml:space="preserve" font-family="Helvetica-Light" font-size="46.8" fill="#000000" transform="matrix(1.00, 0.00, -0.00, -1.00, 353.6, 11.0)">n</text><text xml:space="preserve" font-family="Helvetica-Light" font-size="46.8" fill="#000000" transform="matrix(1.00, 0.00, -0.00, -1.00, 379.7, 11.0)">g</text><text xml:space="preserve" font-family="Helvetica-Light" font-size="46.8" fill="#000000" transform="matrix(1.00, 0.00, -0.00, -1.00, 408.3, 11.0)">u</text><text xml:space="preserve" font-family="Helvetica-Light" font-size="46.8" fill="#000000" transform="matrix(1.00, 0.00, -0.00, -1.00, 434.3, 11.0)">l</text><text xml:space="preserve" font-family="Helvetica-Light" font-size="46.8" fill="#000000" transform="matrix(1.00, 0.00, -0.00, -1.00, 444.7, 11.0)">a</text><text xml:space="preserve" font-family="Helvetica-Light" font-size="46.8" fill="#000000" transform="matrix(1.00, 0.00, -0.00, -1.00, 470.7, 11.0)">r</text><text xml:space="preserve" font-family="Helvetica-Light" font-size="46.8" fill="#000000" transform="matrix(1.00, 0.00, -0.00, -1.00, 486.3, 11.0)"> </text><text xml:space="preserve" font-family="Helvetica-Light" font-size="46.8" fill="#000000" transform="matrix(1.00, 0.00, -0.00, -1.00, 499.3, 11.0)">2</text><text xml:space="preserve" font-family="Helvetica-Light" font-size="46.8" fill="#000000" transform="matrix(1.00, 0.00, -0.00, -1.00, 525.3, 11.0)"> </text><text xml:space="preserve" font-family="Helvetica-Light" font-size="46.8" fill="#000000" transform="matrix(1.00, 0.00, -0.00, -1.00, 538.3, 11.0)">u</text><text xml:space="preserve" font-family="Helvetica-Light" font-size="46.8" fill="#000000" transform="matrix(1.00, 0.00, -0.00, -1.00, 564.3, 11.0)">n</text><text xml:space="preserve" font-family="Helvetica-Light" font-size="46.8" fill="#000000" transform="matrix(1.00, 0.00, -0.00, -1.00, 590.4, 11.0)">t</text><text xml:space="preserve" font-family="Helvetica-Light" font-size="46.8" fill="#000000" transform="matrix(1.00, 0.00, -0.00, -1.00, 603.4, 11.0)">i</text><text xml:space="preserve" font-family="Helvetica-Light" font-size="46.8" fill="#000000" transform="matrix(1.00, 0.00, -0.00, -1.00, 613.8, 11.0)">l</text><text xml:space="preserve" font-family="Helvetica-Light" font-size="46.8" fill="#000000" transform="matrix(1.00, 0.00, -0.00, -1.00, 624.1, 11.0)"> </text><text xml:space="preserve" font-family="Helvetica-Light" font-size="46.8" fill="#000000" transform="matrix(1.00, 0.00, -0.00, -1.00, 637.2, 11.0)">n</text><text xml:space="preserve" font-family="Helvetica-Light" font-size="46.8" fill="#000000" transform="matrix(1.00, 0.00, -0.00, -1.00, 663.2, 11.0)">o</text><text xml:space="preserve" font-family="Helvetica-Light" font-size="46.8" fill="#000000" transform="matrix(1.00, 0.00, -0.00, -1.00, 689.2, 11.0)">w</text><text xml:space="preserve" font-family="Helvetica-Light" font-size="46.8" fill="#000000" transform="matrix(1.00, 0.00, -0.00, -1.00, 720.4, 11.0)">,</text><text xml:space="preserve" font-family="Helvetica-Light" font-size="46.8" fill="#000000" transform="matrix(1.00, 0.00, -0.00, -1.00, 733.4, 11.0)"> </text><text xml:space="preserve" font-family="Helvetica-Light" font-size="46.8" fill="#000000" transform="matrix(1.00, 0.00, -0.00, -1.00, 746.4, 11.0)">i</text><text xml:space="preserve" font-family="Helvetica-Light" font-size="46.8" fill="#000000" transform="matrix(1.00, 0.00, -0.00, -1.00, 756.8, 11.0)">’</text><text xml:space="preserve" font-family="Helvetica-Light" font-size="46.8" fill="#000000" transform="matrix(1.00, 0.00, -0.00, -1.00, 767.2, 11.0)">l</text><text xml:space="preserve" font-family="Helvetica-Light" font-size="46.8" fill="#000000" transform="matrix(1.00, 0.00, -0.00, -1.00, 777.6, 11.0)">l</text><text xml:space="preserve" font-family="Helvetica-Light" font-size="46.8" fill="#000000" transform="matrix(1.00, 0.00, -0.00, -1.00, 788.0, 11.0)"> </text><text xml:space="preserve" font-family="Helvetica-Light" font-size="46.8" fill="#000000" transform="matrix(1.00, 0.00, -0.00, -1.00, 801.0, 11.0)">g</text><text xml:space="preserve" font-family="Helvetica-Light" font-size="46.8" fill="#000000" transform="matrix(1.00, 0.00, -0.00, -1.00, 829.6, 11.0)">e</text><text xml:space="preserve" font-family="Helvetica-Light" font-size="46.8" fill="#000000" transform="matrix(1.00, 0.00, -0.00, -1.00, 855.6, 11.0)">t</text><text xml:space="preserve" font-family="Helvetica-Light" font-size="46.8" fill="#000000" transform="matrix(1.00, 0.00, -0.00, -1.00, 868.6, 11.0)"> </text><text xml:space="preserve" font-family="Helvetica-Light" font-size="46.8" fill="#000000" transform="matrix(1.00, 0.00, -0.00, -1.00, 881.6, 11.0)">i</text><text xml:space="preserve" font-family="Helvetica-Light" font-size="46.8" fill="#000000" transform="matrix(1.00, 0.00, -0.00, -1.00, 892.0, 11.0)">n</text><text xml:space="preserve" font-family="Helvetica-Light" font-size="46.8" fill="#000000" transform="matrix(1.00, 0.00, -0.00, -1.00, 918.1, 11.0)">t</text><text xml:space="preserve" font-family="Helvetica-Light" font-size="46.8" fill="#000000" transform="matrix(1.00, 0.00, -0.00, -1.00, 931.1, 11.0)">o</text><text xml:space="preserve" font-family="Helvetica-Light" font-size="46.8" fill="#000000" transform="matrix(1.00, 0.00, -0.00, -1.00, 957.1, 11.0)"> </text><text xml:space="preserve" font-family="Helvetica-Light" font-size="46.8" fill="#000000" transform="matrix(1.00, 0.00, -0.00, -1.00, 970.1, 11.0)">w</text><text xml:space="preserve" font-family="Helvetica-Light" font-size="46.8" fill="#000000" transform="matrix(1.00, 0.00, -0.00, -1.00, 1003.9, 11.0)">h</text><text xml:space="preserve" font-family="Helvetica-Light" font-size="46.8" fill="#000000" transform="matrix(1.00, 0.00, -0.00, -1.00, 1029.9, 11.0)">y</text><text xml:space="preserve" font-family="Helvetica-Light" font-size="46.8" fill="#000000" transform="matrix(1.00, 0.00, -0.00, -1.00, 1053.3, 11.0)"> </text><text xml:space="preserve" font-family="Helvetica-Light" font-size="46.8" fill="#000000" transform="matrix(1.00, 0.00, -0.00, -1.00, 1066.3, 11.0)">a</text><text xml:space="preserve" font-family="Helvetica-Light" font-size="46.8" fill="#000000" transform="matrix(1.00, 0.00, -0.00, -1.00, 1092.3, 11.0)"> </text><text xml:space="preserve" font-family="Helvetica-Light" font-size="46.8" fill="#000000" transform="matrix(1.00, 0.00, -0.00, -1.00, 1105.3, 11.0)">b</text><text xml:space="preserve" font-family="Helvetica-Light" font-size="46.8" fill="#000000" transform="matrix(1.00, 0.00, -0.00, -1.00, 1133.9, 11.0)">i</text><text xml:space="preserve" font-family="Helvetica-Light" font-size="46.8" fill="#000000" transform="matrix(1.00, 0.00, -0.00, -1.00, 1144.3, 11.0)">t</text><text xml:space="preserve" font-family="Helvetica-Light" font-size="46.8" fill="#000000" transform="matrix(1.00, 0.00, -0.00, -1.00, 1157.3, 11.0)"> </text><text xml:space="preserve" font-family="Helvetica-Light" font-size="46.8" fill="#000000" transform="matrix(1.00, 0.00, -0.00, -1.00, 1170.4, 11.0)">l</text><text xml:space="preserve" font-family="Helvetica-Light" font-size="46.8" fill="#000000" transform="matrix(1.00, 0.00, -0.00, -1.00, 1180.7, 11.0)">a</text><text xml:space="preserve" font-family="Helvetica-Light" font-size="46.8" fill="#000000" transform="matrix(1.00, 0.00, -0.00, -1.00, 1206.8, 11.0)">t</text><text xml:space="preserve" font-family="Helvetica-Light" font-size="46.8" fill="#000000" transform="matrix(1.00, 0.00, -0.00, -1.00, 1219.8, 11.0)">e</text><text xml:space="preserve" font-family="Helvetica-Light" font-size="46.8" fill="#000000" transform="matrix(1.00, 0.00, -0.00, -1.00, 1245.8, 11.0)">r</text></g></svg>