<?xml version="1.0" encoding="UTF-8" standalone="no"?><svg xmlns="http://www.w3.org/2000/svg" xmlns:xlink="http://www.w3.org/1999/xlink" clip-rule="evenodd" stroke-miterlimit="4.00" viewBox="0 0 634 44"><desc>SVG generated by Keynote</desc><defs></defs><g transform="matrix(1.00, 0.00, -0.00, -1.00, 0.0, 44.0)"><text xml:space="preserve" font-family="Helvetica-Light" font-size="44.0" fill="#000000" transform="matrix(1.00, 0.00, -0.00, -1.00, -2.0, 11.0)">H</text><text xml:space="preserve" font-family="Helvetica-Light" font-size="44.0" fill="#000000" transform="matrix(1.00, 0.00, -0.00, -1.00, 29.8, 11.0)">o</text><text xml:space="preserve" font-family="Helvetica-Light" font-size="44.0" fill="#000000" transform="matrix(1.00, 0.00, -0.00, -1.00, 54.2, 11.0)">l</text><text xml:space="preserve" font-family="Helvetica-Light" font-size="44.0" fill="#000000" transform="matrix(1.00, 0.00, -0.00, -1.00, 64.0, 11.0)">y</text><text xml:space="preserve" font-family="Helvetica-Light" font-size="44.0" fill="#000000" transform="matrix(1.00, 0.00, -0.00, -1.00, 86.0, 11.0)"> </text><text xml:space="preserve" font-family="Helvetica-Light" font-size="44.0" fill="#000000" transform="matrix(1.00, 0.00, -0.00, -1.00, 98.2, 11.0)">c</text><text xml:space="preserve" font-family="Helvetica-Light" font-size="44.0" fill="#000000" transform="matrix(1.00, 0.00, -0.00, -1.00, 122.7, 11.0)">r</text><text xml:space="preserve" font-family="Helvetica-Light" font-size="44.0" fill="#000000" transform="matrix(1.00, 0.00, -0.00, -1.00, 137.3, 11.0)">a</text><text xml:space="preserve" font-family="Helvetica-Light" font-size="44.0" fill="#000000" transform="matrix(1.00, 0.00, -0.00, -1.00, 161.8, 11.0)">p</text><text xml:space="preserve" font-family="Helvetica-Light" font-size="44.0" fill="#000000" transform="matrix(1.00, 0.00, -0.00, -1.00, 188.7, 11.0)"> </text><text xml:space="preserve" font-family="Helvetica-Light" font-size="44.0" fill="#000000" transform="matrix(1.00, 0.00, -0.00, -1.00, 200.9, 11.0)">e</text><text xml:space="preserve" font-family="Helvetica-Light" font-size="44.0" fill="#000000" transform="matrix(1.00, 0.00, -0.00, -1.00, 225.4, 11.0)">v</text><text xml:space="preserve" font-family="Helvetica-Light" font-size="44.0" fill="#000000" transform="matrix(1.00, 0.00, -0.00, -1.00, 247.4, 11.0)">e</text><text xml:space="preserve" font-family="Helvetica-Light" font-size="44.0" fill="#000000" transform="matrix(1.00, 0.00, -0.00, -1.00, 271.9, 11.0)">r</text><text xml:space="preserve" font-family="Helvetica-Light" font-size="44.0" fill="#000000" transform="matrix(1.00, 0.00, -0.00, -1.00, 287.3, 11.0)">y</text><text xml:space="preserve" font-family="Helvetica-Light" font-size="44.0" fill="#000000" transform="matrix(1.00, 0.00, -0.00, -1.00, 309.3, 11.0)">t</text><text xml:space="preserve" font-family="Helvetica-Light" font-size="44.0" fill="#000000" transform="matrix(1.00, 0.00, -0.00, -1.00, 321.5, 11.0)">h</text><text xml:space="preserve" font-family="Helvetica-Light" font-size="44.0" fill="#000000" transform="matrix(1.00, 0.00, -0.00, -1.00, 346.0, 11.0)">i</text><text xml:space="preserve" font-family="Helvetica-Light" font-size="44.0" fill="#000000" transform="matrix(1.00, 0.00, -0.00, -1.00, 355.8, 11.0)">n</text><text xml:space="preserve" font-family="Helvetica-Light" font-size="44.0" fill="#000000" transform="matrix(1.00, 0.00, -0.00, -1.00, 380.2, 11.0)">g</text><text xml:space="preserve" font-family="Helvetica-Light" font-size="44.0" fill="#000000" transform="matrix(1.00, 0.00, -0.00, -1.00, 407.1, 11.0)">’</text><text xml:space="preserve" font-family="Helvetica-Light" font-size="44.0" fill="#000000" transform="matrix(1.00, 0.00, -0.00, -1.00, 413.6, 11.0)">s</text><text xml:space="preserve" font-family="Helvetica-Light" font-size="44.0" fill="#000000" transform="matrix(1.00, 0.00, -0.00, -1.00, 435.6, 11.0)"> </text><text xml:space="preserve" font-family="Helvetica-Light" font-size="44.0" fill="#000000" transform="matrix(1.00, 0.00, -0.00, -1.00, 447.9, 11.0)">c</text><text xml:space="preserve" font-family="Helvetica-Light" font-size="44.0" fill="#000000" transform="matrix(1.00, 0.00, -0.00, -1.00, 472.3, 11.0)">h</text><text xml:space="preserve" font-family="Helvetica-Light" font-size="44.0" fill="#000000" transform="matrix(1.00, 0.00, -0.00, -1.00, 496.8, 11.0)">a</text><text xml:space="preserve" font-family="Helvetica-Light" font-size="44.0" fill="#000000" transform="matrix(1.00, 0.00, -0.00, -1.00, 521.2, 11.0)">n</text><text xml:space="preserve" font-family="Helvetica-Light" font-size="44.0" fill="#000000" transform="matrix(1.00, 0.00, -0.00, -1.00, 545.7, 11.0)">g</text><text xml:space="preserve" font-family="Helvetica-Light" font-size="44.0" fill="#000000" transform="matrix(1.00, 0.00, -0.00, -1.00, 572.6, 11.0)">e</text><text xml:space="preserve" font-family="Helvetica-Light" font-size="44.0" fill="#000000" transform="matrix(1.00, 0.00, -0.00, -1.00, 597.1, 11.0)">d</text><text xml:space="preserve" font-family="Helvetica-Light" font-size="44.0" fill="#000000" transform="matrix(1.00, 0.00, -0.00, -1.00, 623.9, 11.0)">!</text></g></svg>