<?xml version="1.0" encoding="UTF-8" standalone="no"?><svg xmlns="http://www.w3.org/2000/svg" xmlns:xlink="http://www.w3.org/1999/xlink" clip-rule="evenodd" stroke-miterlimit="4.00" viewBox="0 0 420 42"><desc>SVG generated by Keynote</desc><defs></defs><g transform="matrix(1.00, 0.00, -0.00, -1.00, 0.0, 42.0)"><text xml:space="preserve" font-family="Helvetica-Light" font-size="30.4" fill="#000000" transform="matrix(1.00, 0.00, -0.00, -1.00, 0.0, 14.0)">•</text><text xml:space="preserve" font-family="Helvetica-Light" font-size="40.6" fill="#000000" transform="matrix(1.00, 0.00, -0.00, -1.00, 39.0, 10.0)">C</text><text xml:space="preserve" font-family="Helvetica-Light" font-size="40.6" fill="#000000" transform="matrix(1.00, 0.00, -0.00, -1.00, 68.3, 10.0)">o</text><text xml:space="preserve" font-family="Helvetica-Light" font-size="40.6" fill="#000000" transform="matrix(1.00, 0.00, -0.00, -1.00, 90.8, 10.0)">m</text><text xml:space="preserve" font-family="Helvetica-Light" font-size="40.6" fill="#000000" transform="matrix(1.00, 0.00, -0.00, -1.00, 124.6, 10.0)">p</text><text xml:space="preserve" font-family="Helvetica-Light" font-size="40.6" fill="#000000" transform="matrix(1.00, 0.00, -0.00, -1.00, 149.4, 10.0)">o</text><text xml:space="preserve" font-family="Helvetica-Light" font-size="40.6" fill="#000000" transform="matrix(1.00, 0.00, -0.00, -1.00, 172.0, 10.0)">n</text><text xml:space="preserve" font-family="Helvetica-Light" font-size="40.6" fill="#000000" transform="matrix(1.00, 0.00, -0.00, -1.00, 194.5, 10.0)">e</text><text xml:space="preserve" font-family="Helvetica-Light" font-size="40.6" fill="#000000" transform="matrix(1.00, 0.00, -0.00, -1.00, 217.1, 10.0)">n</text><text xml:space="preserve" font-family="Helvetica-Light" font-size="40.6" fill="#000000" transform="matrix(1.00, 0.00, -0.00, -1.00, 239.6, 10.0)">t</text><text xml:space="preserve" font-family="Helvetica-Light" font-size="40.6" fill="#000000" transform="matrix(1.00, 0.00, -0.00, -1.00, 250.9, 10.0)"> </text><text xml:space="preserve" font-family="Helvetica-Light" font-size="40.6" fill="#000000" transform="matrix(1.00, 0.00, -0.00, -1.00, 262.2, 10.0)">b</text><text xml:space="preserve" font-family="Helvetica-Light" font-size="40.6" fill="#000000" transform="matrix(1.00, 0.00, -0.00, -1.00, 286.9, 10.0)">i</text><text xml:space="preserve" font-family="Helvetica-Light" font-size="40.6" fill="#000000" transform="matrix(1.00, 0.00, -0.00, -1.00, 295.9, 10.0)">n</text><text xml:space="preserve" font-family="Helvetica-Light" font-size="40.6" fill="#000000" transform="matrix(1.00, 0.00, -0.00, -1.00, 318.5, 10.0)">d</text><text xml:space="preserve" font-family="Helvetica-Light" font-size="40.6" fill="#000000" transform="matrix(1.00, 0.00, -0.00, -1.00, 343.3, 10.0)">i</text><text xml:space="preserve" font-family="Helvetica-Light" font-size="40.6" fill="#000000" transform="matrix(1.00, 0.00, -0.00, -1.00, 352.3, 10.0)">n</text><text xml:space="preserve" font-family="Helvetica-Light" font-size="40.6" fill="#000000" transform="matrix(1.00, 0.00, -0.00, -1.00, 374.8, 10.0)">g</text><text xml:space="preserve" font-family="Helvetica-Light" font-size="40.6" fill="#000000" transform="matrix(1.00, 0.00, -0.00, -1.00, 399.6, 10.0)">s</text></g></svg>