<?xml version="1.0" encoding="UTF-8" standalone="no"?><svg xmlns="http://www.w3.org/2000/svg" xmlns:xlink="http://www.w3.org/1999/xlink" clip-rule="evenodd" stroke-miterlimit="4.00" viewBox="0 0 1293 230"><desc>SVG generated by Keynote</desc><defs></defs><g transform="matrix(1.00, 0.00, -0.00, -1.00, 0.0, 230.0)"><text xml:space="preserve" font-family="Helvetica-Light" font-size="30.4" fill="#000000" transform="matrix(1.00, 0.00, -0.00, -1.00, 0.0, 201.9)">•</text><text xml:space="preserve" font-family="Helvetica-Light" font-size="40.6" fill="#000000" transform="matrix(1.00, 0.00, -0.00, -1.00, 39.0, 198.0)">@</text><text xml:space="preserve" font-family="Helvetica-Light" font-size="40.6" fill="#000000" transform="matrix(1.00, 0.00, -0.00, -1.00, 71.4, 198.0)">O</text><text xml:space="preserve" font-family="Helvetica-Light" font-size="40.6" fill="#000000" transform="matrix(1.00, 0.00, -0.00, -1.00, 103.0, 198.0)">u</text><text xml:space="preserve" font-family="Helvetica-Light" font-size="40.6" fill="#000000" transform="matrix(1.00, 0.00, -0.00, -1.00, 125.6, 198.0)">t</text><text xml:space="preserve" font-family="Helvetica-Light" font-size="40.6" fill="#000000" transform="matrix(1.00, 0.00, -0.00, -1.00, 136.8, 198.0)">p</text><text xml:space="preserve" font-family="Helvetica-Light" font-size="40.6" fill="#000000" transform="matrix(1.00, 0.00, -0.00, -1.00, 161.6, 198.0)">u</text><text xml:space="preserve" font-family="Helvetica-Light" font-size="40.6" fill="#000000" transform="matrix(1.00, 0.00, -0.00, -1.00, 184.2, 198.0)">t</text><text xml:space="preserve" font-family="Helvetica-Light" font-size="40.6" fill="#000000" transform="matrix(1.00, 0.00, -0.00, -1.00, 195.4, 198.0)">(</text><text xml:space="preserve" font-family="Helvetica-Light" font-size="40.6" fill="#000000" transform="matrix(1.00, 0.00, -0.00, -1.00, 208.9, 198.0)">)</text><text xml:space="preserve" font-family="Helvetica-Light" font-size="40.6" fill="#000000" transform="matrix(1.00, 0.00, -0.00, -1.00, 222.5, 198.0)"> </text><text xml:space="preserve" font-family="Helvetica-Light" font-size="40.6" fill="#000000" transform="matrix(1.00, 0.00, -0.00, -1.00, 233.7, 198.0)">-</text><text xml:space="preserve" font-family="Helvetica-Light" font-size="40.6" fill="#000000" transform="matrix(1.00, 0.00, -0.00, -1.00, 247.2, 198.0)">&gt;</text><text xml:space="preserve" font-family="Helvetica-Light" font-size="40.6" fill="#000000" transform="matrix(1.00, 0.00, -0.00, -1.00, 274.0, 198.0)"> </text><text xml:space="preserve" font-family="Helvetica-Light" font-size="40.6" fill="#000000" transform="matrix(1.00, 0.00, -0.00, -1.00, 285.3, 198.0)">B</text><text xml:space="preserve" font-family="Helvetica-Light" font-size="40.6" fill="#000000" transform="matrix(1.00, 0.00, -0.00, -1.00, 312.3, 198.0)">i</text><text xml:space="preserve" font-family="Helvetica-Light" font-size="40.6" fill="#000000" transform="matrix(1.00, 0.00, -0.00, -1.00, 321.3, 198.0)">n</text><text xml:space="preserve" font-family="Helvetica-Light" font-size="40.6" fill="#000000" transform="matrix(1.00, 0.00, -0.00, -1.00, 343.9, 198.0)">d</text><text xml:space="preserve" font-family="Helvetica-Light" font-size="40.6" fill="#000000" transform="matrix(1.00, 0.00, -0.00, -1.00, 368.7, 198.0)">i</text><text xml:space="preserve" font-family="Helvetica-Light" font-size="40.6" fill="#000000" transform="matrix(1.00, 0.00, -0.00, -1.00, 377.7, 198.0)">n</text><text xml:space="preserve" font-family="Helvetica-Light" font-size="40.6" fill="#000000" transform="matrix(1.00, 0.00, -0.00, -1.00, 400.2, 198.0)">g</text><text xml:space="preserve" font-family="Helvetica-Light" font-size="40.6" fill="#000000" transform="matrix(1.00, 0.00, -0.00, -1.00, 425.0, 198.0)"> </text><text xml:space="preserve" font-family="Helvetica-Light" font-size="40.6" fill="#000000" transform="matrix(1.00, 0.00, -0.00, -1.00, 436.3, 198.0)">o</text><text xml:space="preserve" font-family="Helvetica-Light" font-size="40.6" fill="#000000" transform="matrix(1.00, 0.00, -0.00, -1.00, 458.8, 198.0)">u</text><text xml:space="preserve" font-family="Helvetica-Light" font-size="40.6" fill="#000000" transform="matrix(1.00, 0.00, -0.00, -1.00, 481.4, 198.0)">t</text><text xml:space="preserve" font-family="Helvetica-Light" font-size="40.6" fill="#000000" transform="matrix(1.00, 0.00, -0.00, -1.00, 492.7, 198.0)"> </text><text xml:space="preserve" font-family="Helvetica-Light" font-size="40.6" fill="#000000" transform="matrix(1.00, 0.00, -0.00, -1.00, 503.9, 198.0)">o</text><text xml:space="preserve" font-family="Helvetica-Light" font-size="40.6" fill="#000000" transform="matrix(1.00, 0.00, -0.00, -1.00, 526.5, 198.0)">f</text><text xml:space="preserve" font-family="Helvetica-Light" font-size="40.6" fill="#000000" transform="matrix(1.00, 0.00, -0.00, -1.00, 537.8, 198.0)"> </text><text xml:space="preserve" font-family="Helvetica-Light" font-size="40.6" fill="#000000" transform="matrix(1.00, 0.00, -0.00, -1.00, 549.0, 198.0)">a</text><text xml:space="preserve" font-family="Helvetica-Light" font-size="40.6" fill="#000000" transform="matrix(1.00, 0.00, -0.00, -1.00, 571.6, 198.0)"> </text><text xml:space="preserve" font-family="Helvetica-Light" font-size="40.6" fill="#000000" transform="matrix(1.00, 0.00, -0.00, -1.00, 582.9, 198.0)">c</text><text xml:space="preserve" font-family="Helvetica-Light" font-size="40.6" fill="#000000" transform="matrix(1.00, 0.00, -0.00, -1.00, 605.4, 198.0)">o</text><text xml:space="preserve" font-family="Helvetica-Light" font-size="40.6" fill="#000000" transform="matrix(1.00, 0.00, -0.00, -1.00, 628.0, 198.0)">m</text><text xml:space="preserve" font-family="Helvetica-Light" font-size="40.6" fill="#000000" transform="matrix(1.00, 0.00, -0.00, -1.00, 661.8, 198.0)">p</text><text xml:space="preserve" font-family="Helvetica-Light" font-size="40.6" fill="#000000" transform="matrix(1.00, 0.00, -0.00, -1.00, 686.5, 198.0)">o</text><text xml:space="preserve" font-family="Helvetica-Light" font-size="40.6" fill="#000000" transform="matrix(1.00, 0.00, -0.00, -1.00, 709.1, 198.0)">n</text><text xml:space="preserve" font-family="Helvetica-Light" font-size="40.6" fill="#000000" transform="matrix(1.00, 0.00, -0.00, -1.00, 731.6, 198.0)">e</text><text xml:space="preserve" font-family="Helvetica-Light" font-size="40.6" fill="#000000" transform="matrix(1.00, 0.00, -0.00, -1.00, 754.2, 198.0)">n</text><text xml:space="preserve" font-family="Helvetica-Light" font-size="40.6" fill="#000000" transform="matrix(1.00, 0.00, -0.00, -1.00, 776.7, 198.0)">t</text><text xml:space="preserve" font-family="Helvetica-Light" font-size="40.6" fill="#000000" transform="matrix(1.00, 0.00, -0.00, -1.00, 788.0, 198.0)"> </text><text xml:space="preserve" font-family="Helvetica-Light" font-size="30.4" fill="#000000" transform="matrix(1.00, 0.00, -0.00, -1.00, 50.0, 107.9)">•</text><text xml:space="preserve" font-family="Helvetica-Light" font-size="40.6" fill="#000000" transform="matrix(1.00, 0.00, -0.00, -1.00, 89.0, 104.0)">(</text><text xml:space="preserve" font-family="Helvetica-Light" font-size="40.6" fill="#000000" transform="matrix(1.00, 0.00, -0.00, -1.00, 102.5, 104.0)">m</text><text xml:space="preserve" font-family="Helvetica-Light" font-size="40.6" fill="#000000" transform="matrix(1.00, 0.00, -0.00, -1.00, 136.3, 104.0)">y</text><text xml:space="preserve" font-family="Helvetica-Light" font-size="40.6" fill="#000000" transform="matrix(1.00, 0.00, -0.00, -1.00, 156.6, 104.0)">E</text><text xml:space="preserve" font-family="Helvetica-Light" font-size="40.6" fill="#000000" transform="matrix(1.00, 0.00, -0.00, -1.00, 181.4, 104.0)">v</text><text xml:space="preserve" font-family="Helvetica-Light" font-size="40.6" fill="#000000" transform="matrix(1.00, 0.00, -0.00, -1.00, 201.6, 104.0)">e</text><text xml:space="preserve" font-family="Helvetica-Light" font-size="40.6" fill="#000000" transform="matrix(1.00, 0.00, -0.00, -1.00, 224.2, 104.0)">n</text><text xml:space="preserve" font-family="Helvetica-Light" font-size="40.6" fill="#000000" transform="matrix(1.00, 0.00, -0.00, -1.00, 246.7, 104.0)">t</text><text xml:space="preserve" font-family="Helvetica-Light" font-size="40.6" fill="#000000" transform="matrix(1.00, 0.00, -0.00, -1.00, 258.0, 104.0)">)</text><text xml:space="preserve" font-family="Helvetica-Light" font-size="40.6" fill="#000000" transform="matrix(1.00, 0.00, -0.00, -1.00, 271.5, 104.0)">=</text><text xml:space="preserve" font-family="Helvetica-Light" font-size="40.6" fill="#000000" transform="matrix(1.00, 0.00, -0.00, -1.00, 298.3, 104.0)">“</text><text xml:space="preserve" font-family="Helvetica-Light" font-size="40.6" fill="#000000" transform="matrix(1.00, 0.00, -0.00, -1.00, 314.1, 104.0)">m</text><text xml:space="preserve" font-family="Helvetica-Light" font-size="40.6" fill="#000000" transform="matrix(1.00, 0.00, -0.00, -1.00, 347.9, 104.0)">y</text><text xml:space="preserve" font-family="Helvetica-Light" font-size="40.6" fill="#000000" transform="matrix(1.00, 0.00, -0.00, -1.00, 368.1, 104.0)">E</text><text xml:space="preserve" font-family="Helvetica-Light" font-size="40.6" fill="#000000" transform="matrix(1.00, 0.00, -0.00, -1.00, 392.9, 104.0)">v</text><text xml:space="preserve" font-family="Helvetica-Light" font-size="40.6" fill="#000000" transform="matrix(1.00, 0.00, -0.00, -1.00, 413.2, 104.0)">e</text><text xml:space="preserve" font-family="Helvetica-Light" font-size="40.6" fill="#000000" transform="matrix(1.00, 0.00, -0.00, -1.00, 435.7, 104.0)">n</text><text xml:space="preserve" font-family="Helvetica-Light" font-size="40.6" fill="#000000" transform="matrix(1.00, 0.00, -0.00, -1.00, 458.3, 104.0)">t</text><text xml:space="preserve" font-family="Helvetica-Light" font-size="40.6" fill="#000000" transform="matrix(1.00, 0.00, -0.00, -1.00, 469.6, 104.0)">H</text><text xml:space="preserve" font-family="Helvetica-Light" font-size="40.6" fill="#000000" transform="matrix(1.00, 0.00, -0.00, -1.00, 498.9, 104.0)">a</text><text xml:space="preserve" font-family="Helvetica-Light" font-size="40.6" fill="#000000" transform="matrix(1.00, 0.00, -0.00, -1.00, 521.4, 104.0)">n</text><text xml:space="preserve" font-family="Helvetica-Light" font-size="40.6" fill="#000000" transform="matrix(1.00, 0.00, -0.00, -1.00, 544.0, 104.0)">d</text><text xml:space="preserve" font-family="Helvetica-Light" font-size="40.6" fill="#000000" transform="matrix(1.00, 0.00, -0.00, -1.00, 568.7, 104.0)">l</text><text xml:space="preserve" font-family="Helvetica-Light" font-size="40.6" fill="#000000" transform="matrix(1.00, 0.00, -0.00, -1.00, 577.7, 104.0)">e</text><text xml:space="preserve" font-family="Helvetica-Light" font-size="40.6" fill="#000000" transform="matrix(1.00, 0.00, -0.00, -1.00, 600.3, 104.0)">r</text><text xml:space="preserve" font-family="Helvetica-Light" font-size="40.6" fill="#000000" transform="matrix(1.00, 0.00, -0.00, -1.00, 613.8, 104.0)">(</text><text xml:space="preserve" font-family="Helvetica-Light" font-size="40.6" fill="#000000" transform="matrix(1.00, 0.00, -0.00, -1.00, 627.3, 104.0)">$</text><text xml:space="preserve" font-family="Helvetica-Light" font-size="40.6" fill="#000000" transform="matrix(1.00, 0.00, -0.00, -1.00, 649.9, 104.0)">e</text><text xml:space="preserve" font-family="Helvetica-Light" font-size="40.6" fill="#000000" transform="matrix(1.00, 0.00, -0.00, -1.00, 672.4, 104.0)">v</text><text xml:space="preserve" font-family="Helvetica-Light" font-size="40.6" fill="#000000" transform="matrix(1.00, 0.00, -0.00, -1.00, 692.7, 104.0)">e</text><text xml:space="preserve" font-family="Helvetica-Light" font-size="40.6" fill="#000000" transform="matrix(1.00, 0.00, -0.00, -1.00, 715.2, 104.0)">n</text><text xml:space="preserve" font-family="Helvetica-Light" font-size="40.6" fill="#000000" transform="matrix(1.00, 0.00, -0.00, -1.00, 737.8, 104.0)">t</text><text xml:space="preserve" font-family="Helvetica-Light" font-size="40.6" fill="#000000" transform="matrix(1.00, 0.00, -0.00, -1.00, 749.1, 104.0)">)</text><text xml:space="preserve" font-family="Helvetica-Light" font-size="40.6" fill="#000000" transform="matrix(1.00, 0.00, -0.00, -1.00, 762.6, 104.0)">”</text><text xml:space="preserve" font-family="Helvetica-Light" font-size="40.6" fill="#000000" transform="matrix(1.00, 0.00, -0.00, -1.00, 778.4, 104.0)"> </text><text xml:space="preserve" font-family="Helvetica-Light" font-size="30.4" fill="#000000" transform="matrix(1.00, 0.00, -0.00, -1.00, 50.0, 13.9)">•</text><text xml:space="preserve" font-family="Helvetica-Light" font-size="40.6" fill="#000000" transform="matrix(1.00, 0.00, -0.00, -1.00, 89.0, 10.0)">I</text><text xml:space="preserve" font-family="Helvetica-Light" font-size="40.6" fill="#000000" transform="matrix(1.00, 0.00, -0.00, -1.00, 100.3, 10.0)">n</text><text xml:space="preserve" font-family="Helvetica-Light" font-size="40.6" fill="#000000" transform="matrix(1.00, 0.00, -0.00, -1.00, 122.8, 10.0)">s</text><text xml:space="preserve" font-family="Helvetica-Light" font-size="40.6" fill="#000000" transform="matrix(1.00, 0.00, -0.00, -1.00, 143.1, 10.0)">i</text><text xml:space="preserve" font-family="Helvetica-Light" font-size="40.6" fill="#000000" transform="matrix(1.00, 0.00, -0.00, -1.00, 152.1, 10.0)">d</text><text xml:space="preserve" font-family="Helvetica-Light" font-size="40.6" fill="#000000" transform="matrix(1.00, 0.00, -0.00, -1.00, 176.9, 10.0)">e</text><text xml:space="preserve" font-family="Helvetica-Light" font-size="40.6" fill="#000000" transform="matrix(1.00, 0.00, -0.00, -1.00, 199.4, 10.0)"> </text><text xml:space="preserve" font-family="Helvetica-Light" font-size="40.6" fill="#000000" transform="matrix(1.00, 0.00, -0.00, -1.00, 210.7, 10.0)">c</text><text xml:space="preserve" font-family="Helvetica-Light" font-size="40.6" fill="#000000" transform="matrix(1.00, 0.00, -0.00, -1.00, 233.3, 10.0)">o</text><text xml:space="preserve" font-family="Helvetica-Light" font-size="40.6" fill="#000000" transform="matrix(1.00, 0.00, -0.00, -1.00, 255.8, 10.0)">m</text><text xml:space="preserve" font-family="Helvetica-Light" font-size="40.6" fill="#000000" transform="matrix(1.00, 0.00, -0.00, -1.00, 289.6, 10.0)">p</text><text xml:space="preserve" font-family="Helvetica-Light" font-size="40.6" fill="#000000" transform="matrix(1.00, 0.00, -0.00, -1.00, 314.4, 10.0)">o</text><text xml:space="preserve" font-family="Helvetica-Light" font-size="40.6" fill="#000000" transform="matrix(1.00, 0.00, -0.00, -1.00, 336.9, 10.0)">n</text><text xml:space="preserve" font-family="Helvetica-Light" font-size="40.6" fill="#000000" transform="matrix(1.00, 0.00, -0.00, -1.00, 359.5, 10.0)">e</text><text xml:space="preserve" font-family="Helvetica-Light" font-size="40.6" fill="#000000" transform="matrix(1.00, 0.00, -0.00, -1.00, 382.0, 10.0)">n</text><text xml:space="preserve" font-family="Helvetica-Light" font-size="40.6" fill="#000000" transform="matrix(1.00, 0.00, -0.00, -1.00, 404.6, 10.0)">t</text><text xml:space="preserve" font-family="Helvetica-Light" font-size="40.6" fill="#000000" transform="matrix(1.00, 0.00, -0.00, -1.00, 415.9, 10.0)"> </text><text xml:space="preserve" font-family="Helvetica-Light" font-size="40.6" fill="#000000" transform="matrix(1.00, 0.00, -0.00, -1.00, 427.1, 10.0)">c</text><text xml:space="preserve" font-family="Helvetica-Light" font-size="40.6" fill="#000000" transform="matrix(1.00, 0.00, -0.00, -1.00, 449.7, 10.0)">l</text><text xml:space="preserve" font-family="Helvetica-Light" font-size="40.6" fill="#000000" transform="matrix(1.00, 0.00, -0.00, -1.00, 458.7, 10.0)">a</text><text xml:space="preserve" font-family="Helvetica-Light" font-size="40.6" fill="#000000" transform="matrix(1.00, 0.00, -0.00, -1.00, 481.3, 10.0)">s</text><text xml:space="preserve" font-family="Helvetica-Light" font-size="40.6" fill="#000000" transform="matrix(1.00, 0.00, -0.00, -1.00, 501.5, 10.0)">s</text><text xml:space="preserve" font-family="Helvetica-Light" font-size="40.6" fill="#000000" transform="matrix(1.00, 0.00, -0.00, -1.00, 521.8, 10.0)">:</text><text xml:space="preserve" font-family="Helvetica-Light" font-size="40.6" fill="#000000" transform="matrix(1.00, 0.00, -0.00, -1.00, 533.1, 10.0)"> </text><text xml:space="preserve" font-family="Helvetica-Light" font-size="40.6" fill="#000000" transform="matrix(1.00, 0.00, -0.00, -1.00, 544.4, 10.0)">@</text><text xml:space="preserve" font-family="Helvetica-Light" font-size="40.6" fill="#000000" transform="matrix(1.00, 0.00, -0.00, -1.00, 576.8, 10.0)">O</text><text xml:space="preserve" font-family="Helvetica-Light" font-size="40.6" fill="#000000" transform="matrix(1.00, 0.00, -0.00, -1.00, 608.4, 10.0)">u</text><text xml:space="preserve" font-family="Helvetica-Light" font-size="40.6" fill="#000000" transform="matrix(1.00, 0.00, -0.00, -1.00, 630.9, 10.0)">t</text><text xml:space="preserve" font-family="Helvetica-Light" font-size="40.6" fill="#000000" transform="matrix(1.00, 0.00, -0.00, -1.00, 642.2, 10.0)">p</text><text xml:space="preserve" font-family="Helvetica-Light" font-size="40.6" fill="#000000" transform="matrix(1.00, 0.00, -0.00, -1.00, 667.0, 10.0)">u</text><text xml:space="preserve" font-family="Helvetica-Light" font-size="40.6" fill="#000000" transform="matrix(1.00, 0.00, -0.00, -1.00, 689.5, 10.0)">t</text><text xml:space="preserve" font-family="Helvetica-Light" font-size="40.6" fill="#000000" transform="matrix(1.00, 0.00, -0.00, -1.00, 700.8, 10.0)">(</text><text xml:space="preserve" font-family="Helvetica-Light" font-size="40.6" fill="#000000" transform="matrix(1.00, 0.00, -0.00, -1.00, 714.3, 10.0)">)</text><text xml:space="preserve" font-family="Helvetica-Light" font-size="40.6" fill="#000000" transform="matrix(1.00, 0.00, -0.00, -1.00, 727.8, 10.0)"> </text><text xml:space="preserve" font-family="Helvetica-Light" font-size="40.6" fill="#000000" transform="matrix(1.00, 0.00, -0.00, -1.00, 739.1, 10.0)">m</text><text xml:space="preserve" font-family="Helvetica-Light" font-size="40.6" fill="#000000" transform="matrix(1.00, 0.00, -0.00, -1.00, 772.9, 10.0)">y</text><text xml:space="preserve" font-family="Helvetica-Light" font-size="40.6" fill="#000000" transform="matrix(1.00, 0.00, -0.00, -1.00, 793.2, 10.0)">E</text><text xml:space="preserve" font-family="Helvetica-Light" font-size="40.6" fill="#000000" transform="matrix(1.00, 0.00, -0.00, -1.00, 817.9, 10.0)">v</text><text xml:space="preserve" font-family="Helvetica-Light" font-size="40.6" fill="#000000" transform="matrix(1.00, 0.00, -0.00, -1.00, 838.2, 10.0)">e</text><text xml:space="preserve" font-family="Helvetica-Light" font-size="40.6" fill="#000000" transform="matrix(1.00, 0.00, -0.00, -1.00, 860.8, 10.0)">n</text><text xml:space="preserve" font-family="Helvetica-Light" font-size="40.6" fill="#000000" transform="matrix(1.00, 0.00, -0.00, -1.00, 883.3, 10.0)">t</text><text xml:space="preserve" font-family="Helvetica-Light" font-size="40.6" fill="#000000" transform="matrix(1.00, 0.00, -0.00, -1.00, 894.6, 10.0)"> </text><text xml:space="preserve" font-family="Helvetica-Light" font-size="40.6" fill="#000000" transform="matrix(1.00, 0.00, -0.00, -1.00, 905.9, 10.0)">=</text><text xml:space="preserve" font-family="Helvetica-Light" font-size="40.6" fill="#000000" transform="matrix(1.00, 0.00, -0.00, -1.00, 932.6, 10.0)"> </text><text xml:space="preserve" font-family="Helvetica-Light" font-size="40.6" fill="#000000" transform="matrix(1.00, 0.00, -0.00, -1.00, 943.9, 10.0)">n</text><text xml:space="preserve" font-family="Helvetica-Light" font-size="40.6" fill="#000000" transform="matrix(1.00, 0.00, -0.00, -1.00, 966.5, 10.0)">e</text><text xml:space="preserve" font-family="Helvetica-Light" font-size="40.6" fill="#000000" transform="matrix(1.00, 0.00, -0.00, -1.00, 989.0, 10.0)">w</text><text xml:space="preserve" font-family="Helvetica-Light" font-size="40.6" fill="#000000" transform="matrix(1.00, 0.00, -0.00, -1.00, 1018.3, 10.0)"> </text><text xml:space="preserve" font-family="Helvetica-Light" font-size="40.6" fill="#000000" transform="matrix(1.00, 0.00, -0.00, -1.00, 1029.6, 10.0)">E</text><text xml:space="preserve" font-family="Helvetica-Light" font-size="40.6" fill="#000000" transform="matrix(1.00, 0.00, -0.00, -1.00, 1054.4, 10.0)">v</text><text xml:space="preserve" font-family="Helvetica-Light" font-size="40.6" fill="#000000" transform="matrix(1.00, 0.00, -0.00, -1.00, 1074.6, 10.0)">e</text><text xml:space="preserve" font-family="Helvetica-Light" font-size="40.6" fill="#000000" transform="matrix(1.00, 0.00, -0.00, -1.00, 1097.2, 10.0)">n</text><text xml:space="preserve" font-family="Helvetica-Light" font-size="40.6" fill="#000000" transform="matrix(1.00, 0.00, -0.00, -1.00, 1119.8, 10.0)">t</text><text xml:space="preserve" font-family="Helvetica-Light" font-size="40.6" fill="#000000" transform="matrix(1.00, 0.00, -0.00, -1.00, 1131.0, 10.0)">E</text><text xml:space="preserve" font-family="Helvetica-Light" font-size="40.6" fill="#000000" transform="matrix(1.00, 0.00, -0.00, -1.00, 1155.8, 10.0)">m</text><text xml:space="preserve" font-family="Helvetica-Light" font-size="40.6" fill="#000000" transform="matrix(1.00, 0.00, -0.00, -1.00, 1189.6, 10.0)">i</text><text xml:space="preserve" font-family="Helvetica-Light" font-size="40.6" fill="#000000" transform="matrix(1.00, 0.00, -0.00, -1.00, 1198.6, 10.0)">t</text><text xml:space="preserve" font-family="Helvetica-Light" font-size="40.6" fill="#000000" transform="matrix(1.00, 0.00, -0.00, -1.00, 1209.9, 10.0)">t</text><text xml:space="preserve" font-family="Helvetica-Light" font-size="40.6" fill="#000000" transform="matrix(1.00, 0.00, -0.00, -1.00, 1221.2, 10.0)">e</text><text xml:space="preserve" font-family="Helvetica-Light" font-size="40.6" fill="#000000" transform="matrix(1.00, 0.00, -0.00, -1.00, 1243.7, 10.0)">r</text><text xml:space="preserve" font-family="Helvetica-Light" font-size="40.6" fill="#000000" transform="matrix(1.00, 0.00, -0.00, -1.00, 1257.2, 10.0)">(</text><text xml:space="preserve" font-family="Helvetica-Light" font-size="40.6" fill="#000000" transform="matrix(1.00, 0.00, -0.00, -1.00, 1270.7, 10.0)">)</text><text xml:space="preserve" font-family="Helvetica-Light" font-size="40.6" fill="#000000" transform="matrix(1.00, 0.00, -0.00, -1.00, 1284.2, 10.0)">;</text></g></svg>