<?xml version="1.0" encoding="UTF-8" standalone="no"?><svg xmlns="http://www.w3.org/2000/svg" xmlns:xlink="http://www.w3.org/1999/xlink" clip-rule="evenodd" stroke-miterlimit="4.00" viewBox="0 0 1920 1080"><desc>SVG generated by Keynote</desc><defs></defs><g transform="matrix(1.00, 0.00, -0.00, -1.00, 0.0, 1080.0)"><path d="M 0.0 1080.0 L 1920.0 1080.0 L 1920.0 0.0 L 0.0 0.0 Z M 0.0 1080.0 " fill="#FEFFFF"></path><text xml:space="preserve" font-family="Helvetica-Light" font-size="102.0" fill="#000000" transform="matrix(1.00, 0.00, -0.00, -1.00, 309.0, 502.0)">l</text><text xml:space="preserve" font-family="Helvetica-Light" font-size="102.0" fill="#000000" transform="matrix(1.00, 0.00, -0.00, -1.00, 331.6, 502.0)">a</text><text xml:space="preserve" font-family="Helvetica-Light" font-size="102.0" fill="#000000" transform="matrix(1.00, 0.00, -0.00, -1.00, 388.4, 502.0)">r</text><text xml:space="preserve" font-family="Helvetica-Light" font-size="102.0" fill="#000000" transform="matrix(1.00, 0.00, -0.00, -1.00, 422.3, 502.0)">s</text><text xml:space="preserve" font-family="Helvetica-Light" font-size="102.0" fill="#000000" transform="matrix(1.00, 0.00, -0.00, -1.00, 473.3, 502.0)">v</text><text xml:space="preserve" font-family="Helvetica-Light" font-size="102.0" fill="#000000" transform="matrix(1.00, 0.00, -0.00, -1.00, 524.3, 502.0)">o</text><text xml:space="preserve" font-family="Helvetica-Light" font-size="102.0" fill="#000000" transform="matrix(1.00, 0.00, -0.00, -1.00, 581.0, 502.0)">n</text><text xml:space="preserve" font-family="Helvetica-Light" font-size="102.0" fill="#000000" transform="matrix(1.00, 0.00, -0.00, -1.00, 637.7, 502.0)">q</text><text xml:space="preserve" font-family="Helvetica-Light" font-size="102.0" fill="#000000" transform="matrix(1.00, 0.00, -0.00, -1.00, 700.1, 502.0)">u</text><text xml:space="preserve" font-family="Helvetica-Light" font-size="102.0" fill="#000000" transform="matrix(1.00, 0.00, -0.00, -1.00, 756.8, 502.0)">a</text><text xml:space="preserve" font-family="Helvetica-Light" font-size="102.0" fill="#000000" transform="matrix(1.00, 0.00, -0.00, -1.00, 813.5, 502.0)">l</text><text xml:space="preserve" font-family="Helvetica-Light" font-size="102.0" fill="#000000" transform="matrix(1.00, 0.00, -0.00, -1.00, 836.1, 502.0)">e</text><text xml:space="preserve" font-family="Helvetica-Light" font-size="102.0" fill="#000000" transform="matrix(1.00, 0.00, -0.00, -1.00, 892.8, 502.0)">n</text><text xml:space="preserve" font-family="Helvetica-Light" font-size="102.0" fill="#000000" transform="matrix(1.00, 0.00, -0.00, -1.00, 949.6, 502.0)">.</text><text xml:space="preserve" font-family="Helvetica-Light" font-size="102.0" fill="#000000" transform="matrix(1.00, 0.00, -0.00, -1.00, 977.9, 502.0)">r</text><text xml:space="preserve" font-family="Helvetica-Light" font-size="102.0" fill="#000000" transform="matrix(1.00, 0.00, -0.00, -1.00, 1010.0, 502.0)">o</text><text xml:space="preserve" font-family="Helvetica-Light" font-size="102.0" fill="#000000" transform="matrix(1.00, 0.00, -0.00, -1.00, 1066.8, 502.0)">c</text><text xml:space="preserve" font-family="Helvetica-Light" font-size="102.0" fill="#000000" transform="matrix(1.00, 0.00, -0.00, -1.00, 1123.5, 502.0)">k</text><text xml:space="preserve" font-family="Helvetica-Light" font-size="102.0" fill="#000000" transform="matrix(1.00, 0.00, -0.00, -1.00, 1174.5, 502.0)">s</text><text xml:space="preserve" font-family="Helvetica-Light" font-size="102.0" fill="#000000" transform="matrix(1.00, 0.00, -0.00, -1.00, 1225.5, 502.0)">/</text><text xml:space="preserve" font-family="Helvetica-Light" font-size="102.0" fill="#000000" transform="matrix(1.00, 0.00, -0.00, -1.00, 1253.8, 502.0)">ï¬</text><text xml:space="preserve" font-family="Helvetica-Light" font-size="102.0" fill="#000000" transform="matrix(1.00, 0.00, -0.00, -1.00, 1304.8, 502.0)">l</text><text xml:space="preserve" font-family="Helvetica-Light" font-size="102.0" fill="#000000" transform="matrix(1.00, 0.00, -0.00, -1.00, 1327.5, 502.0)">m</text><text xml:space="preserve" font-family="Helvetica-Light" font-size="102.0" fill="#000000" transform="matrix(1.00, 0.00, -0.00, -1.00, 1412.4, 502.0)">s</text><text xml:space="preserve" font-family="Helvetica-Light" font-size="102.0" fill="#000000" transform="matrix(1.00, 0.00, -0.00, -1.00, 1463.4, 502.0)">t</text><text xml:space="preserve" font-family="Helvetica-Light" font-size="102.0" fill="#000000" transform="matrix(1.00, 0.00, -0.00, -1.00, 1491.8, 502.0)">r</text><text xml:space="preserve" font-family="Helvetica-Light" font-size="102.0" fill="#000000" transform="matrix(1.00, 0.00, -0.00, -1.00, 1525.8, 502.0)">i</text><text xml:space="preserve" font-family="Helvetica-Light" font-size="102.0" fill="#000000" transform="matrix(1.00, 0.00, -0.00, -1.00, 1548.4, 502.0)">p</text><g><clipPath id="clip-17"><path d="M 308.1 491.3 L 1610.9 491.3 L 1610.9 498.4 L 308.1 498.4 Z M 308.1 491.3 "></path></clipPath><g clip-path="url(#clip-17)"><path d="M 169.1 228.2 L 1470.9 228.2 " fill="none" stroke="#000000" stroke-width="5.10" stroke-miterlimit="0.00" transform="matrix(1.00, 0.00, 0.00, -1.00, 140.0, 723.0)"></path></g></g></g></svg>