<?xml version="1.0" encoding="UTF-8" standalone="no"?><svg xmlns="http://www.w3.org/2000/svg" xmlns:xlink="http://www.w3.org/1999/xlink" clip-rule="evenodd" stroke-miterlimit="4.00" viewBox="0 0 1920 1080"><desc>SVG generated by Keynote</desc><defs></defs><g transform="matrix(1.00, 0.00, -0.00, -1.00, 0.0, 1080.0)"><path d="M 0.0 1080.0 L 1920.0 1080.0 L 1920.0 0.0 L 0.0 0.0 Z M 0.0 1080.0 " fill="#FEFFFF"></path><text xml:space="preserve" font-family="Helvetica-Light" font-size="112.0" fill="#000000" transform="matrix(1.00, 0.00, -0.00, -1.00, 349.0, 61.0)">T</text><text xml:space="preserve" font-family="Helvetica-Light" font-size="112.0" fill="#000000" transform="matrix(1.00, 0.00, -0.00, -1.00, 411.3, 61.0)">h</text><text xml:space="preserve" font-family="Helvetica-Light" font-size="112.0" fill="#000000" transform="matrix(1.00, 0.00, -0.00, -1.00, 473.5, 61.0)">e</text><text xml:space="preserve" font-family="Helvetica-Light" font-size="112.0" fill="#000000" transform="matrix(1.00, 0.00, -0.00, -1.00, 535.8, 61.0)">n</text><text xml:space="preserve" font-family="Helvetica-Light" font-size="112.0" fill="#000000" transform="matrix(1.00, 0.00, -0.00, -1.00, 598.1, 61.0)"> </text><text xml:space="preserve" font-family="Helvetica-Light" font-size="112.0" fill="#000000" transform="matrix(1.00, 0.00, -0.00, -1.00, 629.2, 61.0)">i</text><text xml:space="preserve" font-family="Helvetica-Light" font-size="112.0" fill="#000000" transform="matrix(1.00, 0.00, -0.00, -1.00, 654.1, 61.0)"> </text><text xml:space="preserve" font-family="Helvetica-Light" font-size="112.0" fill="#000000" transform="matrix(1.00, 0.00, -0.00, -1.00, 685.2, 61.0)">s</text><text xml:space="preserve" font-family="Helvetica-Light" font-size="112.0" fill="#000000" transform="matrix(1.00, 0.00, -0.00, -1.00, 741.2, 61.0)">t</text><text xml:space="preserve" font-family="Helvetica-Light" font-size="112.0" fill="#000000" transform="matrix(1.00, 0.00, -0.00, -1.00, 772.4, 61.0)">a</text><text xml:space="preserve" font-family="Helvetica-Light" font-size="112.0" fill="#000000" transform="matrix(1.00, 0.00, -0.00, -1.00, 834.6, 61.0)">r</text><text xml:space="preserve" font-family="Helvetica-Light" font-size="112.0" fill="#000000" transform="matrix(1.00, 0.00, -0.00, -1.00, 873.9, 61.0)">t</text><text xml:space="preserve" font-family="Helvetica-Light" font-size="112.0" fill="#000000" transform="matrix(1.00, 0.00, -0.00, -1.00, 905.1, 61.0)">e</text><text xml:space="preserve" font-family="Helvetica-Light" font-size="112.0" fill="#000000" transform="matrix(1.00, 0.00, -0.00, -1.00, 967.4, 61.0)">d</text><text xml:space="preserve" font-family="Helvetica-Light" font-size="112.0" fill="#000000" transform="matrix(1.00, 0.00, -0.00, -1.00, 1035.8, 61.0)"> </text><text xml:space="preserve" font-family="Helvetica-Light" font-size="112.0" fill="#000000" transform="matrix(1.00, 0.00, -0.00, -1.00, 1066.9, 61.0)">w</text><text xml:space="preserve" font-family="Helvetica-Light" font-size="112.0" fill="#000000" transform="matrix(1.00, 0.00, -0.00, -1.00, 1147.8, 61.0)">o</text><text xml:space="preserve" font-family="Helvetica-Light" font-size="112.0" fill="#000000" transform="matrix(1.00, 0.00, -0.00, -1.00, 1210.1, 61.0)">r</text><text xml:space="preserve" font-family="Helvetica-Light" font-size="112.0" fill="#000000" transform="matrix(1.00, 0.00, -0.00, -1.00, 1247.4, 61.0)">k</text><text xml:space="preserve" font-family="Helvetica-Light" font-size="112.0" fill="#000000" transform="matrix(1.00, 0.00, -0.00, -1.00, 1303.4, 61.0)">i</text><text xml:space="preserve" font-family="Helvetica-Light" font-size="112.0" fill="#000000" transform="matrix(1.00, 0.00, -0.00, -1.00, 1328.2, 61.0)">n</text><text xml:space="preserve" font-family="Helvetica-Light" font-size="112.0" fill="#000000" transform="matrix(1.00, 0.00, -0.00, -1.00, 1390.5, 61.0)">g</text><text xml:space="preserve" font-family="Helvetica-Light" font-size="112.0" fill="#000000" transform="matrix(1.00, 0.00, -0.00, -1.00, 1458.9, 61.0)">…</text><image xlink:href="../../40446EE2-09B0-440B-8F43-FC2C0AF29DC6/assets/27F77F18C251B7866C7091DB7BDB6AA4.png" width="400.00" height="300.00" transform="matrix(2.98, 0.00, -0.00, -2.98, 363.0, 1081.0)"></image></g></svg>