<?xml version="1.0" encoding="UTF-8" standalone="no"?><svg xmlns="http://www.w3.org/2000/svg" xmlns:xlink="http://www.w3.org/1999/xlink" clip-rule="evenodd" stroke-miterlimit="4.00" viewBox="0 0 1920 1080"><desc>SVG generated by Keynote</desc><defs></defs><g transform="matrix(1.00, 0.00, -0.00, -1.00, 0.0, 1080.0)"><path d="M 0.0 1080.0 L 1920.0 1080.0 L 1920.0 0.0 L 0.0 0.0 Z M 0.0 1080.0 " fill="#000000"></path><text xml:space="preserve" font-family="Helvetica-Light" font-size="112.0" fill="#FEFFFF" transform="matrix(1.00, 0.00, -0.00, -1.00, 568.0, 113.0)">R</text><text xml:space="preserve" font-family="Helvetica-Light" font-size="112.0" fill="#FEFFFF" transform="matrix(1.00, 0.00, -0.00, -1.00, 642.7, 113.0)">e</text><text xml:space="preserve" font-family="Helvetica-Light" font-size="112.0" fill="#FEFFFF" transform="matrix(1.00, 0.00, -0.00, -1.00, 705.0, 113.0)">a</text><text xml:space="preserve" font-family="Helvetica-Light" font-size="112.0" fill="#FEFFFF" transform="matrix(1.00, 0.00, -0.00, -1.00, 767.2, 113.0)">l</text><text xml:space="preserve" font-family="Helvetica-Light" font-size="112.0" fill="#FEFFFF" transform="matrix(1.00, 0.00, -0.00, -1.00, 792.1, 113.0)">i</text><text xml:space="preserve" font-family="Helvetica-Light" font-size="112.0" fill="#FEFFFF" transform="matrix(1.00, 0.00, -0.00, -1.00, 817.0, 113.0)">t</text><text xml:space="preserve" font-family="Helvetica-Light" font-size="112.0" fill="#FEFFFF" transform="matrix(1.00, 0.00, -0.00, -1.00, 848.1, 113.0)">y</text><text xml:space="preserve" font-family="Helvetica-Light" font-size="112.0" fill="#FEFFFF" transform="matrix(1.00, 0.00, -0.00, -1.00, 904.1, 113.0)"> </text><text xml:space="preserve" font-family="Helvetica-Light" font-size="112.0" fill="#FEFFFF" transform="matrix(1.00, 0.00, -0.00, -1.00, 935.2, 113.0)">h</text><text xml:space="preserve" font-family="Helvetica-Light" font-size="112.0" fill="#FEFFFF" transform="matrix(1.00, 0.00, -0.00, -1.00, 997.5, 113.0)">i</text><text xml:space="preserve" font-family="Helvetica-Light" font-size="112.0" fill="#FEFFFF" transform="matrix(1.00, 0.00, -0.00, -1.00, 1022.4, 113.0)">t</text><text xml:space="preserve" font-family="Helvetica-Light" font-size="112.0" fill="#FEFFFF" transform="matrix(1.00, 0.00, -0.00, -1.00, 1053.5, 113.0)"> </text><text xml:space="preserve" font-family="Helvetica-Light" font-size="112.0" fill="#FEFFFF" transform="matrix(1.00, 0.00, -0.00, -1.00, 1084.7, 113.0)">m</text><text xml:space="preserve" font-family="Helvetica-Light" font-size="112.0" fill="#FEFFFF" transform="matrix(1.00, 0.00, -0.00, -1.00, 1178.0, 113.0)">e</text><text xml:space="preserve" font-family="Helvetica-Light" font-size="112.0" fill="#FEFFFF" transform="matrix(1.00, 0.00, -0.00, -1.00, 1240.2, 113.0)">…</text><image xlink:href="../../FE7A7B75-513E-4E71-9522-F17458491BA2/assets/AA1D7D53FBD54D397AA1E7CC8E544D2D.png" width="200.00" height="200.00" transform="matrix(3.96, 0.00, -0.00, -3.96, 564.0, 1080.0)"></image></g></svg>