<?xml version="1.0" encoding="UTF-8" standalone="no"?><svg xmlns="http://www.w3.org/2000/svg" xmlns:xlink="http://www.w3.org/1999/xlink" clip-rule="evenodd" stroke-miterlimit="4.00" viewBox="0 0 1920 1080"><desc>SVG generated by Keynote</desc><defs></defs><g transform="matrix(1.00, 0.00, -0.00, -1.00, 0.0, 1080.0)"><path d="M 0.0 1080.0 L 1920.0 1080.0 L 1920.0 0.0 L 0.0 0.0 Z M 0.0 1080.0 " fill="#FEFFFE"></path><text xml:space="preserve" font-family="Helvetica-Light" font-size="104.2" fill="#000000" transform="matrix(1.00, 0.00, -0.00, -1.00, 145.0, 876.0)">T</text><text xml:space="preserve" font-family="Helvetica-Light" font-size="104.2" fill="#000000" transform="matrix(1.00, 0.00, -0.00, -1.00, 202.9, 876.0)">h</text><text xml:space="preserve" font-family="Helvetica-Light" font-size="104.2" fill="#000000" transform="matrix(1.00, 0.00, -0.00, -1.00, 260.8, 876.0)">e</text><text xml:space="preserve" font-family="Helvetica-Light" font-size="104.2" fill="#000000" transform="matrix(1.00, 0.00, -0.00, -1.00, 318.7, 876.0)"> </text><text xml:space="preserve" font-family="Helvetica-Light" font-size="104.2" fill="#000000" transform="matrix(1.00, 0.00, -0.00, -1.00, 347.7, 876.0)">t</text><text xml:space="preserve" font-family="Helvetica-Light" font-size="104.2" fill="#000000" transform="matrix(1.00, 0.00, -0.00, -1.00, 376.7, 876.0)">h</text><text xml:space="preserve" font-family="Helvetica-Light" font-size="104.2" fill="#000000" transform="matrix(1.00, 0.00, -0.00, -1.00, 434.6, 876.0)">i</text><text xml:space="preserve" font-family="Helvetica-Light" font-size="104.2" fill="#000000" transform="matrix(1.00, 0.00, -0.00, -1.00, 457.7, 876.0)">n</text><text xml:space="preserve" font-family="Helvetica-Light" font-size="104.2" fill="#000000" transform="matrix(1.00, 0.00, -0.00, -1.00, 515.6, 876.0)">g</text><text xml:space="preserve" font-family="Helvetica-Light" font-size="104.2" fill="#000000" transform="matrix(1.00, 0.00, -0.00, -1.00, 579.2, 876.0)">s</text><text xml:space="preserve" font-family="Helvetica-Light" font-size="104.2" fill="#000000" transform="matrix(1.00, 0.00, -0.00, -1.00, 631.3, 876.0)"> </text><text xml:space="preserve" font-family="Helvetica-Light" font-size="104.2" fill="#000000" transform="matrix(1.00, 0.00, -0.00, -1.00, 660.3, 876.0)">i</text><text xml:space="preserve" font-family="Helvetica-Light" font-size="104.2" fill="#000000" transform="matrix(1.00, 0.00, -0.00, -1.00, 683.4, 876.0)"> </text><text xml:space="preserve" font-family="Helvetica-Light" font-size="104.2" fill="#000000" transform="matrix(1.00, 0.00, -0.00, -1.00, 712.4, 876.0)">d</text><text xml:space="preserve" font-family="Helvetica-Light" font-size="104.2" fill="#000000" transform="matrix(1.00, 0.00, -0.00, -1.00, 776.0, 876.0)">i</text><text xml:space="preserve" font-family="Helvetica-Light" font-size="104.2" fill="#000000" transform="matrix(1.00, 0.00, -0.00, -1.00, 799.1, 876.0)">d</text><text xml:space="preserve" font-family="Helvetica-Light" font-size="104.2" fill="#000000" transform="matrix(1.00, 0.00, -0.00, -1.00, 862.8, 876.0)">n</text><text xml:space="preserve" font-family="Helvetica-Light" font-size="104.2" fill="#000000" transform="matrix(1.00, 0.00, -0.00, -1.00, 920.7, 876.0)">’</text><text xml:space="preserve" font-family="Helvetica-Light" font-size="104.2" fill="#000000" transform="matrix(1.00, 0.00, -0.00, -1.00, 941.9, 876.0)">t</text><text xml:space="preserve" font-family="Helvetica-Light" font-size="104.2" fill="#000000" transform="matrix(1.00, 0.00, -0.00, -1.00, 970.9, 876.0)"> </text><text xml:space="preserve" font-family="Helvetica-Light" font-size="104.2" fill="#000000" transform="matrix(1.00, 0.00, -0.00, -1.00, 999.8, 876.0)">h</text><text xml:space="preserve" font-family="Helvetica-Light" font-size="104.2" fill="#000000" transform="matrix(1.00, 0.00, -0.00, -1.00, 1057.8, 876.0)">a</text><text xml:space="preserve" font-family="Helvetica-Light" font-size="104.2" fill="#000000" transform="matrix(1.00, 0.00, -0.00, -1.00, 1115.7, 876.0)">v</text><text xml:space="preserve" font-family="Helvetica-Light" font-size="104.2" fill="#000000" transform="matrix(1.00, 0.00, -0.00, -1.00, 1167.7, 876.0)">e</text><text xml:space="preserve" font-family="Helvetica-Light" font-size="104.2" fill="#000000" transform="matrix(1.00, 0.00, -0.00, -1.00, 1225.7, 876.0)"> </text><text xml:space="preserve" font-family="Helvetica-Light" font-size="104.2" fill="#000000" transform="matrix(1.00, 0.00, -0.00, -1.00, 1254.6, 876.0)">t</text><text xml:space="preserve" font-family="Helvetica-Light" font-size="104.2" fill="#000000" transform="matrix(1.00, 0.00, -0.00, -1.00, 1283.6, 876.0)">i</text><text xml:space="preserve" font-family="Helvetica-Light" font-size="104.2" fill="#000000" transform="matrix(1.00, 0.00, -0.00, -1.00, 1306.7, 876.0)">m</text><text xml:space="preserve" font-family="Helvetica-Light" font-size="104.2" fill="#000000" transform="matrix(1.00, 0.00, -0.00, -1.00, 1393.5, 876.0)">e</text><text xml:space="preserve" font-family="Helvetica-Light" font-size="104.2" fill="#000000" transform="matrix(1.00, 0.00, -0.00, -1.00, 1451.4, 876.0)"> </text><text xml:space="preserve" font-family="Helvetica-Light" font-size="104.2" fill="#000000" transform="matrix(1.00, 0.00, -0.00, -1.00, 1480.3, 876.0)">t</text><text xml:space="preserve" font-family="Helvetica-Light" font-size="104.2" fill="#000000" transform="matrix(1.00, 0.00, -0.00, -1.00, 1509.3, 876.0)">o</text><text xml:space="preserve" font-family="Helvetica-Light" font-size="104.2" fill="#000000" transform="matrix(1.00, 0.00, -0.00, -1.00, 1567.2, 876.0)"> </text><text xml:space="preserve" font-family="Helvetica-Light" font-size="104.2" fill="#000000" transform="matrix(1.00, 0.00, -0.00, -1.00, 1596.2, 876.0)">d</text><text xml:space="preserve" font-family="Helvetica-Light" font-size="104.2" fill="#000000" transform="matrix(1.00, 0.00, -0.00, -1.00, 1659.8, 876.0)">o</text><text xml:space="preserve" font-family="Helvetica-Light" font-size="104.2" fill="#000000" transform="matrix(1.00, 0.00, -0.00, -1.00, 1717.7, 876.0)">.</text><text xml:space="preserve" font-family="Helvetica-Light" font-size="104.2" fill="#000000" transform="matrix(1.00, 0.00, -0.00, -1.00, 1746.7, 876.0)">.</text></g></svg>