<?xml version="1.0" encoding="UTF-8" standalone="no"?><svg xmlns="http://www.w3.org/2000/svg" xmlns:xlink="http://www.w3.org/1999/xlink" clip-rule="evenodd" stroke-miterlimit="4.00" viewBox="0 0 743 548"><desc>SVG generated by Keynote</desc><defs></defs><g transform="matrix(1.00, 0.00, -0.00, -1.00, 0.0, 548.0)"><text xml:space="preserve" font-family="Helvetica-Light" font-size="45.0" fill="#000000" transform="matrix(1.00, 0.00, -0.00, -1.00, 1.0, 514.0)">A</text><text xml:space="preserve" font-family="Helvetica-Light" font-size="45.0" fill="#000000" transform="matrix(1.00, 0.00, -0.00, -1.00, 31.0, 514.0)">n</text><text xml:space="preserve" font-family="Helvetica-Light" font-size="45.0" fill="#000000" transform="matrix(1.00, 0.00, -0.00, -1.00, 56.0, 514.0)">g</text><text xml:space="preserve" font-family="Helvetica-Light" font-size="45.0" fill="#000000" transform="matrix(1.00, 0.00, -0.00, -1.00, 83.5, 514.0)">u</text><text xml:space="preserve" font-family="Helvetica-Light" font-size="45.0" fill="#000000" transform="matrix(1.00, 0.00, -0.00, -1.00, 108.5, 514.0)">l</text><text xml:space="preserve" font-family="Helvetica-Light" font-size="45.0" fill="#000000" transform="matrix(1.00, 0.00, -0.00, -1.00, 118.5, 514.0)">a</text><text xml:space="preserve" font-family="Helvetica-Light" font-size="45.0" fill="#000000" transform="matrix(1.00, 0.00, -0.00, -1.00, 143.6, 514.0)">r</text><text xml:space="preserve" font-family="Helvetica-Light" font-size="45.0" fill="#000000" transform="matrix(1.00, 0.00, -0.00, -1.00, 158.5, 514.0)"> </text><text xml:space="preserve" font-family="Helvetica-Light" font-size="45.0" fill="#000000" transform="matrix(1.00, 0.00, -0.00, -1.00, 171.1, 514.0)">2</text><text xml:space="preserve" font-family="Helvetica-Light" font-size="45.0" fill="#000000" transform="matrix(1.00, 0.00, -0.00, -1.00, 196.1, 514.0)"> </text><text xml:space="preserve" font-family="Helvetica-Light" font-size="33.8" fill="#000000" transform="matrix(1.00, 0.00, -0.00, -1.00, 1.2, 419.3)">•</text><text xml:space="preserve" font-family="Helvetica-Light" font-size="45.0" fill="#000000" transform="matrix(1.00, 0.00, -0.00, -1.00, 45.0, 415.0)">N</text><text xml:space="preserve" font-family="Helvetica-Light" font-size="45.0" fill="#000000" transform="matrix(1.00, 0.00, -0.00, -1.00, 77.5, 415.0)">e</text><text xml:space="preserve" font-family="Helvetica-Light" font-size="45.0" fill="#000000" transform="matrix(1.00, 0.00, -0.00, -1.00, 102.5, 415.0)">w</text><text xml:space="preserve" font-family="Helvetica-Light" font-size="45.0" fill="#000000" transform="matrix(1.00, 0.00, -0.00, -1.00, 135.0, 415.0)"> </text><text xml:space="preserve" font-family="Helvetica-Light" font-size="45.0" fill="#000000" transform="matrix(1.00, 0.00, -0.00, -1.00, 147.5, 415.0)">b</text><text xml:space="preserve" font-family="Helvetica-Light" font-size="45.0" fill="#000000" transform="matrix(1.00, 0.00, -0.00, -1.00, 175.0, 415.0)">u</text><text xml:space="preserve" font-family="Helvetica-Light" font-size="45.0" fill="#000000" transform="matrix(1.00, 0.00, -0.00, -1.00, 200.0, 415.0)">i</text><text xml:space="preserve" font-family="Helvetica-Light" font-size="45.0" fill="#000000" transform="matrix(1.00, 0.00, -0.00, -1.00, 210.0, 415.0)">l</text><text xml:space="preserve" font-family="Helvetica-Light" font-size="45.0" fill="#000000" transform="matrix(1.00, 0.00, -0.00, -1.00, 220.0, 415.0)">t</text><text xml:space="preserve" font-family="Helvetica-Light" font-size="45.0" fill="#000000" transform="matrix(1.00, 0.00, -0.00, -1.00, 232.5, 415.0)">-</text><text xml:space="preserve" font-family="Helvetica-Light" font-size="45.0" fill="#000000" transform="matrix(1.00, 0.00, -0.00, -1.00, 247.5, 415.0)">i</text><text xml:space="preserve" font-family="Helvetica-Light" font-size="45.0" fill="#000000" transform="matrix(1.00, 0.00, -0.00, -1.00, 257.5, 415.0)">n</text><text xml:space="preserve" font-family="Helvetica-Light" font-size="45.0" fill="#000000" transform="matrix(1.00, 0.00, -0.00, -1.00, 282.5, 415.0)"> </text><text xml:space="preserve" font-family="Helvetica-Light" font-size="45.0" fill="#000000" transform="matrix(1.00, 0.00, -0.00, -1.00, 295.0, 415.0)">r</text><text xml:space="preserve" font-family="Helvetica-Light" font-size="45.0" fill="#000000" transform="matrix(1.00, 0.00, -0.00, -1.00, 309.2, 415.0)">o</text><text xml:space="preserve" font-family="Helvetica-Light" font-size="45.0" fill="#000000" transform="matrix(1.00, 0.00, -0.00, -1.00, 334.2, 415.0)">u</text><text xml:space="preserve" font-family="Helvetica-Light" font-size="45.0" fill="#000000" transform="matrix(1.00, 0.00, -0.00, -1.00, 359.2, 415.0)">t</text><text xml:space="preserve" font-family="Helvetica-Light" font-size="45.0" fill="#000000" transform="matrix(1.00, 0.00, -0.00, -1.00, 371.7, 415.0)">e</text><text xml:space="preserve" font-family="Helvetica-Light" font-size="45.0" fill="#000000" transform="matrix(1.00, 0.00, -0.00, -1.00, 396.8, 415.0)">r</text><text xml:space="preserve" font-family="Helvetica-Light" font-size="45.0" fill="#000000" transform="matrix(1.00, 0.00, -0.00, -1.00, 411.7, 415.0)"> </text><text xml:space="preserve" font-family="Helvetica-Light" font-size="33.8" fill="#000000" transform="matrix(1.00, 0.00, -0.00, -1.00, 1.2, 320.3)">•</text><text xml:space="preserve" font-family="Helvetica-Light" font-size="45.0" fill="#000000" transform="matrix(1.00, 0.00, -0.00, -1.00, 45.0, 316.0)">D</text><text xml:space="preserve" font-family="Helvetica-Light" font-size="45.0" fill="#000000" transform="matrix(1.00, 0.00, -0.00, -1.00, 77.5, 316.0)">e</text><text xml:space="preserve" font-family="Helvetica-Light" font-size="45.0" fill="#000000" transform="matrix(1.00, 0.00, -0.00, -1.00, 102.5, 316.0)">ﬁ</text><text xml:space="preserve" font-family="Helvetica-Light" font-size="45.0" fill="#000000" transform="matrix(1.00, 0.00, -0.00, -1.00, 125.0, 316.0)">n</text><text xml:space="preserve" font-family="Helvetica-Light" font-size="45.0" fill="#000000" transform="matrix(1.00, 0.00, -0.00, -1.00, 150.0, 316.0)">e</text><text xml:space="preserve" font-family="Helvetica-Light" font-size="45.0" fill="#000000" transform="matrix(1.00, 0.00, -0.00, -1.00, 175.1, 316.0)">d</text><text xml:space="preserve" font-family="Helvetica-Light" font-size="45.0" fill="#000000" transform="matrix(1.00, 0.00, -0.00, -1.00, 202.5, 316.0)"> </text><text xml:space="preserve" font-family="Helvetica-Light" font-size="45.0" fill="#000000" transform="matrix(1.00, 0.00, -0.00, -1.00, 215.1, 316.0)">i</text><text xml:space="preserve" font-family="Helvetica-Light" font-size="45.0" fill="#000000" transform="matrix(1.00, 0.00, -0.00, -1.00, 225.0, 316.0)">n</text><text xml:space="preserve" font-family="Helvetica-Light" font-size="45.0" fill="#000000" transform="matrix(1.00, 0.00, -0.00, -1.00, 250.1, 316.0)"> </text><text xml:space="preserve" font-family="Helvetica-Light" font-size="45.0" fill="#000000" transform="matrix(1.00, 0.00, -0.00, -1.00, 262.6, 316.0)">o</text><text xml:space="preserve" font-family="Helvetica-Light" font-size="45.0" fill="#000000" transform="matrix(1.00, 0.00, -0.00, -1.00, 287.6, 316.0)">n</text><text xml:space="preserve" font-family="Helvetica-Light" font-size="45.0" fill="#000000" transform="matrix(1.00, 0.00, -0.00, -1.00, 312.6, 316.0)">e</text><text xml:space="preserve" font-family="Helvetica-Light" font-size="45.0" fill="#000000" transform="matrix(1.00, 0.00, -0.00, -1.00, 337.6, 316.0)"> </text><text xml:space="preserve" font-family="Helvetica-Light" font-size="45.0" fill="#000000" transform="matrix(1.00, 0.00, -0.00, -1.00, 350.1, 316.0)">s</text><text xml:space="preserve" font-family="Helvetica-Light" font-size="45.0" fill="#000000" transform="matrix(1.00, 0.00, -0.00, -1.00, 372.6, 316.0)">i</text><text xml:space="preserve" font-family="Helvetica-Light" font-size="45.0" fill="#000000" transform="matrix(1.00, 0.00, -0.00, -1.00, 382.6, 316.0)">n</text><text xml:space="preserve" font-family="Helvetica-Light" font-size="45.0" fill="#000000" transform="matrix(1.00, 0.00, -0.00, -1.00, 407.7, 316.0)">g</text><text xml:space="preserve" font-family="Helvetica-Light" font-size="45.0" fill="#000000" transform="matrix(1.00, 0.00, -0.00, -1.00, 435.1, 316.0)">l</text><text xml:space="preserve" font-family="Helvetica-Light" font-size="45.0" fill="#000000" transform="matrix(1.00, 0.00, -0.00, -1.00, 445.1, 316.0)">e</text><text xml:space="preserve" font-family="Helvetica-Light" font-size="45.0" fill="#000000" transform="matrix(1.00, 0.00, -0.00, -1.00, 470.2, 316.0)"> </text><text xml:space="preserve" font-family="Helvetica-Light" font-size="45.0" fill="#000000" transform="matrix(1.00, 0.00, -0.00, -1.00, 482.7, 316.0)">ﬁ</text><text xml:space="preserve" font-family="Helvetica-Light" font-size="45.0" fill="#000000" transform="matrix(1.00, 0.00, -0.00, -1.00, 505.2, 316.0)">l</text><text xml:space="preserve" font-family="Helvetica-Light" font-size="45.0" fill="#000000" transform="matrix(1.00, 0.00, -0.00, -1.00, 515.2, 316.0)">e</text><text xml:space="preserve" font-family="Helvetica-Light" font-size="45.0" fill="#000000" transform="matrix(1.00, 0.00, -0.00, -1.00, 540.2, 316.0)">,</text><text xml:space="preserve" font-family="Helvetica-Light" font-size="45.0" fill="#000000" transform="matrix(1.00, 0.00, -0.00, -1.00, 552.7, 316.0)"> </text><text xml:space="preserve" font-family="Helvetica-Light" font-size="45.0" fill="#000000" transform="matrix(1.00, 0.00, -0.00, -1.00, 565.2, 316.0)">b</text><text xml:space="preserve" font-family="Helvetica-Light" font-size="45.0" fill="#000000" transform="matrix(1.00, 0.00, -0.00, -1.00, 592.7, 316.0)">e</text><text xml:space="preserve" font-family="Helvetica-Light" font-size="45.0" fill="#000000" transform="matrix(1.00, 0.00, -0.00, -1.00, 617.7, 316.0)">c</text><text xml:space="preserve" font-family="Helvetica-Light" font-size="45.0" fill="#000000" transform="matrix(1.00, 0.00, -0.00, -1.00, 642.7, 316.0)">a</text><text xml:space="preserve" font-family="Helvetica-Light" font-size="45.0" fill="#000000" transform="matrix(1.00, 0.00, -0.00, -1.00, 667.8, 316.0)">u</text><text xml:space="preserve" font-family="Helvetica-Light" font-size="45.0" fill="#000000" transform="matrix(1.00, 0.00, -0.00, -1.00, 692.8, 316.0)">s</text><text xml:space="preserve" font-family="Helvetica-Light" font-size="45.0" fill="#000000" transform="matrix(1.00, 0.00, -0.00, -1.00, 715.3, 316.0)">e</text><text xml:space="preserve" font-family="Helvetica-Light" font-size="45.0" fill="#000000" transform="matrix(1.00, 0.00, -0.00, -1.00, 740.3, 316.0)"> </text><text xml:space="preserve" font-family="Helvetica-Light" font-size="45.0" fill="#000000" transform="matrix(1.00, 0.00, -0.00, -1.00, 45.0, 262.0)">c</text><text xml:space="preserve" font-family="Helvetica-Light" font-size="45.0" fill="#000000" transform="matrix(1.00, 0.00, -0.00, -1.00, 70.0, 262.0)">o</text><text xml:space="preserve" font-family="Helvetica-Light" font-size="45.0" fill="#000000" transform="matrix(1.00, 0.00, -0.00, -1.00, 95.0, 262.0)">m</text><text xml:space="preserve" font-family="Helvetica-Light" font-size="45.0" fill="#000000" transform="matrix(1.00, 0.00, -0.00, -1.00, 132.5, 262.0)">p</text><text xml:space="preserve" font-family="Helvetica-Light" font-size="45.0" fill="#000000" transform="matrix(1.00, 0.00, -0.00, -1.00, 160.0, 262.0)">o</text><text xml:space="preserve" font-family="Helvetica-Light" font-size="45.0" fill="#000000" transform="matrix(1.00, 0.00, -0.00, -1.00, 185.0, 262.0)">n</text><text xml:space="preserve" font-family="Helvetica-Light" font-size="45.0" fill="#000000" transform="matrix(1.00, 0.00, -0.00, -1.00, 210.1, 262.0)">e</text><text xml:space="preserve" font-family="Helvetica-Light" font-size="45.0" fill="#000000" transform="matrix(1.00, 0.00, -0.00, -1.00, 235.1, 262.0)">n</text><text xml:space="preserve" font-family="Helvetica-Light" font-size="45.0" fill="#000000" transform="matrix(1.00, 0.00, -0.00, -1.00, 260.1, 262.0)">t</text><text xml:space="preserve" font-family="Helvetica-Light" font-size="45.0" fill="#000000" transform="matrix(1.00, 0.00, -0.00, -1.00, 272.6, 262.0)">s</text><text xml:space="preserve" font-family="Helvetica-Light" font-size="45.0" fill="#000000" transform="matrix(1.00, 0.00, -0.00, -1.00, 295.1, 262.0)">!</text><text xml:space="preserve" font-family="Helvetica-Light" font-size="45.0" fill="#000000" transform="matrix(1.00, 0.00, -0.00, -1.00, 310.1, 262.0)"> </text><text xml:space="preserve" font-family="Helvetica-Light" font-size="45.0" fill="#000000" transform="matrix(1.00, 0.00, -0.00, -1.00, 322.6, 262.0)">Y</text><text xml:space="preserve" font-family="Helvetica-Light" font-size="45.0" fill="#000000" transform="matrix(1.00, 0.00, -0.00, -1.00, 346.0, 262.0)">o</text><text xml:space="preserve" font-family="Helvetica-Light" font-size="45.0" fill="#000000" transform="matrix(1.00, 0.00, -0.00, -1.00, 371.0, 262.0)">u</text><text xml:space="preserve" font-family="Helvetica-Light" font-size="45.0" fill="#000000" transform="matrix(1.00, 0.00, -0.00, -1.00, 396.0, 262.0)">’</text><text xml:space="preserve" font-family="Helvetica-Light" font-size="45.0" fill="#000000" transform="matrix(1.00, 0.00, -0.00, -1.00, 406.0, 262.0)">l</text><text xml:space="preserve" font-family="Helvetica-Light" font-size="45.0" fill="#000000" transform="matrix(1.00, 0.00, -0.00, -1.00, 416.0, 262.0)">l</text><text xml:space="preserve" font-family="Helvetica-Light" font-size="45.0" fill="#000000" transform="matrix(1.00, 0.00, -0.00, -1.00, 426.0, 262.0)"> </text><text xml:space="preserve" font-family="Helvetica-Light" font-size="45.0" fill="#000000" transform="matrix(1.00, 0.00, -0.00, -1.00, 438.5, 262.0)">s</text><text xml:space="preserve" font-family="Helvetica-Light" font-size="45.0" fill="#000000" transform="matrix(1.00, 0.00, -0.00, -1.00, 461.0, 262.0)">e</text><text xml:space="preserve" font-family="Helvetica-Light" font-size="45.0" fill="#000000" transform="matrix(1.00, 0.00, -0.00, -1.00, 486.0, 262.0)">e</text><text xml:space="preserve" font-family="Helvetica-Light" font-size="45.0" fill="#000000" transform="matrix(1.00, 0.00, -0.00, -1.00, 511.0, 262.0)"> </text><text xml:space="preserve" font-family="Helvetica-Light" font-size="45.0" fill="#000000" transform="matrix(1.00, 0.00, -0.00, -1.00, 523.5, 262.0)">l</text><text xml:space="preserve" font-family="Helvetica-Light" font-size="45.0" fill="#000000" transform="matrix(1.00, 0.00, -0.00, -1.00, 533.5, 262.0)">a</text><text xml:space="preserve" font-family="Helvetica-Light" font-size="45.0" fill="#000000" transform="matrix(1.00, 0.00, -0.00, -1.00, 558.5, 262.0)">t</text><text xml:space="preserve" font-family="Helvetica-Light" font-size="45.0" fill="#000000" transform="matrix(1.00, 0.00, -0.00, -1.00, 571.0, 262.0)">e</text><text xml:space="preserve" font-family="Helvetica-Light" font-size="45.0" fill="#000000" transform="matrix(1.00, 0.00, -0.00, -1.00, 596.1, 262.0)">r</text><text xml:space="preserve" font-family="Helvetica-Light" font-size="45.0" fill="#000000" transform="matrix(1.00, 0.00, -0.00, -1.00, 606.9, 262.0)">.</text><text xml:space="preserve" font-family="Helvetica-Light" font-size="45.0" fill="#000000" transform="matrix(1.00, 0.00, -0.00, -1.00, 619.4, 262.0)">.</text><text xml:space="preserve" font-family="Helvetica-Light" font-size="45.0" fill="#000000" transform="matrix(1.00, 0.00, -0.00, -1.00, 631.9, 262.0)"> </text><text xml:space="preserve" font-family="Helvetica-Light" font-size="33.8" fill="#000000" transform="matrix(1.00, 0.00, -0.00, -1.00, 1.2, 167.3)">•</text><text xml:space="preserve" font-family="Helvetica-Light" font-size="45.0" fill="#000000" transform="matrix(1.00, 0.00, -0.00, -1.00, 45.0, 163.0)">L</text><text xml:space="preserve" font-family="Helvetica-Light" font-size="45.0" fill="#000000" transform="matrix(1.00, 0.00, -0.00, -1.00, 70.0, 163.0)">o</text><text xml:space="preserve" font-family="Helvetica-Light" font-size="45.0" fill="#000000" transform="matrix(1.00, 0.00, -0.00, -1.00, 95.0, 163.0)">t</text><text xml:space="preserve" font-family="Helvetica-Light" font-size="45.0" fill="#000000" transform="matrix(1.00, 0.00, -0.00, -1.00, 107.5, 163.0)">s</text><text xml:space="preserve" font-family="Helvetica-Light" font-size="45.0" fill="#000000" transform="matrix(1.00, 0.00, -0.00, -1.00, 130.1, 163.0)"> </text><text xml:space="preserve" font-family="Helvetica-Light" font-size="45.0" fill="#000000" transform="matrix(1.00, 0.00, -0.00, -1.00, 142.6, 163.0)">o</text><text xml:space="preserve" font-family="Helvetica-Light" font-size="45.0" fill="#000000" transform="matrix(1.00, 0.00, -0.00, -1.00, 167.6, 163.0)">f</text><text xml:space="preserve" font-family="Helvetica-Light" font-size="45.0" fill="#000000" transform="matrix(1.00, 0.00, -0.00, -1.00, 180.1, 163.0)"> </text><text xml:space="preserve" font-family="Helvetica-Light" font-size="45.0" fill="#000000" transform="matrix(1.00, 0.00, -0.00, -1.00, 192.6, 163.0)">g</text><text xml:space="preserve" font-family="Helvetica-Light" font-size="45.0" fill="#000000" transform="matrix(1.00, 0.00, -0.00, -1.00, 220.1, 163.0)">r</text><text xml:space="preserve" font-family="Helvetica-Light" font-size="45.0" fill="#000000" transform="matrix(1.00, 0.00, -0.00, -1.00, 234.3, 163.0)">e</text><text xml:space="preserve" font-family="Helvetica-Light" font-size="45.0" fill="#000000" transform="matrix(1.00, 0.00, -0.00, -1.00, 259.3, 163.0)">a</text><text xml:space="preserve" font-family="Helvetica-Light" font-size="45.0" fill="#000000" transform="matrix(1.00, 0.00, -0.00, -1.00, 284.3, 163.0)">t</text><text xml:space="preserve" font-family="Helvetica-Light" font-size="45.0" fill="#000000" transform="matrix(1.00, 0.00, -0.00, -1.00, 296.8, 163.0)"> </text><text xml:space="preserve" font-family="Helvetica-Light" font-size="45.0" fill="#000000" transform="matrix(1.00, 0.00, -0.00, -1.00, 309.3, 163.0)">f</text><text xml:space="preserve" font-family="Helvetica-Light" font-size="45.0" fill="#000000" transform="matrix(1.00, 0.00, -0.00, -1.00, 321.8, 163.0)">e</text><text xml:space="preserve" font-family="Helvetica-Light" font-size="45.0" fill="#000000" transform="matrix(1.00, 0.00, -0.00, -1.00, 346.9, 163.0)">a</text><text xml:space="preserve" font-family="Helvetica-Light" font-size="45.0" fill="#000000" transform="matrix(1.00, 0.00, -0.00, -1.00, 371.9, 163.0)">t</text><text xml:space="preserve" font-family="Helvetica-Light" font-size="45.0" fill="#000000" transform="matrix(1.00, 0.00, -0.00, -1.00, 384.4, 163.0)">u</text><text xml:space="preserve" font-family="Helvetica-Light" font-size="45.0" fill="#000000" transform="matrix(1.00, 0.00, -0.00, -1.00, 409.4, 163.0)">r</text><text xml:space="preserve" font-family="Helvetica-Light" font-size="45.0" fill="#000000" transform="matrix(1.00, 0.00, -0.00, -1.00, 423.6, 163.0)">e</text><text xml:space="preserve" font-family="Helvetica-Light" font-size="45.0" fill="#000000" transform="matrix(1.00, 0.00, -0.00, -1.00, 448.6, 163.0)">s</text><text xml:space="preserve" font-family="Helvetica-Light" font-size="45.0" fill="#000000" transform="matrix(1.00, 0.00, -0.00, -1.00, 471.1, 163.0)"> </text><text xml:space="preserve" font-family="Helvetica-Light" font-size="33.8" fill="#000000" transform="matrix(1.00, 0.00, -0.00, -1.00, 1.2, 68.3)">•</text><text xml:space="preserve" font-family="Helvetica-Light" font-size="45.0" fill="#000000" transform="matrix(1.00, 0.00, -0.00, -1.00, 45.0, 64.0)">W</text><text xml:space="preserve" font-family="Helvetica-Light" font-size="45.0" fill="#000000" transform="matrix(1.00, 0.00, -0.00, -1.00, 84.2, 64.0)">e</text><text xml:space="preserve" font-family="Helvetica-Light" font-size="45.0" fill="#000000" transform="matrix(1.00, 0.00, -0.00, -1.00, 109.2, 64.0)">i</text><text xml:space="preserve" font-family="Helvetica-Light" font-size="45.0" fill="#000000" transform="matrix(1.00, 0.00, -0.00, -1.00, 119.2, 64.0)">r</text><text xml:space="preserve" font-family="Helvetica-Light" font-size="45.0" fill="#000000" transform="matrix(1.00, 0.00, -0.00, -1.00, 133.4, 64.0)">d</text><text xml:space="preserve" font-family="Helvetica-Light" font-size="45.0" fill="#000000" transform="matrix(1.00, 0.00, -0.00, -1.00, 160.9, 64.0)"> </text><text xml:space="preserve" font-family="Helvetica-Light" font-size="45.0" fill="#000000" transform="matrix(1.00, 0.00, -0.00, -1.00, 173.4, 64.0)">u</text><text xml:space="preserve" font-family="Helvetica-Light" font-size="45.0" fill="#000000" transform="matrix(1.00, 0.00, -0.00, -1.00, 198.4, 64.0)">r</text><text xml:space="preserve" font-family="Helvetica-Light" font-size="45.0" fill="#000000" transform="matrix(1.00, 0.00, -0.00, -1.00, 213.4, 64.0)">l</text><text xml:space="preserve" font-family="Helvetica-Light" font-size="45.0" fill="#000000" transform="matrix(1.00, 0.00, -0.00, -1.00, 223.4, 64.0)"> </text><text xml:space="preserve" font-family="Helvetica-Light" font-size="45.0" fill="#000000" transform="matrix(1.00, 0.00, -0.00, -1.00, 235.9, 64.0)">s</text><text xml:space="preserve" font-family="Helvetica-Light" font-size="45.0" fill="#000000" transform="matrix(1.00, 0.00, -0.00, -1.00, 258.4, 64.0)">e</text><text xml:space="preserve" font-family="Helvetica-Light" font-size="45.0" fill="#000000" transform="matrix(1.00, 0.00, -0.00, -1.00, 283.4, 64.0)">r</text><text xml:space="preserve" font-family="Helvetica-Light" font-size="45.0" fill="#000000" transform="matrix(1.00, 0.00, -0.00, -1.00, 298.4, 64.0)">i</text><text xml:space="preserve" font-family="Helvetica-Light" font-size="45.0" fill="#000000" transform="matrix(1.00, 0.00, -0.00, -1.00, 308.4, 64.0)">a</text><text xml:space="preserve" font-family="Helvetica-Light" font-size="45.0" fill="#000000" transform="matrix(1.00, 0.00, -0.00, -1.00, 333.4, 64.0)">l</text><text xml:space="preserve" font-family="Helvetica-Light" font-size="45.0" fill="#000000" transform="matrix(1.00, 0.00, -0.00, -1.00, 343.4, 64.0)">i</text><text xml:space="preserve" font-family="Helvetica-Light" font-size="45.0" fill="#000000" transform="matrix(1.00, 0.00, -0.00, -1.00, 353.4, 64.0)">z</text><text xml:space="preserve" font-family="Helvetica-Light" font-size="45.0" fill="#000000" transform="matrix(1.00, 0.00, -0.00, -1.00, 375.9, 64.0)">a</text><text xml:space="preserve" font-family="Helvetica-Light" font-size="45.0" fill="#000000" transform="matrix(1.00, 0.00, -0.00, -1.00, 400.9, 64.0)">t</text><text xml:space="preserve" font-family="Helvetica-Light" font-size="45.0" fill="#000000" transform="matrix(1.00, 0.00, -0.00, -1.00, 413.4, 64.0)">i</text><text xml:space="preserve" font-family="Helvetica-Light" font-size="45.0" fill="#000000" transform="matrix(1.00, 0.00, -0.00, -1.00, 423.4, 64.0)">o</text><text xml:space="preserve" font-family="Helvetica-Light" font-size="45.0" fill="#000000" transform="matrix(1.00, 0.00, -0.00, -1.00, 448.4, 64.0)">n</text><text xml:space="preserve" font-family="Helvetica-Light" font-size="45.0" fill="#000000" transform="matrix(1.00, 0.00, -0.00, -1.00, 473.4, 64.0)"> </text><text xml:space="preserve" font-family="Helvetica-Light" font-size="45.0" fill="#000000" transform="matrix(1.00, 0.00, -0.00, -1.00, 486.0, 64.0)">o</text><text xml:space="preserve" font-family="Helvetica-Light" font-size="45.0" fill="#000000" transform="matrix(1.00, 0.00, -0.00, -1.00, 511.0, 64.0)">f</text><text xml:space="preserve" font-family="Helvetica-Light" font-size="45.0" fill="#000000" transform="matrix(1.00, 0.00, -0.00, -1.00, 523.5, 64.0)"> </text><text xml:space="preserve" font-family="Helvetica-Light" font-size="45.0" fill="#000000" transform="matrix(1.00, 0.00, -0.00, -1.00, 536.0, 64.0)">c</text><text xml:space="preserve" font-family="Helvetica-Light" font-size="45.0" fill="#000000" transform="matrix(1.00, 0.00, -0.00, -1.00, 561.0, 64.0)">o</text><text xml:space="preserve" font-family="Helvetica-Light" font-size="45.0" fill="#000000" transform="matrix(1.00, 0.00, -0.00, -1.00, 586.0, 64.0)">m</text><text xml:space="preserve" font-family="Helvetica-Light" font-size="45.0" fill="#000000" transform="matrix(1.00, 0.00, -0.00, -1.00, 623.5, 64.0)">p</text><text xml:space="preserve" font-family="Helvetica-Light" font-size="45.0" fill="#000000" transform="matrix(1.00, 0.00, -0.00, -1.00, 651.0, 64.0)">l</text><text xml:space="preserve" font-family="Helvetica-Light" font-size="45.0" fill="#000000" transform="matrix(1.00, 0.00, -0.00, -1.00, 661.0, 64.0)">e</text><text xml:space="preserve" font-family="Helvetica-Light" font-size="45.0" fill="#000000" transform="matrix(1.00, 0.00, -0.00, -1.00, 686.0, 64.0)">x</text><text xml:space="preserve" font-family="Helvetica-Light" font-size="45.0" fill="#000000" transform="matrix(1.00, 0.00, -0.00, -1.00, 708.5, 64.0)"> </text><text xml:space="preserve" font-family="Helvetica-Light" font-size="45.0" fill="#000000" transform="matrix(1.00, 0.00, -0.00, -1.00, 45.0, 10.0)">d</text><text xml:space="preserve" font-family="Helvetica-Light" font-size="45.0" fill="#000000" transform="matrix(1.00, 0.00, -0.00, -1.00, 72.5, 10.0)">a</text><text xml:space="preserve" font-family="Helvetica-Light" font-size="45.0" fill="#000000" transform="matrix(1.00, 0.00, -0.00, -1.00, 97.5, 10.0)">t</text><text xml:space="preserve" font-family="Helvetica-Light" font-size="45.0" fill="#000000" transform="matrix(1.00, 0.00, -0.00, -1.00, 110.0, 10.0)">a</text><text xml:space="preserve" font-family="Helvetica-Light" font-size="45.0" fill="#000000" transform="matrix(1.00, 0.00, -0.00, -1.00, 135.0, 10.0)">?</text><text xml:space="preserve" font-family="Helvetica-Light" font-size="45.0" fill="#000000" transform="matrix(1.00, 0.00, -0.00, -1.00, 157.5, 10.0)">!</text><text xml:space="preserve" font-family="Helvetica-Light" font-size="45.0" fill="#000000" transform="matrix(1.00, 0.00, -0.00, -1.00, 172.5, 10.0)"> </text><text xml:space="preserve" font-family="Helvetica-Light" font-size="45.0" fill="#000000" transform="matrix(1.00, 0.00, -0.00, -1.00, 185.0, 10.0)">D</text><text xml:space="preserve" font-family="Helvetica-Light" font-size="45.0" fill="#000000" transform="matrix(1.00, 0.00, -0.00, -1.00, 217.5, 10.0)">i</text><text xml:space="preserve" font-family="Helvetica-Light" font-size="45.0" fill="#000000" transform="matrix(1.00, 0.00, -0.00, -1.00, 227.5, 10.0)">d</text><text xml:space="preserve" font-family="Helvetica-Light" font-size="45.0" fill="#000000" transform="matrix(1.00, 0.00, -0.00, -1.00, 255.0, 10.0)">n</text><text xml:space="preserve" font-family="Helvetica-Light" font-size="45.0" fill="#000000" transform="matrix(1.00, 0.00, -0.00, -1.00, 280.0, 10.0)">’</text><text xml:space="preserve" font-family="Helvetica-Light" font-size="45.0" fill="#000000" transform="matrix(1.00, 0.00, -0.00, -1.00, 289.2, 10.0)">t</text><text xml:space="preserve" font-family="Helvetica-Light" font-size="45.0" fill="#000000" transform="matrix(1.00, 0.00, -0.00, -1.00, 301.7, 10.0)"> </text><text xml:space="preserve" font-family="Helvetica-Light" font-size="45.0" fill="#000000" transform="matrix(1.00, 0.00, -0.00, -1.00, 314.2, 10.0)">u</text><text xml:space="preserve" font-family="Helvetica-Light" font-size="45.0" fill="#000000" transform="matrix(1.00, 0.00, -0.00, -1.00, 339.3, 10.0)">s</text><text xml:space="preserve" font-family="Helvetica-Light" font-size="45.0" fill="#000000" transform="matrix(1.00, 0.00, -0.00, -1.00, 361.8, 10.0)">e</text><text xml:space="preserve" font-family="Helvetica-Light" font-size="45.0" fill="#000000" transform="matrix(1.00, 0.00, -0.00, -1.00, 386.8, 10.0)"> </text><text xml:space="preserve" font-family="Helvetica-Light" font-size="45.0" fill="#000000" transform="matrix(1.00, 0.00, -0.00, -1.00, 399.3, 10.0)">a</text><text xml:space="preserve" font-family="Helvetica-Light" font-size="45.0" fill="#000000" transform="matrix(1.00, 0.00, -0.00, -1.00, 424.3, 10.0)">n</text><text xml:space="preserve" font-family="Helvetica-Light" font-size="45.0" fill="#000000" transform="matrix(1.00, 0.00, -0.00, -1.00, 449.3, 10.0)">y</text><text xml:space="preserve" font-family="Helvetica-Light" font-size="45.0" fill="#000000" transform="matrix(1.00, 0.00, -0.00, -1.00, 471.8, 10.0)"> </text><text xml:space="preserve" font-family="Helvetica-Light" font-size="45.0" fill="#000000" transform="matrix(1.00, 0.00, -0.00, -1.00, 484.3, 10.0)">o</text><text xml:space="preserve" font-family="Helvetica-Light" font-size="45.0" fill="#000000" transform="matrix(1.00, 0.00, -0.00, -1.00, 509.4, 10.0)">f</text><text xml:space="preserve" font-family="Helvetica-Light" font-size="45.0" fill="#000000" transform="matrix(1.00, 0.00, -0.00, -1.00, 521.9, 10.0)"> </text><text xml:space="preserve" font-family="Helvetica-Light" font-size="45.0" fill="#000000" transform="matrix(1.00, 0.00, -0.00, -1.00, 534.4, 10.0)">t</text><text xml:space="preserve" font-family="Helvetica-Light" font-size="45.0" fill="#000000" transform="matrix(1.00, 0.00, -0.00, -1.00, 546.9, 10.0)">h</text><text xml:space="preserve" font-family="Helvetica-Light" font-size="45.0" fill="#000000" transform="matrix(1.00, 0.00, -0.00, -1.00, 571.9, 10.0)">a</text><text xml:space="preserve" font-family="Helvetica-Light" font-size="45.0" fill="#000000" transform="matrix(1.00, 0.00, -0.00, -1.00, 596.9, 10.0)">t</text><text xml:space="preserve" font-family="Helvetica-Light" font-size="45.0" fill="#000000" transform="matrix(1.00, 0.00, -0.00, -1.00, 609.4, 10.0)">.</text><text xml:space="preserve" font-family="Helvetica-Light" font-size="45.0" fill="#000000" transform="matrix(1.00, 0.00, -0.00, -1.00, 621.9, 10.0)">.</text></g></svg>