<?xml version="1.0" encoding="UTF-8" standalone="no"?><svg xmlns="http://www.w3.org/2000/svg" xmlns:xlink="http://www.w3.org/1999/xlink" clip-rule="evenodd" stroke-miterlimit="4.00" viewBox="0 0 764 396"><desc>SVG generated by Keynote</desc><defs></defs><g transform="matrix(1.00, 0.00, -0.00, -1.00, 0.0, 396.0)"><text xml:space="preserve" font-family="Helvetica-Light" font-size="45.0" fill="#000000" transform="matrix(1.00, 0.00, -0.00, -1.00, 1.0, 362.0)">A</text><text xml:space="preserve" font-family="Helvetica-Light" font-size="45.0" fill="#000000" transform="matrix(1.00, 0.00, -0.00, -1.00, 31.0, 362.0)">n</text><text xml:space="preserve" font-family="Helvetica-Light" font-size="45.0" fill="#000000" transform="matrix(1.00, 0.00, -0.00, -1.00, 56.0, 362.0)">g</text><text xml:space="preserve" font-family="Helvetica-Light" font-size="45.0" fill="#000000" transform="matrix(1.00, 0.00, -0.00, -1.00, 83.5, 362.0)">u</text><text xml:space="preserve" font-family="Helvetica-Light" font-size="45.0" fill="#000000" transform="matrix(1.00, 0.00, -0.00, -1.00, 108.5, 362.0)">l</text><text xml:space="preserve" font-family="Helvetica-Light" font-size="45.0" fill="#000000" transform="matrix(1.00, 0.00, -0.00, -1.00, 118.5, 362.0)">a</text><text xml:space="preserve" font-family="Helvetica-Light" font-size="45.0" fill="#000000" transform="matrix(1.00, 0.00, -0.00, -1.00, 143.6, 362.0)">r</text><text xml:space="preserve" font-family="Helvetica-Light" font-size="45.0" fill="#000000" transform="matrix(1.00, 0.00, -0.00, -1.00, 158.5, 362.0)"> </text><text xml:space="preserve" font-family="Helvetica-Light" font-size="45.0" fill="#000000" transform="matrix(1.00, 0.00, -0.00, -1.00, 171.1, 362.0)">1</text><text xml:space="preserve" font-family="Helvetica-Light" font-size="45.0" fill="#000000" transform="matrix(1.00, 0.00, -0.00, -1.00, 196.1, 362.0)">.</text><text xml:space="preserve" font-family="Helvetica-Light" font-size="45.0" fill="#000000" transform="matrix(1.00, 0.00, -0.00, -1.00, 208.6, 362.0)">5</text><text xml:space="preserve" font-family="Helvetica-Light" font-size="45.0" fill="#000000" transform="matrix(1.00, 0.00, -0.00, -1.00, 233.6, 362.0)"> </text><text xml:space="preserve" font-family="Helvetica-Light" font-size="33.8" fill="#000000" transform="matrix(1.00, 0.00, -0.00, -1.00, 1.0, 267.3)">•</text><text xml:space="preserve" font-family="Helvetica-Light" font-size="45.0" fill="#000000" transform="matrix(1.00, 0.00, -0.00, -1.00, 45.0, 263.0)">U</text><text xml:space="preserve" font-family="Helvetica-Light" font-size="45.0" fill="#000000" transform="matrix(1.00, 0.00, -0.00, -1.00, 77.5, 263.0)">I</text><text xml:space="preserve" font-family="Helvetica-Light" font-size="45.0" fill="#000000" transform="matrix(1.00, 0.00, -0.00, -1.00, 90.0, 263.0)">-</text><text xml:space="preserve" font-family="Helvetica-Light" font-size="45.0" fill="#000000" transform="matrix(1.00, 0.00, -0.00, -1.00, 105.0, 263.0)">R</text><text xml:space="preserve" font-family="Helvetica-Light" font-size="45.0" fill="#000000" transform="matrix(1.00, 0.00, -0.00, -1.00, 135.0, 263.0)">o</text><text xml:space="preserve" font-family="Helvetica-Light" font-size="45.0" fill="#000000" transform="matrix(1.00, 0.00, -0.00, -1.00, 160.0, 263.0)">u</text><text xml:space="preserve" font-family="Helvetica-Light" font-size="45.0" fill="#000000" transform="matrix(1.00, 0.00, -0.00, -1.00, 185.0, 263.0)">t</text><text xml:space="preserve" font-family="Helvetica-Light" font-size="45.0" fill="#000000" transform="matrix(1.00, 0.00, -0.00, -1.00, 197.5, 263.0)">e</text><text xml:space="preserve" font-family="Helvetica-Light" font-size="45.0" fill="#000000" transform="matrix(1.00, 0.00, -0.00, -1.00, 222.6, 263.0)">r</text><text xml:space="preserve" font-family="Helvetica-Light" font-size="45.0" fill="#000000" transform="matrix(1.00, 0.00, -0.00, -1.00, 237.6, 263.0)"> </text><text xml:space="preserve" font-family="Helvetica-Light" font-size="33.8" fill="#000000" transform="matrix(1.00, 0.00, -0.00, -1.00, 1.0, 168.3)">•</text><text xml:space="preserve" font-family="Helvetica-Light" font-size="45.0" fill="#000000" transform="matrix(1.00, 0.00, -0.00, -1.00, 45.0, 164.0)">D</text><text xml:space="preserve" font-family="Helvetica-Light" font-size="45.0" fill="#000000" transform="matrix(1.00, 0.00, -0.00, -1.00, 77.5, 164.0)">e</text><text xml:space="preserve" font-family="Helvetica-Light" font-size="45.0" fill="#000000" transform="matrix(1.00, 0.00, -0.00, -1.00, 102.5, 164.0)">ﬁ</text><text xml:space="preserve" font-family="Helvetica-Light" font-size="45.0" fill="#000000" transform="matrix(1.00, 0.00, -0.00, -1.00, 125.0, 164.0)">n</text><text xml:space="preserve" font-family="Helvetica-Light" font-size="45.0" fill="#000000" transform="matrix(1.00, 0.00, -0.00, -1.00, 150.0, 164.0)">e</text><text xml:space="preserve" font-family="Helvetica-Light" font-size="45.0" fill="#000000" transform="matrix(1.00, 0.00, -0.00, -1.00, 175.1, 164.0)">d</text><text xml:space="preserve" font-family="Helvetica-Light" font-size="45.0" fill="#000000" transform="matrix(1.00, 0.00, -0.00, -1.00, 202.5, 164.0)"> </text><text xml:space="preserve" font-family="Helvetica-Light" font-size="45.0" fill="#000000" transform="matrix(1.00, 0.00, -0.00, -1.00, 215.1, 164.0)">f</text><text xml:space="preserve" font-family="Helvetica-Light" font-size="45.0" fill="#000000" transform="matrix(1.00, 0.00, -0.00, -1.00, 227.6, 164.0)">o</text><text xml:space="preserve" font-family="Helvetica-Light" font-size="45.0" fill="#000000" transform="matrix(1.00, 0.00, -0.00, -1.00, 252.6, 164.0)">r</text><text xml:space="preserve" font-family="Helvetica-Light" font-size="45.0" fill="#000000" transform="matrix(1.00, 0.00, -0.00, -1.00, 267.6, 164.0)"> </text><text xml:space="preserve" font-family="Helvetica-Light" font-size="45.0" fill="#000000" transform="matrix(1.00, 0.00, -0.00, -1.00, 280.1, 164.0)">e</text><text xml:space="preserve" font-family="Helvetica-Light" font-size="45.0" fill="#000000" transform="matrix(1.00, 0.00, -0.00, -1.00, 305.1, 164.0)">a</text><text xml:space="preserve" font-family="Helvetica-Light" font-size="45.0" fill="#000000" transform="matrix(1.00, 0.00, -0.00, -1.00, 330.1, 164.0)">c</text><text xml:space="preserve" font-family="Helvetica-Light" font-size="45.0" fill="#000000" transform="matrix(1.00, 0.00, -0.00, -1.00, 355.1, 164.0)">h</text><text xml:space="preserve" font-family="Helvetica-Light" font-size="45.0" fill="#000000" transform="matrix(1.00, 0.00, -0.00, -1.00, 380.2, 164.0)"> </text><text xml:space="preserve" font-family="Helvetica-Light" font-size="45.0" fill="#000000" transform="matrix(1.00, 0.00, -0.00, -1.00, 392.7, 164.0)">r</text><text xml:space="preserve" font-family="Helvetica-Light" font-size="45.0" fill="#000000" transform="matrix(1.00, 0.00, -0.00, -1.00, 406.8, 164.0)">o</text><text xml:space="preserve" font-family="Helvetica-Light" font-size="45.0" fill="#000000" transform="matrix(1.00, 0.00, -0.00, -1.00, 431.9, 164.0)">u</text><text xml:space="preserve" font-family="Helvetica-Light" font-size="45.0" fill="#000000" transform="matrix(1.00, 0.00, -0.00, -1.00, 456.9, 164.0)">t</text><text xml:space="preserve" font-family="Helvetica-Light" font-size="45.0" fill="#000000" transform="matrix(1.00, 0.00, -0.00, -1.00, 469.4, 164.0)">e</text><text xml:space="preserve" font-family="Helvetica-Light" font-size="45.0" fill="#000000" transform="matrix(1.00, 0.00, -0.00, -1.00, 494.4, 164.0)">d</text><text xml:space="preserve" font-family="Helvetica-Light" font-size="45.0" fill="#000000" transform="matrix(1.00, 0.00, -0.00, -1.00, 521.9, 164.0)"> </text><text xml:space="preserve" font-family="Helvetica-Light" font-size="45.0" fill="#000000" transform="matrix(1.00, 0.00, -0.00, -1.00, 534.4, 164.0)">c</text><text xml:space="preserve" font-family="Helvetica-Light" font-size="45.0" fill="#000000" transform="matrix(1.00, 0.00, -0.00, -1.00, 559.4, 164.0)">o</text><text xml:space="preserve" font-family="Helvetica-Light" font-size="45.0" fill="#000000" transform="matrix(1.00, 0.00, -0.00, -1.00, 584.5, 164.0)">m</text><text xml:space="preserve" font-family="Helvetica-Light" font-size="45.0" fill="#000000" transform="matrix(1.00, 0.00, -0.00, -1.00, 621.9, 164.0)">p</text><text xml:space="preserve" font-family="Helvetica-Light" font-size="45.0" fill="#000000" transform="matrix(1.00, 0.00, -0.00, -1.00, 649.4, 164.0)">o</text><text xml:space="preserve" font-family="Helvetica-Light" font-size="45.0" fill="#000000" transform="matrix(1.00, 0.00, -0.00, -1.00, 674.5, 164.0)">n</text><text xml:space="preserve" font-family="Helvetica-Light" font-size="45.0" fill="#000000" transform="matrix(1.00, 0.00, -0.00, -1.00, 699.5, 164.0)">e</text><text xml:space="preserve" font-family="Helvetica-Light" font-size="45.0" fill="#000000" transform="matrix(1.00, 0.00, -0.00, -1.00, 724.5, 164.0)">n</text><text xml:space="preserve" font-family="Helvetica-Light" font-size="45.0" fill="#000000" transform="matrix(1.00, 0.00, -0.00, -1.00, 749.5, 164.0)">t</text><text xml:space="preserve" font-family="Helvetica-Light" font-size="45.0" fill="#000000" transform="matrix(1.00, 0.00, -0.00, -1.00, 762.0, 164.0)"> </text><text xml:space="preserve" font-family="Helvetica-Light" font-size="45.0" fill="#000000" transform="matrix(1.00, 0.00, -0.00, -1.00, 45.0, 110.0)">i</text><text xml:space="preserve" font-family="Helvetica-Light" font-size="45.0" fill="#000000" transform="matrix(1.00, 0.00, -0.00, -1.00, 55.0, 110.0)">n</text><text xml:space="preserve" font-family="Helvetica-Light" font-size="45.0" fill="#000000" transform="matrix(1.00, 0.00, -0.00, -1.00, 80.0, 110.0)"> </text><text xml:space="preserve" font-family="Helvetica-Light" font-size="45.0" fill="#000000" transform="matrix(1.00, 0.00, -0.00, -1.00, 92.5, 110.0)">a</text><text xml:space="preserve" font-family="Helvetica-Light" font-size="45.0" fill="#000000" transform="matrix(1.00, 0.00, -0.00, -1.00, 117.5, 110.0)"> </text><text xml:space="preserve" font-family="Helvetica-Light" font-size="45.0" fill="#000000" transform="matrix(1.00, 0.00, -0.00, -1.00, 130.1, 110.0)">.</text><text xml:space="preserve" font-family="Helvetica-Light" font-size="45.0" fill="#000000" transform="matrix(1.00, 0.00, -0.00, -1.00, 142.6, 110.0)">c</text><text xml:space="preserve" font-family="Helvetica-Light" font-size="45.0" fill="#000000" transform="matrix(1.00, 0.00, -0.00, -1.00, 167.6, 110.0)">o</text><text xml:space="preserve" font-family="Helvetica-Light" font-size="45.0" fill="#000000" transform="matrix(1.00, 0.00, -0.00, -1.00, 192.6, 110.0)">n</text><text xml:space="preserve" font-family="Helvetica-Light" font-size="45.0" fill="#000000" transform="matrix(1.00, 0.00, -0.00, -1.00, 217.6, 110.0)">ﬁ</text><text xml:space="preserve" font-family="Helvetica-Light" font-size="45.0" fill="#000000" transform="matrix(1.00, 0.00, -0.00, -1.00, 240.1, 110.0)">g</text><text xml:space="preserve" font-family="Helvetica-Light" font-size="45.0" fill="#000000" transform="matrix(1.00, 0.00, -0.00, -1.00, 267.6, 110.0)">(</text><text xml:space="preserve" font-family="Helvetica-Light" font-size="45.0" fill="#000000" transform="matrix(1.00, 0.00, -0.00, -1.00, 282.6, 110.0)">)</text><text xml:space="preserve" font-family="Helvetica-Light" font-size="45.0" fill="#000000" transform="matrix(1.00, 0.00, -0.00, -1.00, 297.6, 110.0)"> </text><text xml:space="preserve" font-family="Helvetica-Light" font-size="33.8" fill="#000000" transform="matrix(1.00, 0.00, -0.00, -1.00, 1.0, 15.3)">•</text><text xml:space="preserve" font-family="Helvetica-Light" font-size="45.0" fill="#000000" transform="matrix(1.00, 0.00, -0.00, -1.00, 45.0, 11.0)">L</text><text xml:space="preserve" font-family="Helvetica-Light" font-size="45.0" fill="#000000" transform="matrix(1.00, 0.00, -0.00, -1.00, 70.0, 11.0)">o</text><text xml:space="preserve" font-family="Helvetica-Light" font-size="45.0" fill="#000000" transform="matrix(1.00, 0.00, -0.00, -1.00, 95.0, 11.0)">t</text><text xml:space="preserve" font-family="Helvetica-Light" font-size="45.0" fill="#000000" transform="matrix(1.00, 0.00, -0.00, -1.00, 107.5, 11.0)">s</text><text xml:space="preserve" font-family="Helvetica-Light" font-size="45.0" fill="#000000" transform="matrix(1.00, 0.00, -0.00, -1.00, 130.1, 11.0)"> </text><text xml:space="preserve" font-family="Helvetica-Light" font-size="45.0" fill="#000000" transform="matrix(1.00, 0.00, -0.00, -1.00, 142.6, 11.0)">o</text><text xml:space="preserve" font-family="Helvetica-Light" font-size="45.0" fill="#000000" transform="matrix(1.00, 0.00, -0.00, -1.00, 167.6, 11.0)">f</text><text xml:space="preserve" font-family="Helvetica-Light" font-size="45.0" fill="#000000" transform="matrix(1.00, 0.00, -0.00, -1.00, 180.1, 11.0)"> </text><text xml:space="preserve" font-family="Helvetica-Light" font-size="45.0" fill="#000000" transform="matrix(1.00, 0.00, -0.00, -1.00, 192.6, 11.0)">g</text><text xml:space="preserve" font-family="Helvetica-Light" font-size="45.0" fill="#000000" transform="matrix(1.00, 0.00, -0.00, -1.00, 220.1, 11.0)">r</text><text xml:space="preserve" font-family="Helvetica-Light" font-size="45.0" fill="#000000" transform="matrix(1.00, 0.00, -0.00, -1.00, 234.3, 11.0)">e</text><text xml:space="preserve" font-family="Helvetica-Light" font-size="45.0" fill="#000000" transform="matrix(1.00, 0.00, -0.00, -1.00, 259.3, 11.0)">a</text><text xml:space="preserve" font-family="Helvetica-Light" font-size="45.0" fill="#000000" transform="matrix(1.00, 0.00, -0.00, -1.00, 284.3, 11.0)">t</text><text xml:space="preserve" font-family="Helvetica-Light" font-size="45.0" fill="#000000" transform="matrix(1.00, 0.00, -0.00, -1.00, 296.8, 11.0)"> </text><text xml:space="preserve" font-family="Helvetica-Light" font-size="45.0" fill="#000000" transform="matrix(1.00, 0.00, -0.00, -1.00, 309.3, 11.0)">f</text><text xml:space="preserve" font-family="Helvetica-Light" font-size="45.0" fill="#000000" transform="matrix(1.00, 0.00, -0.00, -1.00, 321.8, 11.0)">e</text><text xml:space="preserve" font-family="Helvetica-Light" font-size="45.0" fill="#000000" transform="matrix(1.00, 0.00, -0.00, -1.00, 346.9, 11.0)">a</text><text xml:space="preserve" font-family="Helvetica-Light" font-size="45.0" fill="#000000" transform="matrix(1.00, 0.00, -0.00, -1.00, 371.9, 11.0)">t</text><text xml:space="preserve" font-family="Helvetica-Light" font-size="45.0" fill="#000000" transform="matrix(1.00, 0.00, -0.00, -1.00, 384.4, 11.0)">u</text><text xml:space="preserve" font-family="Helvetica-Light" font-size="45.0" fill="#000000" transform="matrix(1.00, 0.00, -0.00, -1.00, 409.4, 11.0)">r</text><text xml:space="preserve" font-family="Helvetica-Light" font-size="45.0" fill="#000000" transform="matrix(1.00, 0.00, -0.00, -1.00, 423.6, 11.0)">e</text><text xml:space="preserve" font-family="Helvetica-Light" font-size="45.0" fill="#000000" transform="matrix(1.00, 0.00, -0.00, -1.00, 448.6, 11.0)">s</text></g></svg>