<?xml version="1.0" encoding="UTF-8" standalone="no"?><svg xmlns="http://www.w3.org/2000/svg" xmlns:xlink="http://www.w3.org/1999/xlink" clip-rule="evenodd" stroke-miterlimit="4.00" viewBox="0 0 1920 1080"><desc>SVG generated by Keynote</desc><defs></defs><g transform="matrix(1.00, 0.00, -0.00, -1.00, 0.0, 1080.0)"><path d="M 0.0 1080.0 L 1920.0 1080.0 L 1920.0 0.0 L 0.0 0.0 Z M 0.0 1080.0 " fill="#000000"></path><text xml:space="preserve" font-family="Helvetica-Light" font-size="112.0" fill="#FEFFFF" transform="matrix(1.00, 0.00, -0.00, -1.00, 238.0, 114.0)">A</text><text xml:space="preserve" font-family="Helvetica-Light" font-size="112.0" fill="#FEFFFF" transform="matrix(1.00, 0.00, -0.00, -1.00, 312.7, 114.0)">t</text><text xml:space="preserve" font-family="Helvetica-Light" font-size="112.0" fill="#FEFFFF" transform="matrix(1.00, 0.00, -0.00, -1.00, 343.8, 114.0)"> </text><text xml:space="preserve" font-family="Helvetica-Light" font-size="112.0" fill="#FEFFFF" transform="matrix(1.00, 0.00, -0.00, -1.00, 375.0, 114.0)">ï¬</text><text xml:space="preserve" font-family="Helvetica-Light" font-size="112.0" fill="#FEFFFF" transform="matrix(1.00, 0.00, -0.00, -1.00, 431.0, 114.0)">r</text><text xml:space="preserve" font-family="Helvetica-Light" font-size="112.0" fill="#FEFFFF" transform="matrix(1.00, 0.00, -0.00, -1.00, 468.3, 114.0)">s</text><text xml:space="preserve" font-family="Helvetica-Light" font-size="112.0" fill="#FEFFFF" transform="matrix(1.00, 0.00, -0.00, -1.00, 524.3, 114.0)">t</text><text xml:space="preserve" font-family="Helvetica-Light" font-size="112.0" fill="#FEFFFF" transform="matrix(1.00, 0.00, -0.00, -1.00, 555.4, 114.0)"> </text><text xml:space="preserve" font-family="Helvetica-Light" font-size="112.0" fill="#FEFFFF" transform="matrix(1.00, 0.00, -0.00, -1.00, 586.5, 114.0)">i</text><text xml:space="preserve" font-family="Helvetica-Light" font-size="112.0" fill="#FEFFFF" transform="matrix(1.00, 0.00, -0.00, -1.00, 611.4, 114.0)"> </text><text xml:space="preserve" font-family="Helvetica-Light" font-size="112.0" fill="#FEFFFF" transform="matrix(1.00, 0.00, -0.00, -1.00, 642.5, 114.0)">w</text><text xml:space="preserve" font-family="Helvetica-Light" font-size="112.0" fill="#FEFFFF" transform="matrix(1.00, 0.00, -0.00, -1.00, 723.4, 114.0)">a</text><text xml:space="preserve" font-family="Helvetica-Light" font-size="112.0" fill="#FEFFFF" transform="matrix(1.00, 0.00, -0.00, -1.00, 785.7, 114.0)">s</text><text xml:space="preserve" font-family="Helvetica-Light" font-size="112.0" fill="#FEFFFF" transform="matrix(1.00, 0.00, -0.00, -1.00, 841.7, 114.0)"> </text><text xml:space="preserve" font-family="Helvetica-Light" font-size="112.0" fill="#FEFFFF" transform="matrix(1.00, 0.00, -0.00, -1.00, 872.8, 114.0)">l</text><text xml:space="preserve" font-family="Helvetica-Light" font-size="112.0" fill="#FEFFFF" transform="matrix(1.00, 0.00, -0.00, -1.00, 897.7, 114.0)">i</text><text xml:space="preserve" font-family="Helvetica-Light" font-size="112.0" fill="#FEFFFF" transform="matrix(1.00, 0.00, -0.00, -1.00, 922.5, 114.0)">k</text><text xml:space="preserve" font-family="Helvetica-Light" font-size="112.0" fill="#FEFFFF" transform="matrix(1.00, 0.00, -0.00, -1.00, 978.5, 114.0)">e</text><text xml:space="preserve" font-family="Helvetica-Light" font-size="112.0" fill="#FEFFFF" transform="matrix(1.00, 0.00, -0.00, -1.00, 1040.8, 114.0)">,</text><text xml:space="preserve" font-family="Helvetica-Light" font-size="112.0" fill="#FEFFFF" transform="matrix(1.00, 0.00, -0.00, -1.00, 1072.0, 114.0)"> </text><text xml:space="preserve" font-family="Helvetica-Light" font-size="112.0" fill="#FEFFFF" transform="matrix(1.00, 0.00, -0.00, -1.00, 1103.1, 114.0)">l</text><text xml:space="preserve" font-family="Helvetica-Light" font-size="112.0" fill="#FEFFFF" transform="matrix(1.00, 0.00, -0.00, -1.00, 1128.0, 114.0)">e</text><text xml:space="preserve" font-family="Helvetica-Light" font-size="112.0" fill="#FEFFFF" transform="matrix(1.00, 0.00, -0.00, -1.00, 1190.2, 114.0)">t</text><text xml:space="preserve" font-family="Helvetica-Light" font-size="112.0" fill="#FEFFFF" transform="matrix(1.00, 0.00, -0.00, -1.00, 1221.4, 114.0)">s</text><text xml:space="preserve" font-family="Helvetica-Light" font-size="112.0" fill="#FEFFFF" transform="matrix(1.00, 0.00, -0.00, -1.00, 1277.4, 114.0)"> </text><text xml:space="preserve" font-family="Helvetica-Light" font-size="112.0" fill="#FEFFFF" transform="matrix(1.00, 0.00, -0.00, -1.00, 1308.5, 114.0)">d</text><text xml:space="preserve" font-family="Helvetica-Light" font-size="112.0" fill="#FEFFFF" transform="matrix(1.00, 0.00, -0.00, -1.00, 1376.9, 114.0)">o</text><text xml:space="preserve" font-family="Helvetica-Light" font-size="112.0" fill="#FEFFFF" transform="matrix(1.00, 0.00, -0.00, -1.00, 1439.2, 114.0)"> </text><text xml:space="preserve" font-family="Helvetica-Light" font-size="112.0" fill="#FEFFFF" transform="matrix(1.00, 0.00, -0.00, -1.00, 1470.3, 114.0)">t</text><text xml:space="preserve" font-family="Helvetica-Light" font-size="112.0" fill="#FEFFFF" transform="matrix(1.00, 0.00, -0.00, -1.00, 1501.5, 114.0)">h</text><text xml:space="preserve" font-family="Helvetica-Light" font-size="112.0" fill="#FEFFFF" transform="matrix(1.00, 0.00, -0.00, -1.00, 1563.7, 114.0)">i</text><text xml:space="preserve" font-family="Helvetica-Light" font-size="112.0" fill="#FEFFFF" transform="matrix(1.00, 0.00, -0.00, -1.00, 1588.6, 114.0)">s</text><text xml:space="preserve" font-family="Helvetica-Light" font-size="112.0" fill="#FEFFFF" transform="matrix(1.00, 0.00, -0.00, -1.00, 1644.6, 114.0)">!</text><image xlink:href="../../10653984-555D-438F-85AC-70A70CF0CE94/assets/C486A18CA34214D2756654119657D0DC.png" width="500.00" height="204.00" transform="matrix(3.84, 0.00, -0.00, -3.84, 0.0, 1081.0)"></image></g></svg>